<svg width="134" height="156" viewBox="0 0 134 156" fill="none" xmlns="http://www.w3.org/2000/svg">
<g clip-path="url(#clip0_778_6329)">
<path d="M85.4005 144.305C86.3108 144.224 86.714 144.305 86.979 144.144C108.11 131.495 122.294 113.579 127.801 89.3611C129.144 83.1909 129.002 76.7909 127.386 70.6862C125.844 64.256 122.25 58.4998 117.147 54.2836C112.043 50.0675 105.706 47.6195 99.0886 47.308C91.9565 46.894 85.0779 47.6185 78.7985 51.5398C78.3145 54.8631 78.038 58.1749 77.3006 61.3717C76.827 63.8322 75.822 66.1602 74.3555 68.1937C72.8891 70.2273 70.9963 71.9176 68.8089 73.147C65.3524 75.1019 61.8958 75.1594 60.0292 73.147C58.968 72.0797 58.2986 70.6862 58.1292 69.1921C57.9599 67.698 58.3005 66.1905 59.096 64.9135C61.2013 61.2517 63.6347 57.7877 66.3663 54.5641C68.2488 52.572 70.2744 50.7195 72.4268 49.0214C70.5142 36.1422 58.2203 30.565 43.4146 35.9927C42.9307 37.8096 42.5274 39.7874 41.8822 41.6733C39.5202 48.4579 35.3377 53.6786 28.367 56.0935C25.74 56.9905 22.8365 57.3239 20.5666 54.9436C18.8153 53.1267 18.8268 49.8494 20.6934 46.6641C23.6776 41.5928 28.1481 38.028 33.0334 34.9462C34.7386 33.8768 36.4899 32.9108 38.1837 31.9564C35.9254 11.8556 17.8129 -2.38062 0 5.65742C0.172829 4.197 0 2.92058 0.495443 2.20762C1.26083 1.42409 2.26653 0.918177 3.35288 0.770199C13.0889 -1.0467 22.1912 0.0687399 29.7266 7.17533C35.2251 12.444 39.337 18.9848 41.6978 26.2182C42.055 27.2647 42.4353 28.2881 42.85 29.323C42.85 29.4725 43.1035 29.5645 43.4953 29.944C44.4977 29.8405 45.7997 29.783 47.0095 29.5875C62.4258 27.1727 70.5142 31.3239 77.7039 45.6866L82.1513 44.2492C90.7742 41.2104 100.164 41.1134 108.848 43.9732C123.504 48.7684 132.963 61.3717 133.908 77.2063C134.421 85.717 133.052 94.2361 129.898 102.16C122.259 121.582 109.781 136.842 91.196 146.846C90.2128 147.375 89.245 147.916 88.2925 148.468C88.1658 148.548 88.1082 148.767 87.6588 149.537C91.5532 150.446 95.2633 150.089 98.9503 149.928C102.637 149.767 106.175 149.48 110.104 149.227C110.073 150.348 109.674 151.427 108.968 152.3C108.262 153.173 107.289 153.79 106.198 154.056C103.982 154.941 101.656 155.522 99.2844 155.781C93.005 156.011 86.7025 156.138 80.4461 155.781C75.4571 155.459 74.0975 152.78 76.3328 148.755C81.0798 140.207 85.8883 131.69 90.7582 123.204C91.6969 121.779 92.7203 120.412 93.823 119.11C96.0237 121.617 95.0444 123.457 94.2494 125.216C91.3804 131.391 88.4999 137.578 85.4005 144.305ZM24.1154 51.5053C32.054 50.4473 37.0315 45.3761 37.331 38.2465C31.9964 41.7768 26.9037 44.9162 24.1154 51.5053ZM63.048 69.3752C69.8574 67.8458 73.0375 63.2461 72.3346 56.174C67.9794 59.7963 64.108 63.2461 63.048 69.3752Z" fill="black"/>
</g>
<defs>
<clipPath id="clip0_778_6329">
<rect width="134" height="156" fill="white"/>
</clipPath>
</defs>
</svg>
