<svg width="32" height="32" viewBox="0 0 32 32" fill="none" xmlns="http://www.w3.org/2000/svg">
<path d="M12.2486 3.13664C13.5374 -0.345636 18.4626 -0.345636 19.7514 3.13664L21.5743 8.0626C21.9795 9.15736 22.8426 10.0205 23.9374 10.4257L28.8634 12.2486C32.3456 13.5374 32.3456 18.4626 28.8634 19.7514L23.9374 21.5743C22.8426 21.9795 21.9795 22.8426 21.5743 23.9374L19.7514 28.8634C18.4626 32.3456 13.5374 32.3456 12.2486 28.8634L10.4257 23.9374C10.0205 22.8426 9.15736 21.9795 8.0626 21.5743L3.13664 19.7514C-0.345636 18.4626 -0.345636 13.5374 3.13664 12.2486L8.0626 10.4257C9.15736 10.0205 10.0205 9.15736 10.4257 8.0626L12.2486 3.13664Z" fill="#000E28"/>
</svg>
