<svg width="54" height="54" viewBox="0 0 54 54" fill="none" xmlns="http://www.w3.org/2000/svg">
<path d="M23.2486 3.13665C24.5374 -0.345624 29.4626 -0.345634 30.7514 3.13664L35.5456 16.0913C35.9508 17.1861 36.8139 18.0492 37.9087 18.4544L50.8633 23.2486C54.3456 24.5374 54.3456 29.4626 50.8634 30.7514L37.9087 35.5456C36.8139 35.9508 35.9508 36.8139 35.5456 37.9087L30.7514 50.8633C29.4626 54.3456 24.5374 54.3456 23.2486 50.8634L18.4544 37.9087C18.0492 36.8139 17.1861 35.9508 16.0913 35.5456L3.13665 30.7514C-0.345624 29.4626 -0.345634 24.5374 3.13664 23.2486L16.0913 18.4544C17.1861 18.0492 18.0492 17.1861 18.4544 16.0913L23.2486 3.13665Z" fill="#00CCFF"/>
</svg>
