<svg width="47" height="41" viewBox="0 0 47 41" fill="none" xmlns="http://www.w3.org/2000/svg">
<path opacity="0.2" d="M27.2633 40.7036C27.2303 40.727 27.1981 40.7491 27.1666 40.7697C26.5548 41.171 26.1 40.2259 26.7616 39.9133C30.5528 37.6739 33.5635 34.9076 35.7936 31.6145C37.9122 28.453 38.9715 25.4233 38.9715 22.5253C38.9715 22.0948 38.9201 21.7077 38.8171 21.364C38.4788 20.2344 37.2623 19.699 36.1315 19.3648C35.4617 19.1669 34.68 18.969 33.7865 18.7711C30.9988 18.2442 28.8244 17.388 27.2633 16.2024C25.7023 15.0169 24.9217 12.8434 24.9217 9.68193C24.9217 7.31085 26.0368 5.07149 28.2669 2.96385C30.3855 0.987952 33.1174 2.60105e-06 36.4626 2.89349e-06C39.9193 3.19569e-06 42.5397 0.922088 44.3238 2.76627C46.108 4.74217 47 7.17911 47 10.0771C47 16.2683 45.1044 21.9325 41.3132 27.0699C37.4104 32.339 32.7272 36.8835 27.2633 40.7036ZM2.34163 40.7036C2.26934 40.7549 2.19985 40.7995 2.13318 40.8374C1.49133 41.2028 1.00483 40.2288 1.67259 39.9133C5.46381 37.8056 8.47449 35.1052 10.7046 31.812C12.8232 28.5189 13.8826 25.4233 13.8826 22.5253C13.8826 22.0948 13.8311 21.7077 13.7282 21.364C13.3898 20.2344 12.1734 19.699 11.0425 19.3648C10.3727 19.1669 9.59105 18.969 8.69751 18.7711C5.90985 18.2442 3.79122 17.3879 2.34164 16.2024C0.780547 15.1486 -1.36468e-06 12.9751 -1.07678e-06 9.68193C-8.69498e-07 7.31084 1.11507 5.07148 3.3452 2.96385C5.46382 0.98795 8.19573 4.2232e-07 11.5409 7.14766e-07C14.9976 1.01696e-06 17.618 0.922086 19.4021 2.76626C21.1862 4.74217 22.0783 7.17911 22.0783 10.0771C22.0783 16.2683 20.1827 21.9325 16.3915 27.0699C12.4887 32.3389 7.80545 36.8835 2.34163 40.7036Z" fill="#000E28"/>
</svg>
