<svg width="187" height="217" viewBox="0 0 187 217" fill="none" xmlns="http://www.w3.org/2000/svg">
<path d="M67.4766 199.807C66.2131 199.695 65.6534 199.807 65.2855 199.584C35.9541 182.07 16.2666 157.263 8.62189 123.731C6.75797 115.187 6.95528 106.326 9.19765 97.8732C11.3391 88.9698 16.327 80.9997 23.4108 75.1619C30.4946 69.3242 39.2911 65.9347 48.4767 65.5034C58.3765 64.9302 67.9244 65.9333 76.6406 71.3628C77.3123 75.9643 77.6962 80.5498 78.7197 84.9762C79.3771 88.383 80.7721 91.6064 82.8077 94.4221C84.8432 97.2378 87.4705 99.5782 90.5067 101.28C95.3046 103.987 100.103 104.067 102.693 101.28C104.166 99.8026 105.096 97.8732 105.331 95.8044C105.566 93.7356 105.093 91.6484 103.989 89.8802C101.066 84.81 97.6888 80.0138 93.8972 75.5503C91.2841 72.792 88.4725 70.2271 85.4848 67.8758C88.1397 50.043 105.204 42.3207 125.756 49.836C126.427 52.3517 126.987 55.0903 127.883 57.7015C131.161 67.0956 136.967 74.3243 146.643 77.6679C150.289 78.9099 154.319 79.3716 157.47 76.0757C159.901 73.56 159.885 69.0222 157.294 64.6118C153.152 57.5901 146.946 52.6542 140.165 48.3871C137.798 46.9063 135.367 45.5689 133.016 44.2473C136.151 16.4154 161.292 -3.29624 186.018 7.83335C185.778 5.81123 186.018 4.04387 185.33 3.0567C184.267 1.97181 182.872 1.27132 181.364 1.06643C167.849 -1.44927 155.215 0.0951783 144.755 9.93507C137.123 17.2302 131.416 26.2866 128.138 36.3022C127.643 37.7511 127.115 39.1682 126.539 40.6011C126.539 40.8081 126.187 40.9355 125.644 41.4609C124.252 41.3176 122.445 41.238 120.766 40.9674C99.3669 37.6237 88.1397 43.3716 78.16 63.2584L71.9866 61.2681C60.0176 57.0606 46.9845 56.9262 34.9306 60.886C14.5873 67.5255 1.45697 84.9762 0.145523 106.901C-0.566895 118.685 1.33321 130.481 5.71114 141.452C16.3146 168.345 33.6351 189.473 59.432 203.326C60.7968 204.058 62.1402 204.806 63.4623 205.571C63.6382 205.682 63.7182 205.985 64.3419 207.051C58.9362 208.309 53.7865 207.816 48.6687 207.593C43.5509 207.37 38.641 206.972 33.1873 206.621C33.2302 208.174 33.784 209.669 34.7635 210.877C35.7431 212.085 37.0941 212.94 38.609 213.309C41.6841 214.534 44.9123 215.338 48.2049 215.697C56.9211 216.016 65.6693 216.191 74.3536 215.697C81.2786 215.251 83.1658 211.541 80.0632 205.969C73.474 194.133 66.7995 182.34 60.0398 170.59C58.7368 168.617 57.3162 166.724 55.7856 164.921C52.7309 168.392 54.0903 170.94 55.1938 173.376C59.1761 181.926 63.1744 190.492 67.4766 199.807ZM152.544 71.315C141.525 69.8502 134.616 62.8285 134.2 52.9567C141.605 57.8448 148.674 62.1916 152.544 71.315ZM98.5032 96.058C89.0513 93.9404 84.6372 87.5715 85.6128 77.7794C91.6582 82.7949 97.0319 87.5715 98.5032 96.058Z" fill="black"/>
</svg>
