<svg width="150" height="106" viewBox="0 0 150 106" fill="none" xmlns="http://www.w3.org/2000/svg">
<g clip-path="url(#clip0_1063_14634)">
<path d="M17.4432 97.806C10.4113 88.9966 8.81507 77.9239 2.08513 69.3866C1.92695 69.1861 1.22232 69.3866 0 69.3866C0.0342619 71.3522 0.289913 73.3078 0.762151 75.2166C3.79638 83.4674 6.71556 91.6752 10.325 99.6396C13.7331 107.16 17.9465 107.847 24.4464 102.59C30.3279 97.7917 36.1231 92.8642 41.9183 87.9509C42.7399 86.9667 43.4578 85.9011 44.061 84.7709C34.1242 85.6304 29.0049 93.1077 20.5925 96.9036C22.3181 89.2974 23.4685 82.5793 25.4098 76.0044C31.8953 53.9163 42.6661 34.4639 61.3604 20.1396C85.9937 1.18848 116.624 0.157127 142.637 17.1888C142.82 17.3261 143.012 17.4505 143.213 17.5612C145.269 18.6069 147.527 21.8585 149.525 18.4636C151.294 15.4125 147.685 14.3096 145.7 13.0347C114.236 -7.29151 77.5093 -3.56719 50.7909 22.7036C33.6497 39.5777 24.245 60.4625 19.6578 83.7539C18.6943 88.395 18.1766 93.1077 17.4432 97.806Z" fill="black"/>
</g>
<defs>
<clipPath id="clip0_1063_14634">
<rect width="150" height="106" fill="white" transform="matrix(1 0 0 -1 0 106)"/>
</clipPath>
</defs>
</svg>
