<svg width="100" height="100" viewBox="0 0 100 100" fill="none" xmlns="http://www.w3.org/2000/svg">
<g clip-path="url(#clip0_1063_14649)">
<path d="M42.1086 43.7339C42.1086 43.6945 42.0298 43.7339 42.0354 43.8295L42.1198 43.9195L42.1086 43.7339Z" fill="#202020"/>
<path d="M41.8262 44.4762C41.8262 44.6168 41.8599 44.7912 41.9724 44.7293C41.9274 44.5718 41.9724 44.5493 41.8993 44.3862C41.8993 44.2737 41.9668 44.195 42.0005 44.2231C42.0343 44.2512 42.0455 44.0431 42.0005 43.9756C41.9115 44.1348 41.8724 44.317 41.888 44.4987C41.8543 44.5381 41.8374 44.4875 41.8262 44.4762Z" fill="#202020"/>
<path d="M34.3125 40.2576V40.3307C34.3185 40.3067 34.3185 40.2816 34.3125 40.2576V40.2576Z" fill="#202020"/>
<path d="M36.2361 34.0588C36.2023 34.0982 36.1911 34.1207 36.1967 34.1263C36.2023 34.132 36.2473 34.0588 36.2361 34.0588Z" fill="#202020"/>
<path d="M37.1637 33.4683H37.1074C37.1257 33.4743 37.1454 33.4743 37.1637 33.4683Z" fill="#202020"/>
<path d="M34.3125 40.2576L34.3463 40.0776C34.3463 40.0776 34.3125 40.1733 34.3125 40.2576Z" fill="#202020"/>
<path d="M34.9258 43.0532V43.0982H34.982L34.9258 43.0532Z" fill="#202020"/>
<path d="M36.6416 44.2288C36.5966 44.2288 36.5572 44.2794 36.5234 44.3075C36.5635 44.2938 36.6071 44.2938 36.6472 44.3075C36.6546 44.2955 36.6581 44.2814 36.6571 44.2672C36.6561 44.2531 36.6506 44.2396 36.6416 44.2288V44.2288Z" fill="#202020"/>
<path d="M34.4746 41.5662C34.4746 41.5662 34.478 41.5595 34.4746 41.5662V41.5662Z" fill="#202020"/>
<path d="M43.1573 41.8777C43.1573 41.8777 43.1505 41.8844 43.1573 41.8777V41.8777Z" fill="#202020"/>
<path d="M41.9847 44.0657V44.0264H41.9453L41.9847 44.0657Z" fill="#202020"/>
<path d="M39.0757 32.8945C39.0138 32.917 39.0419 32.9058 39.0757 32.8945V32.8945Z" fill="#202020"/>
<path d="M58.4261 33.0352C58.2124 32.9508 58.7861 32.9677 58.4655 32.8665C58.4992 32.9002 58.1618 32.9677 58.4261 33.0352Z" fill="#202020"/>
<path d="M43.8752 32.7202C43.8752 32.7202 43.8752 32.692 43.8302 32.6808C43.7852 32.6695 43.8358 32.6977 43.8752 32.7202Z" fill="#202020"/>
<path d="M40.2578 32.6246H40.3422C40.3143 32.619 40.2857 32.619 40.2578 32.6246V32.6246Z" fill="#202020"/>
<path d="M45.7637 32.6245C45.8063 32.6336 45.8504 32.6336 45.893 32.6245V32.6245C45.8507 32.636 45.806 32.636 45.7637 32.6245Z" fill="#202020"/>
<path d="M48.4419 40.2521C48.4058 40.239 48.373 40.2178 48.3463 40.1902C48.3744 40.2408 48.0932 40.2802 48.4419 40.2521Z" fill="#202020"/>
<path d="M40.6734 45.2188C40.667 45.2281 40.6587 45.2359 40.649 45.2418C40.6393 45.2476 40.6284 45.2512 40.6172 45.2525H40.6791C40.6791 45.2525 40.6903 45.2244 40.6734 45.2188Z" fill="#202020"/>
<path d="M61.6161 42.9126L61.543 42.9576C61.5688 42.9452 61.5933 42.9301 61.6161 42.9126V42.9126Z" fill="#202020"/>
<path d="M47.0918 32.062C47.1472 32.0883 47.2058 32.1073 47.2662 32.1183H47.3055L47.0918 32.062Z" fill="#202020"/>
<path d="M46.3385 40.4995C46.6254 40.4714 46.4623 40.387 46.5185 40.3195C46.8616 40.252 46.6816 40.3814 46.8054 40.4207C46.9892 40.3544 47.1771 40.2999 47.3679 40.2576C47.3679 40.2576 47.4129 40.2576 47.3679 40.3026C47.5929 40.207 48.0597 40.2576 48.3297 40.1395H48.3635C48.3453 40.1224 48.3312 40.1013 48.3224 40.0779C48.3137 40.0545 48.3104 40.0294 48.3129 40.0045C48.4479 40.0045 48.5604 39.9258 48.611 40.0045C48.5876 40.0048 48.5645 40.0099 48.5432 40.0196C48.5219 40.0293 48.5028 40.0433 48.4872 40.0607L48.6279 40.0214C48.7572 40.1114 48.4366 40.0664 48.4422 40.1395C48.7013 40.0684 48.9671 40.025 49.2353 40.0101C49.286 40.1001 48.7516 40.0664 49.0328 40.1395H48.7066C48.9653 40.2801 48.5097 40.1395 48.746 40.2914C49.1735 40.2914 49.2185 40.2126 49.646 40.2182C49.736 40.162 49.6066 40.1451 49.7022 40.0832C50.2985 39.9539 50.186 40.297 50.6247 40.1451C50.6821 40.081 50.7558 40.0335 50.838 40.0078C50.9202 39.982 51.0078 39.9789 51.0916 39.9989L50.9903 40.117C51.4009 40.117 51.2153 39.9482 51.6484 39.9932C51.5753 40.0439 51.3278 40.0495 51.3953 40.0607C51.6766 40.1282 51.5866 39.9876 51.8003 39.9764L51.8509 40.0664C52.2897 40.027 52.7678 39.9314 53.2459 39.892C53.2459 39.892 53.139 39.9539 53.2459 39.982C53.8653 39.9229 54.49 39.9494 55.1021 40.0607L55.3271 39.9989C55.3778 39.9989 55.4171 40.0439 55.3609 40.0551C55.5803 40.1114 55.3609 40.0045 55.4903 39.982C55.6196 39.9595 55.6534 40.0495 55.569 40.0607C56.0802 40.0214 56.5931 40.1124 57.0596 40.3251H56.9809C57.2621 40.4601 57.3802 40.2857 57.6165 40.4826H57.5602C58.1691 40.7384 58.6853 41.1741 59.0396 41.7314C59.1915 41.7314 59.4446 42.3276 59.6021 42.2545C59.6685 42.3766 59.7418 42.4949 59.8215 42.6088C59.9398 42.7766 60.0984 42.912 60.2827 43.0026C60.4627 43.087 60.5977 43.0026 60.8452 43.0026V43.087C60.9557 43.0632 61.0632 43.0274 61.1658 42.9801C61.2275 43.0066 61.2915 43.0273 61.3571 43.042C61.4266 43.0167 61.4942 42.9866 61.5596 42.952C61.4752 42.952 61.3683 42.952 61.3739 42.952C61.6889 42.8338 62.0996 42.6145 62.1389 42.637C62.3154 42.4467 62.4615 42.2305 62.5721 41.9957C62.5721 42.0295 62.5383 42.1476 62.4933 42.2432C62.6452 41.8495 62.6227 42.2432 62.7408 41.8551C62.6958 41.8945 62.7071 41.8101 62.6902 41.7932C62.8599 41.5462 62.9626 41.2593 62.9883 40.9607L63.0389 41.0282C63.1329 40.471 63.1687 39.9054 63.1458 39.3408C63.112 39.5433 63.0108 39.4926 63.0052 39.3408L63.0952 39.2789C63.0445 39.172 63.0614 39.4476 62.9939 39.2339C62.9264 39.0201 63.1008 39.0933 63.1289 39.2339V38.9864C63.1289 38.9864 63.1683 39.0314 63.202 39.0426C63.1514 38.9414 63.3033 38.6095 63.202 38.4801C63.202 37.9177 63.202 37.6758 63.202 37.2258C63.1233 37.2258 63.1458 37.0402 63.0839 36.8995C63.1371 36.5267 63.169 36.1511 63.1795 35.7746C63.1345 35.4821 63.112 35.6902 63.0558 35.5608C63.1345 35.5608 63.0558 35.1052 63.157 35.3246C63.1309 35.1125 63.078 34.9046 62.9995 34.7058C62.8987 34.4731 62.7578 34.2599 62.5833 34.0758C62.5833 34.1546 62.6396 34.2277 62.5833 34.2052C62.5271 34.1827 62.4371 33.9746 62.4708 33.9689C61.9083 33.4796 61.1883 32.799 60.5752 32.7596H60.609L60.0465 32.6752C59.7821 32.6077 60.2152 32.6752 60.0465 32.574C59.4052 32.574 59.0621 32.3827 58.5446 32.4221C58.1621 32.1746 57.1496 32.3827 56.6378 32.2365V32.2871C56.5028 32.3321 56.4803 32.259 56.379 32.2421C56.379 32.2815 56.5253 32.2927 56.4409 32.3152C55.3159 32.3546 54.084 32.1915 52.914 32.124C52.4866 32.124 52.6666 32.3771 52.1266 32.2477L52.2841 32.1577C51.4122 32.2533 50.5122 32.1183 49.6628 32.1915C49.7191 32.1915 49.7191 32.1465 49.8035 32.1465C49.5815 32.0913 49.348 32.105 49.1341 32.1858C49.0047 32.1858 49.1341 32.1352 49.0272 32.1071C48.8472 32.0621 48.5716 32.1802 48.4647 32.1071C48.3579 32.034 48.5154 32.1071 48.5491 32.1071C48.431 32.1071 47.9866 32.1071 48.1104 32.1633C47.7954 32.124 47.5029 32.1633 47.2497 32.1352C47.0866 32.2196 46.6873 32.0846 46.6535 32.2027C46.6535 32.079 46.091 32.0902 45.8998 32.1465C45.9673 32.1071 45.7254 32.1015 45.8041 32.0508C45.5735 32.0508 45.3654 32.0508 45.4048 32.1352C44.9829 31.9721 44.5498 32.2365 44.3192 32.0396C43.6329 32.0902 43.0029 32.124 42.3898 32.1408C42.3898 32.0171 43.0704 32.1408 43.0423 32.0115C42.547 32.0843 42.0467 32.1182 41.5461 32.1127C41.3942 32.1127 41.6304 32.0621 41.6811 32.0396C41.1264 32.0406 40.5723 32.0744 40.0217 32.1408C40.0217 32.1408 40.078 32.1127 40.1286 32.1015C40.0273 32.1015 39.8867 32.1015 39.9036 32.1577H40.0048C40.1736 32.2252 39.6111 32.3658 39.5998 32.4165C39.7517 32.2252 39.0767 32.4165 39.3298 32.1971C39.2623 32.1971 39.178 32.259 39.2005 32.2927C39.0992 32.2927 39.0598 32.2927 39.1555 32.2196C38.7899 32.3152 38.9361 32.3546 38.593 32.4221C38.593 32.4221 38.6492 32.3658 38.6774 32.3265C38.5051 32.4399 38.3149 32.5236 38.1149 32.574C38.1149 32.574 38.0867 32.5402 38.1711 32.5177C37.7453 32.7027 37.332 32.915 36.9336 33.1533C37.0067 32.9677 36.748 33.2096 36.6693 33.1533L36.4386 33.3502H36.568C36.3599 33.5021 36.2249 33.7046 36.0505 33.834L36.1574 33.6708C36.0449 33.7833 35.9324 33.9015 35.8255 34.0196L36.0505 33.8565C35.9043 34.0758 36.1574 33.9296 35.9043 34.1489C35.8123 34.2417 35.7125 34.3263 35.6061 34.4021V34.4021C35.56 34.5432 35.4853 34.6734 35.3868 34.7846C35.3361 34.7846 35.3136 34.6889 35.2743 34.7002C35.2743 34.8521 34.9874 35.2289 35.0043 35.4146C35.0043 35.3583 34.9649 35.3302 34.9424 35.3414V35.4652C34.8749 35.5608 34.858 35.5721 34.8299 35.5383C34.6724 35.8589 34.993 35.4877 34.7736 35.8477C34.7736 35.8139 34.7736 35.8477 34.7736 35.7577C34.6251 36.1235 34.5029 36.4994 34.408 36.8827C34.273 36.967 34.4643 36.5508 34.3462 36.652C34.2112 37.2145 34.2112 37.777 34.1212 38.3395V38.2439C34.2562 38.3339 33.9974 38.6264 34.0424 38.902C34.0424 38.8345 33.9693 38.812 33.9805 38.8289C33.9391 39.261 33.9391 39.6961 33.9805 40.1282L33.9468 40.0607C33.9155 40.3258 33.9043 40.5928 33.913 40.8595C33.9524 40.9326 33.9524 41.062 34.003 40.9776C33.8287 41.7257 34.2562 42.3276 34.3462 42.9745C34.3124 42.907 34.2449 42.8113 34.2674 42.8732C34.3458 43.0465 34.4399 43.2122 34.5487 43.3682C34.5768 43.2951 34.5487 43.2838 34.5487 43.1545C34.6649 43.1898 34.7749 43.2429 34.8749 43.312C34.7118 43.132 34.7849 43.3738 34.8299 43.4863C34.8299 43.4863 34.8749 43.4863 34.8861 43.4526C34.9818 43.7507 35.0043 43.4188 35.218 43.7451H35.1786C35.3024 43.8295 35.4318 43.8801 35.5555 43.9701C35.5555 44.0713 35.4093 43.9138 35.3643 43.9701C35.5555 44.1107 35.8086 44.0882 35.9268 44.2401C35.8311 44.2401 35.7074 44.1557 35.6174 44.1276C35.7015 44.2419 35.8167 44.3298 35.9493 44.3807V44.3807L36.2924 44.5551L36.208 44.4988C36.5343 44.4032 36.7705 44.6338 37.1474 44.6001C36.7705 44.6001 37.0742 44.6507 37.0236 44.7294C37.108 44.7744 37.243 44.8307 37.198 44.8476C37.3836 44.8476 37.4736 44.9657 37.7605 44.9207C37.7605 44.9488 37.9405 44.9544 37.8899 45.0163C38.1205 45.0163 37.8449 44.9601 37.8899 44.9319C38.2499 44.9038 38.683 45.1851 39.2061 45.1063C39.6392 45.1063 39.7292 45.0107 40.1286 44.9826C40.258 45.0332 40.0105 45.0782 40.0105 45.0782C40.1963 45.1136 40.3871 45.1136 40.573 45.0782C40.528 45.0782 40.573 45.1232 40.6348 45.1513C40.8036 45.1513 40.7473 45.0557 40.9611 45.0894C40.9161 45.139 40.8603 45.1775 40.7979 45.2019C41.0004 45.2019 41.1804 45.1232 41.3942 45.0894C41.4561 45.1344 41.2592 45.1682 41.1973 45.2019H41.3998L41.6698 45.1626C41.7036 45.1626 41.7598 45.1626 41.7711 45.1288V45.0163C41.7782 44.9678 41.7782 44.9185 41.7711 44.8701L41.6811 45.0051C41.7148 44.9151 41.7542 45.0051 41.7317 45.0951C41.7092 45.1851 41.7317 45.1457 41.6754 45.1457H41.5967H41.4729C41.432 45.1394 41.3944 45.1196 41.3661 45.0894H41.5292C41.3154 44.9432 40.9667 45.1401 40.6348 45.1288L40.7586 45.0107L40.4605 45.1063C40.3986 45.0726 40.3592 45.0107 40.4998 44.9938C40.2973 44.9319 40.3142 45.0332 40.1398 44.9601H39.9373C39.9767 44.9601 39.9373 44.8757 40.0273 44.8982C39.6786 44.8138 39.4648 44.9488 39.3186 44.8532H39.3748C38.8742 44.8532 39.3186 44.9376 38.9305 44.9938L38.7111 44.7519L38.6492 44.8307C38.5986 44.8307 38.4974 44.8026 38.5199 44.7688C38.323 44.7969 38.548 44.8082 38.4299 44.8476C38.1992 44.7351 37.7492 44.7632 37.7211 44.6226C37.6199 44.6676 37.9461 44.7126 37.6761 44.7069C37.6311 44.5494 37.3724 44.6676 37.1642 44.5494C37.2542 44.4932 37.4511 44.5494 37.2486 44.4594C37.0855 44.5551 36.8267 44.3244 36.6411 44.2963C36.6018 44.3919 36.2361 44.2288 35.9436 44.1219C35.7049 43.9584 35.4843 43.7698 35.2855 43.5595V43.5595C35.173 43.5988 34.9818 43.3682 34.858 43.1938C34.9143 43.1938 34.948 43.1938 35.038 43.2613C34.9986 43.2107 34.9649 43.1545 34.9311 43.1038C34.8974 43.0532 34.8299 43.0363 34.7624 42.9238H34.8524C34.6797 42.6831 34.5643 42.406 34.5149 42.1138C34.4418 42.1138 34.3912 42.4457 34.2505 42.0801C34.2843 42.0801 34.3462 42.0295 34.3855 42.1251C34.3568 42.0707 34.3377 42.0117 34.3293 41.9507L34.4249 42.0801C34.4249 41.917 34.3574 42.0126 34.3349 41.8832C34.3912 41.8832 34.3349 41.782 34.4024 41.7932C34.4699 41.8045 34.4024 41.9057 34.4024 41.9507C34.3744 41.8229 34.3744 41.6905 34.4024 41.5626C34.4024 41.5626 34.3293 41.5626 34.3068 41.4726C34.273 41.197 34.363 41.3714 34.3743 41.2082C34.3293 41.1464 34.3743 40.972 34.273 40.972C34.2702 40.9474 34.2739 40.9225 34.2838 40.8997C34.2936 40.877 34.3093 40.8573 34.3293 40.8426C34.2787 40.702 34.3293 40.1732 34.2168 40.3364C34.1989 39.8514 34.2234 39.3658 34.2899 38.8851V38.8851C34.2899 38.6039 34.3293 38.2608 34.2899 38.0583C34.2899 37.9739 34.363 37.8727 34.3912 37.912C34.3826 37.7204 34.4132 37.529 34.4812 37.3495C34.4812 37.5689 34.5374 37.2877 34.4812 37.5745C34.5631 37.3766 34.6052 37.1644 34.6049 36.9502C34.6499 37.0627 34.7455 36.7758 34.7568 36.6408L34.6612 36.8152C34.6852 36.6823 34.7229 36.5522 34.7736 36.427L34.8411 36.5227C35.1055 36.0389 34.9986 35.4989 35.4036 35.2177C35.4036 35.0546 35.2236 35.4596 35.2124 35.3077C35.3357 35.1439 35.4794 34.9965 35.6399 34.8689C35.8761 34.6214 35.7018 34.5146 35.9718 34.2671C35.9155 34.2671 35.8143 34.2671 35.9718 34.0252C36.1293 33.7833 36.2924 33.9015 36.2024 34.0252C36.1574 34.0646 36.1293 34.0814 36.1236 34.0702C36.118 34.0589 36.0168 34.2277 36.1236 34.1771V34.1264C36.2361 34.0646 36.478 33.8227 36.4555 33.924C36.5849 33.7833 36.4555 33.8283 36.3655 33.924C36.609 33.7651 36.8627 33.6223 37.1249 33.4965C37.0686 33.4965 37.0067 33.4965 37.0517 33.4965C37.4961 33.294 37.198 33.3221 37.4961 33.1646C37.693 33.1308 37.4961 33.2996 37.7774 33.1252C37.9799 33.0858 37.8449 33.1927 37.7774 33.249C37.9955 33.1316 38.2385 33.068 38.4861 33.0633C38.4355 33.0633 38.3905 33.1083 38.3399 33.1308C38.4145 33.0937 38.4941 33.0672 38.5761 33.0521L38.4749 33.0071C38.5649 33.0071 38.6436 33.0071 38.6492 33.0071C38.7336 32.9396 38.548 32.9171 38.7223 32.8102C38.8517 32.8102 39.0992 32.6977 39.1555 32.7765C38.7617 32.8215 39.2117 32.8552 38.8911 32.934C38.9652 32.9071 39.043 32.8919 39.1217 32.889C39.1217 32.889 39.1217 32.889 39.088 32.889C39.4705 32.889 39.2398 32.7596 39.6505 32.709C39.6055 32.7652 39.7517 32.7933 39.8136 32.7765C39.6561 32.7765 39.7292 32.6977 39.8755 32.6471C40.1342 32.6471 40.1511 32.5965 40.2861 32.5908H40.1286C40.1792 32.5402 40.3086 32.5346 40.4886 32.5121C40.4886 32.5515 40.3255 32.5458 40.3873 32.5571C40.5842 32.4615 40.8429 32.6302 41.1242 32.5571C41.2536 32.5908 41.1242 32.6471 41.2479 32.6696C41.5629 32.6021 41.5854 32.7371 41.9173 32.6696C41.8217 32.6021 41.8048 32.619 42.0411 32.5571L41.4786 32.6021L41.8273 32.5065C41.6642 32.5065 41.4842 32.5402 41.3829 32.5346C41.5517 32.4783 41.5348 32.4952 41.4561 32.439C41.6811 32.5402 41.9004 32.3827 42.1648 32.439V32.6077C42.5529 32.6865 42.8623 32.5346 43.3685 32.6077H43.2054C43.2785 32.5402 43.5204 32.6077 43.6892 32.5796C43.6892 32.6358 43.7735 32.6583 43.8467 32.6921C43.9198 32.7258 44.2179 32.6921 44.2685 32.5965L44.4935 32.6752C44.9041 32.709 44.966 32.5233 45.3598 32.5515C45.2416 32.6077 45.4216 32.6527 45.1573 32.6921C45.2866 32.6921 45.4048 32.6921 45.4104 32.6921C45.416 32.6921 45.776 32.6246 45.8998 32.6921C46.0235 32.7596 45.9729 32.6077 46.1191 32.619C46.1191 32.619 46.3554 32.5908 46.226 32.5233C46.631 32.709 47.351 32.5233 47.7166 32.6921C48.0035 32.6921 48.3522 32.6921 48.611 32.6921C48.611 32.6921 48.611 32.7202 48.5604 32.6921C48.9204 32.7483 48.791 32.5346 49.196 32.6021C49.4041 32.6977 48.9766 32.6471 49.1116 32.6808C49.1622 32.8665 49.6066 32.6808 49.8822 32.7821H49.8147C50.0228 32.8496 50.3322 32.7258 50.6753 32.7483C50.6753 32.7483 50.6753 32.7483 50.6753 32.7765C50.9998 32.6856 51.3341 32.6346 51.6709 32.6246C51.5641 32.6921 51.5191 32.6583 51.5809 32.7315C51.6428 32.8046 51.5359 32.6133 51.8341 32.6021C51.9297 32.6415 52.1491 32.6808 52.1716 32.7596H51.8903C52.0366 32.8665 52.2559 32.7596 52.4022 32.7596V32.799C52.8297 32.799 52.8409 32.6865 53.3022 32.7033L53.2515 32.6696C53.5103 32.5627 53.4653 32.7371 53.7184 32.6696L53.7915 32.7821C53.9603 32.7821 54.354 32.6865 54.6747 32.6752C54.4341 32.749 54.1875 32.8017 53.9378 32.8327C54.1465 32.8506 54.3566 32.8392 54.5622 32.799C54.4916 32.8126 54.419 32.8126 54.3484 32.799C54.6038 32.7059 54.876 32.6676 55.1471 32.6865C55.0853 32.9002 56.0078 32.7596 56.2384 32.9283C56.8487 32.915 57.4592 32.9394 58.0665 33.0015C57.8359 32.8215 58.2577 33.0015 58.2296 32.8327C58.3059 32.8193 58.3839 32.8193 58.4602 32.8327C58.6121 32.8777 58.764 32.9227 58.9158 32.979C59.0677 33.0352 58.7696 32.979 58.7809 33.0408C59.1127 33.0858 58.9102 33.1252 59.124 33.1983C59.0846 33.1308 59.2477 33.1252 59.4333 33.1983L59.1802 33.0802C59.6583 33.0802 59.5515 33.2827 60.0183 33.2996H59.8665C60.1083 33.2996 60.6877 33.5358 60.9464 33.519C60.9464 33.5527 61.0027 33.6202 60.9071 33.5865C61.1546 33.7158 61.4414 33.834 61.6889 33.9802C61.9113 34.1022 62.0916 34.2884 62.2064 34.5146H62.1502C62.2121 34.5821 62.3077 34.6102 62.3246 34.7339C62.3246 34.7339 62.2683 34.7339 62.2852 34.7621C62.3727 34.853 62.4297 34.969 62.4483 35.0939L62.3752 35.0039C62.4371 35.4821 62.5721 35.7914 62.6002 36.2808C62.4764 36.2808 62.4258 36.7364 62.4033 36.967C62.4092 37.5652 62.4505 38.1625 62.5271 38.7558C62.3752 39.1383 62.4708 40.0832 62.3021 40.6457C62.3358 40.5614 62.3977 40.6457 62.3921 40.7807C62.3864 40.9157 62.3921 41.1689 62.2796 41.1182V41.0732C62.1502 41.1407 62.0939 41.4051 61.9983 41.5739L62.1108 41.6751C61.8858 41.8551 61.6777 42.1251 61.4189 42.2938C61.1602 42.4626 60.8565 42.502 60.789 42.3838C60.6664 42.3892 60.544 42.3701 60.429 42.3276L60.474 42.2601C60.2159 42.0522 59.9837 41.8143 59.7821 41.5514L59.889 41.5964C59.7146 41.3714 59.484 41.4501 59.3265 41.2476L59.3602 41.107C59.0355 40.6701 58.598 40.3298 58.0946 40.1226C58.0946 40.1226 58.1396 40.0889 58.2184 40.1226C58.0102 39.9708 57.3577 39.6333 57.3859 39.8245C57.4196 39.7176 56.8684 39.6333 56.5871 39.622L56.649 39.5545C56.4551 39.6084 56.2525 39.6237 56.0528 39.5995C55.9796 39.5995 55.9965 39.5264 56.0978 39.5601C55.8446 39.4814 55.884 39.5939 55.5803 39.5208L55.704 39.487C55.573 39.4503 55.4331 39.4623 55.3103 39.5208C55.1148 39.5465 54.9164 39.5049 54.7478 39.4026C54.6478 39.4668 54.5273 39.4909 54.4103 39.4701C54.4103 39.4701 54.444 39.4251 54.4778 39.4195C54.0334 39.3576 53.8253 39.5095 53.5215 39.4195C53.5215 39.4195 53.5215 39.3858 53.4653 39.3801C53.6676 39.3694 53.8704 39.3694 54.0728 39.3801C54.0728 39.307 53.7859 39.2958 54.0109 39.1945C53.7258 39.2907 53.4284 39.3456 53.1278 39.3576H53.0884C53.0306 39.349 52.9719 39.349 52.914 39.3576C52.8392 39.352 52.7639 39.352 52.6891 39.3576C52.6497 39.2958 52.3684 39.3576 52.2278 39.3576C52.2278 39.4364 52.0591 39.4308 52.2278 39.487C52.2278 39.487 52.2278 39.487 52.3459 39.487H52.4078H52.7509C52.635 39.5471 52.5017 39.565 52.3741 39.5376L52.1884 39.6726C51.9916 39.577 51.6259 39.5376 51.5697 39.4701C51.1416 39.4902 50.7189 39.5736 50.3153 39.7176C50.1916 39.7176 50.1747 39.6839 50.1241 39.6614C50.1892 39.6529 50.2533 39.6379 50.3153 39.6164C50.0735 39.667 49.601 39.6726 49.5503 39.7795C49.241 39.7458 49.7135 39.6726 49.2972 39.712L49.3535 39.6783C48.521 39.5601 48.0372 40.0101 47.1035 39.8583C47.1654 39.8583 47.1991 39.8583 47.216 39.8583C46.1356 39.8909 45.0678 40.0999 44.0548 40.477C43.7679 40.5839 43.7735 40.6682 43.6442 40.8032L43.5429 40.7695C43.4706 40.8538 43.403 40.942 43.3404 41.0339C43.0479 41.3545 42.6036 41.3939 42.3729 41.9563H42.4629C42.3279 42.1082 42.1648 42.5188 42.1254 42.4626C42.1319 42.4879 42.1323 42.5144 42.1264 42.5398C42.1205 42.5653 42.1086 42.5889 42.0917 42.6088H42.0467C42.0053 42.7735 41.9753 42.9407 41.9567 43.1095C41.8498 43.4807 41.7767 42.997 41.6867 43.5876C41.6867 43.8126 41.8217 44.2063 41.8442 44.1501C41.8667 44.0938 41.8442 43.9307 41.9061 43.9251L41.9342 44.1107C42.0692 44.1107 42.2042 44.2401 42.2829 43.8351C42.2829 43.7451 42.2379 43.6495 42.2267 43.5482L42.3054 43.4638C42.2999 43.5425 42.2999 43.6214 42.3054 43.7001C42.3274 43.6505 42.3388 43.5968 42.3388 43.5426C42.3388 43.4883 42.3274 43.4347 42.3054 43.3851C42.348 43.3633 42.3818 43.3276 42.4011 43.2838C42.3793 43.1839 42.3661 43.0823 42.3617 42.9801C42.4179 42.9801 42.4123 43.132 42.5023 42.9801C42.5023 42.8395 42.3448 43.0588 42.3954 42.8395C42.5023 42.7326 42.5361 42.7945 42.5586 42.6257C42.6036 42.6257 42.6036 42.6595 42.5867 42.7213C42.5867 42.5751 42.7554 42.3782 42.7442 42.2826C42.8792 42.1982 43.031 41.872 43.121 41.9676C43.1607 41.8356 43.23 41.7144 43.3235 41.6132C43.2335 41.8832 43.7117 41.2926 43.7679 41.4726C43.8298 41.2532 44.2742 41.0732 44.5554 40.9101C44.5554 40.9101 44.516 40.9607 44.4879 40.9664C44.6025 40.9298 44.722 40.9109 44.8423 40.9101C44.8423 40.7976 45.101 40.6851 45.236 40.5839C45.4891 40.6289 45.1348 40.7414 45.236 40.8201C45.2023 40.7357 45.6016 40.6401 45.5116 40.5895C45.6973 40.5895 45.6635 40.5895 45.7704 40.6626C45.7704 40.522 45.9279 40.6064 46.0629 40.5051C46.3273 40.5051 46.1473 40.6232 46.4229 40.5445C46.5804 40.4489 46.3385 40.4995 46.3385 40.4995ZM53.229 39.8526H53.0884H53.229ZM53.7915 39.8526H53.5384C53.5384 39.8526 53.5384 39.7964 53.6003 39.7964C53.5834 39.8189 53.724 39.8358 53.8084 39.8526H53.7915ZM52.5541 39.3745C52.6441 39.3745 52.6778 39.3745 52.6891 39.3745H52.5259C52.5352 39.3727 52.5448 39.3727 52.5541 39.3745V39.3745Z" fill="#202020"/>
<path d="M60.8273 43.115V43.0925L60.7598 43.1038L60.8273 43.115Z" fill="#202020"/>
<path d="M34.8008 43.5088C34.8008 43.5088 34.8008 43.5088 34.8008 43.5538C34.8008 43.5988 34.8064 43.5313 34.8008 43.5088Z" fill="#202020"/>
<path d="M35.9492 44.3975L36.1348 44.4987L35.9492 44.3975Z" fill="#202020"/>
<path d="M35.6065 34.312C35.6294 34.2597 35.6557 34.209 35.6853 34.1602C35.6234 34.2277 35.5728 34.2783 35.6065 34.312Z" fill="#202020"/>
<path d="M35.8467 33.9746C35.7831 34.0277 35.7281 34.0903 35.6836 34.1602C35.7438 34.1038 35.7984 34.0416 35.8467 33.9746V33.9746Z" fill="#202020"/>
<path d="M41.7988 45.2301L41.8326 45.1626L41.7988 45.2301Z" fill="#202020"/>
<path d="M41.8274 45.1457V45.0557C41.8386 45.095 41.8217 45.1232 41.8274 45.1457Z" fill="#202020"/>
<path d="M41.9002 44.8813L41.8496 45.0557C41.8811 45.0029 41.8985 44.9428 41.9002 44.8813V44.8813Z" fill="#202020"/>
<path d="M39.7734 45.2075C39.905 45.2473 40.0411 45.27 40.1784 45.275V45.275C40.1222 45.2919 39.8747 45.1681 39.7734 45.2075Z" fill="#202020"/>
<path d="M38.0293 44.6395L38.378 44.7238C38.3218 44.6845 38.2487 44.6282 38.378 44.6507C37.9787 44.4876 38.4905 44.7351 38.0293 44.6395Z" fill="#202020"/>
<path d="M36.9618 44.3583C37.1531 44.392 36.9618 44.3133 36.9618 44.2964C36.8606 44.2964 36.8324 44.2964 36.9618 44.3583Z" fill="#202020"/>
<path d="M34.5371 37.8557L34.6046 37.8895C34.6159 37.7432 34.5765 37.8838 34.5371 37.8557Z" fill="#202020"/>
<path d="M34.5258 36.2695L34.4414 36.3989L34.4808 36.4833L34.5258 36.2695Z" fill="#202020"/>
<path d="M35.3301 35.617V35.6789C35.3301 35.6001 35.3807 35.527 35.4088 35.4539C35.3791 35.5065 35.3528 35.561 35.3301 35.617V35.617Z" fill="#202020"/>
<path d="M47.3792 32.7484L47.3342 32.6584C47.2498 32.6753 47.2104 32.7709 47.3792 32.7484Z" fill="#202020"/>
<path d="M53.2285 32.782C53.2784 32.8106 53.3337 32.8283 53.3909 32.8341C53.448 32.8399 53.5058 32.8337 53.5604 32.8158C53.4366 32.8102 53.296 32.7708 53.2285 32.782Z" fill="#202020"/>
<path d="M61.8744 41.8383L61.9081 41.7371C61.8796 41.7933 61.8477 41.8478 61.8125 41.9002L61.8744 41.8383Z" fill="#202020"/>
<path d="M43.8133 42.7944C43.8133 42.7944 43.8752 42.8056 43.8752 42.7494L43.7852 42.6763L43.8133 42.7944Z" fill="#202020"/>
<path d="M44.1497 42.3669C44.1497 42.2769 44.2116 42.1475 44.1103 42.1194C44.1103 42.2488 44.0484 42.2375 44.0653 42.3838C44.0822 42.53 43.9697 42.4794 43.9416 42.4569C43.9134 42.4344 43.8741 42.5694 43.9416 42.6256C44.027 42.5418 44.0891 42.4371 44.1216 42.3219C44.1384 42.3106 44.1384 42.35 44.1497 42.3669Z" fill="#202020"/>
<path d="M54.7423 42.2151C54.7085 42.2151 54.6973 42.2151 54.6973 42.2151C54.6973 42.2151 54.7479 42.2207 54.7423 42.2151Z" fill="#202020"/>
<path d="M55.4105 42.3669H55.3711C55.3771 42.3704 55.3839 42.3722 55.3908 42.3722C55.3977 42.3722 55.4045 42.3704 55.4105 42.3669Z" fill="#202020"/>
<path d="M50.6641 42.1533H50.7766C50.7766 42.1533 50.7203 42.1871 50.6641 42.1533Z" fill="#202020"/>
<path d="M44.9603 41.8044L44.8984 41.8382H44.9547L44.9603 41.8044Z" fill="#202020"/>
<path d="M48.8646 42.2319H48.8309C48.8298 42.245 48.8298 42.2582 48.8309 42.2713L48.8646 42.2319Z" fill="#202020"/>
<path d="M47.4856 42.2487C47.4856 42.2487 47.525 42.17 47.5363 42.1362C47.5303 42.1503 47.5211 42.1628 47.5093 42.1726C47.4976 42.1824 47.4837 42.1892 47.4688 42.1925C47.4705 42.2122 47.4763 42.2313 47.4856 42.2487V42.2487Z" fill="#202020"/>
<path d="M57.7617 51.6705C57.9023 51.6705 57.6492 51.8674 57.8517 51.8167C57.818 51.7999 57.9361 51.6142 57.7617 51.6705Z" fill="#202020"/>
<path d="M58.707 44.3301C58.7118 44.3174 58.7118 44.3035 58.707 44.2908C58.707 44.2908 58.7127 44.302 58.707 44.3301Z" fill="#202020"/>
<path d="M57.2559 42.8733L57.2952 42.907L57.2559 42.8733Z" fill="#202020"/>
<path d="M59.3661 45.1963C59.3624 45.2205 59.3624 45.2452 59.3661 45.2694V45.2694C59.3661 45.2694 59.3717 45.23 59.3661 45.1963Z" fill="#202020"/>
<path d="M59.7595 46.265L59.7652 46.2425L59.7539 46.2087L59.7595 46.265Z" fill="#202020"/>
<path d="M43.7235 48.6612C43.7415 48.6376 43.7646 48.6184 43.791 48.605C43.7348 48.6275 43.7123 48.4531 43.7235 48.6612Z" fill="#202020"/>
<path d="M44.9663 41.8494C44.9679 41.8404 44.9718 41.832 44.9778 41.8251C44.9837 41.8182 44.9914 41.813 45.0001 41.8101H44.9551C44.9551 41.8101 44.9551 41.8438 44.9663 41.8494Z" fill="#202020"/>
<path d="M59.9512 44.9995L60.0187 45.1908C60.002 45.1251 59.9794 45.0611 59.9512 44.9995Z" fill="#202020"/>
<path d="M51.8948 49.9211H51.8555C51.8617 49.9238 51.8684 49.9251 51.8752 49.9251C51.8819 49.9251 51.8886 49.9238 51.8948 49.9211V49.9211Z" fill="#202020"/>
<path d="M60.2422 45.7083C60.2344 45.7491 60.2344 45.7911 60.2422 45.832C60.2422 45.832 60.2423 45.832 60.2704 45.832L60.2422 45.7083Z" fill="#202020"/>
<path d="M43.5821 47.3676C43.5821 47.5476 43.6834 47.4519 43.7452 47.4913C43.779 47.7051 43.6721 47.5926 43.6215 47.6657C43.5709 47.7388 43.7452 47.8963 43.7452 47.9975C43.7452 47.9975 43.7452 47.9975 43.7002 47.9975C43.7846 48.1382 43.7002 48.4138 43.8184 48.56H43.7902C43.8378 48.5449 43.8889 48.5449 43.9365 48.56C43.9365 48.6388 44.004 48.7119 43.9365 48.7457C43.9365 48.6894 43.9365 48.6894 43.8859 48.6669L43.9196 48.7513C43.824 48.8413 43.8802 48.6332 43.8071 48.6332C43.8535 48.8276 43.9214 49.0163 44.0096 49.1957C44.0096 49.235 43.9196 49.1507 43.8859 49.0719C43.8521 48.9932 43.8409 48.9482 43.8296 49.0719C43.8186 48.9879 43.8186 48.9028 43.8296 48.8188C43.6946 49.01 43.8296 48.6725 43.6777 48.8525C43.68 48.9965 43.7229 49.1369 43.8015 49.2575C43.894 49.3926 44.015 49.5059 44.1559 49.5894C44.2683 49.5894 44.1558 49.505 44.2683 49.4938C44.5158 49.5332 44.5721 49.5782 44.6396 49.6457C44.6517 49.666 44.6678 49.6838 44.6868 49.6979C44.7059 49.712 44.7275 49.7223 44.7505 49.728C44.7735 49.7338 44.7974 49.7349 44.8208 49.7314C44.8443 49.7279 44.8668 49.7198 44.8871 49.7075C44.9602 49.6457 44.994 49.5332 45.1852 49.6007L45.1121 49.7075C45.3708 49.7075 45.264 49.5557 45.5283 49.6288C45.4833 49.6738 45.3258 49.6625 45.3652 49.6794C45.5396 49.7638 45.489 49.6175 45.6183 49.6175V49.7131C45.894 49.7131 46.1808 49.6119 46.4789 49.5782C46.4789 49.5782 46.4171 49.64 46.4789 49.6682C46.8524 49.6201 47.2305 49.6201 47.6039 49.6682L47.7333 49.5782C47.7614 49.5782 47.7896 49.5782 47.7614 49.6288C47.9021 49.6288 47.7614 49.5725 47.8289 49.5388C47.8964 49.505 47.9358 49.5782 47.8852 49.6063C48.2001 49.4766 48.5455 49.4395 48.8808 49.4994H48.8302C49.027 49.4994 49.0495 49.3194 49.2352 49.3982H49.1958C49.6038 49.3661 50.0142 49.4119 50.4051 49.5332C50.4839 49.4094 50.7989 49.64 50.8551 49.4825C50.9943 49.591 51.1452 49.6835 51.3051 49.7581C51.3839 49.7919 51.457 49.6963 51.5695 49.7131V49.7975L51.7383 49.7638L51.772 49.8875H51.8789C51.8395 49.8875 51.8114 49.82 51.8283 49.7975C51.997 49.7975 52.1601 50.0113 52.1432 50.0506C52.2726 50.0506 52.3907 50.1238 52.5145 50.1631C52.5145 50.1631 52.4245 50.1631 52.3739 50.1631C52.5932 50.1631 52.3739 50.2588 52.5595 50.2813C52.5595 50.2475 52.5932 50.2419 52.6101 50.2306C52.709 50.3464 52.8294 50.4419 52.9645 50.5119L52.9082 50.54C53.1459 50.7095 53.3697 50.8976 53.5776 51.1025C53.5214 51.0013 53.6114 50.9506 53.6845 51.0125L53.6395 51.0969C53.7182 51.0969 53.6057 51.0013 53.7351 51.0519C53.8645 51.1025 53.7014 51.1756 53.6395 51.1475L53.752 51.2375C53.752 51.2375 53.7014 51.2375 53.6676 51.2375C53.752 51.2375 53.7407 51.4794 53.8589 51.4906L54.0445 51.7887C54.1036 51.8759 54.1508 51.9705 54.1851 52.07C54.2582 52.07 54.2807 52.1431 54.3651 52.1937V52.4862C54.3651 52.5931 54.3651 52.8519 54.4045 53.0487C54.415 53.0853 54.4282 53.121 54.4438 53.1556C54.4438 53.1556 54.4832 53.1556 54.4888 53.1556C54.4993 53.1406 54.5126 53.1279 54.5281 53.1183C54.5436 53.1086 54.5608 53.1022 54.5788 53.0994C54.5338 53.1725 54.9276 53.1781 54.697 53.2231C54.9332 53.2231 55.1188 53.2231 55.2595 53.2231L55.6757 53.1387C55.6307 53.1106 55.5857 53.0994 55.6082 53.0769C55.6307 53.0544 55.7657 53.0769 55.7601 53.1219C56.1594 52.9587 56.8007 53.1219 57.0763 52.8125C57.1785 52.7458 57.2762 52.6725 57.3688 52.5931C57.5207 52.5312 57.3069 52.6831 57.4363 52.6719C57.5575 52.5581 57.6938 52.4616 57.8413 52.385C57.975 52.3251 58.094 52.2368 58.19 52.1262C58.5332 52.1262 58.8538 51.5638 59.1688 51.4006H59.1182C59.1182 51.2994 59.2138 51.3444 59.2588 51.2994C59.3038 51.2544 59.1688 51.3388 59.18 51.2994C59.6656 50.7177 60.0757 50.077 60.4006 49.3925C60.4963 49.1225 60.2206 49.1732 60.4006 48.8638L60.4738 48.9875C60.5722 48.4306 60.5949 47.863 60.5413 47.3001C60.5413 47.3338 60.5975 47.3338 60.5975 47.3844C60.6594 47.2663 60.5975 46.9626 60.5188 46.9682C60.5188 46.8838 60.5638 46.9682 60.5863 46.8838C60.6088 46.7994 60.4569 46.6138 60.5131 46.5407C60.5694 46.4676 60.5131 46.5407 60.5469 46.5913C60.5131 46.5238 60.4906 46.2482 60.4288 46.3326C60.4288 46.1301 60.3106 45.9613 60.2994 45.7701C60.1869 45.7026 60.2319 45.4326 60.1025 45.4438C60.2319 45.4101 60.0575 45.0782 59.9563 44.9826C60.0069 44.9826 59.9563 44.8645 60.0181 44.887C59.945 44.7576 59.8607 44.6507 59.8157 44.707C59.8157 44.3863 59.4388 44.3076 59.5288 44.0713C59.2233 43.7972 58.9001 43.5436 58.5613 43.312C58.6682 43.222 58.865 43.6101 58.955 43.5089C58.6682 43.2614 58.4319 43.1995 58.1788 42.9464C58.1113 42.8732 58.2519 42.9464 58.2913 42.9464C58.0165 42.7212 57.7141 42.5322 57.3913 42.3839C57.3913 42.3839 57.4363 42.3839 57.4701 42.3839C57.4138 42.3839 57.3463 42.2995 57.3238 42.3839H57.3913C57.4419 42.502 57.0819 42.4289 57.0538 42.4626C57.2226 42.3557 56.7838 42.2995 57.0201 42.1757C56.9751 42.1757 56.9188 42.1757 56.9132 42.2151C56.9076 42.2545 56.8457 42.1532 56.9132 42.1364C56.6769 42.0857 56.7388 42.1701 56.5419 42.097C56.5419 42.097 56.5926 42.097 56.6263 42.052C56.4959 42.09 56.3574 42.09 56.2269 42.052C56.2269 42.052 56.227 42.0126 56.2776 42.052C55.9795 41.9845 55.7545 42.0857 55.4395 41.9957C55.552 41.8833 55.3382 41.9451 55.327 41.8382H55.1526L55.2145 41.9001C55.0626 41.9001 54.9276 41.9507 54.7982 41.9001L54.9107 41.8607H54.6295L54.787 41.9114C54.6351 41.9564 54.787 42.0407 54.6013 42.007C54.6407 42.007 54.4495 42.007 54.3707 41.9339C54.2929 41.9801 54.2001 41.9942 54.112 41.9732C54.112 41.9395 54.112 41.8607 54.112 41.8382C54.0388 41.9226 53.7632 41.8382 53.6676 41.9564C53.6768 41.9432 53.6817 41.9275 53.6817 41.9114C53.6817 41.8953 53.6768 41.8796 53.6676 41.8664L53.6057 41.9395C53.5382 41.9395 53.527 41.9057 53.5382 41.8607C53.3301 41.8607 53.6057 41.9901 53.3582 41.9339C53.3582 41.9339 53.3582 41.9339 53.4089 41.9339C53.1614 41.9339 52.9307 41.9845 52.7001 41.9339C52.6326 41.8326 52.9026 41.9339 52.8239 41.8214C52.4946 41.8768 52.162 41.9106 51.8283 41.9226H51.8845C51.8451 42.0745 51.6483 41.8495 51.4908 41.9226C51.5301 41.9226 51.5414 41.8383 51.5301 41.8551C51.2691 41.8555 51.0089 41.8838 50.7539 41.9395L50.7989 41.9001C50.6403 41.8801 50.4806 41.8688 50.3208 41.8664C50.2814 41.9057 50.2027 41.9001 50.2476 41.9564C49.8202 41.737 49.432 42.0745 49.0552 41.8889C49.1002 41.8889 49.162 41.8551 49.1283 41.8551L48.8077 41.8945C48.8077 41.9564 48.847 41.9339 48.9145 41.9845C48.8519 42.0285 48.7773 42.0521 48.7008 42.052C48.847 42.007 48.7008 41.9451 48.6389 41.9114C48.577 41.8776 48.6389 41.9508 48.6389 41.9732C48.4702 41.8551 48.6389 42.1026 48.3802 42.0239V41.9901C48.2969 42.0207 48.2099 42.0396 48.1214 42.0464C48.0877 41.9676 48.2171 42.007 48.2227 41.9451C48.0933 41.9451 47.9639 42.0914 47.8458 42.0182C47.9021 42.0182 47.9808 42.0182 48.0371 41.9732C47.9698 41.9165 47.883 41.8882 47.7952 41.8945V41.8945L47.5758 41.8551H47.6321C47.4689 42.052 47.3002 41.8945 47.0696 42.0239C47.2833 41.9001 47.1033 41.9507 47.1202 41.8664C47.1371 41.782 46.9796 41.8158 47.0021 41.7933C46.8952 41.8608 46.8277 41.737 46.6814 41.8382C46.6814 41.8382 46.5689 41.8383 46.5914 41.7708C46.4564 41.7708 46.6252 41.8158 46.5914 41.8495C46.3833 41.9451 46.1021 41.737 45.804 41.8495C45.5058 41.962 45.4946 41.9957 45.2415 42.0407C45.1571 41.9957 45.309 41.9395 45.309 41.9395C45.1927 41.8974 45.0653 41.8974 44.949 41.9395C44.949 41.9395 44.949 41.8945 44.904 41.8664C44.859 41.8383 44.8421 41.9676 44.7015 41.9507C44.7232 41.9041 44.7538 41.8621 44.7915 41.827C44.6708 41.878 44.5542 41.9381 44.4427 42.007C44.3921 41.9732 44.4933 41.917 44.5327 41.872C44.3921 41.9226 44.1727 42.052 44.1727 42.142H44.2683C44.2233 42.142 44.2121 42.097 44.2683 42.0632C44.3246 42.0295 44.4483 42.0182 44.4652 42.0632L44.3865 42.1139C44.5215 42.2264 44.7127 41.9845 44.904 41.9732L44.8477 42.1026L45.0165 41.9845C45.0558 41.9845 45.084 42.0801 45.0165 42.1026C45.1402 42.1532 45.1233 42.0576 45.2302 42.1026L45.354 42.0689C45.354 42.0689 45.354 42.1532 45.2977 42.1364C45.5171 42.2039 45.6521 42.0464 45.7308 42.1364C46.029 42.097 45.759 42.052 45.984 41.9507L46.1358 42.1645L46.164 42.0745C46.1977 42.0745 46.2596 42.0745 46.2483 42.1195C46.3608 42.0632 46.2483 42.0857 46.2933 42.0295C46.4452 42.1082 46.7096 41.9901 46.7433 42.1251C46.7939 42.0632 46.5971 42.0745 46.7433 42.0295C46.7883 42.1757 46.9233 42.0295 47.0639 42.0745C47.0189 42.1476 46.8896 42.1082 47.0302 42.1757C47.1089 42.0464 47.2946 42.1757 47.4071 42.1757C47.4071 42.0745 47.6602 42.1307 47.8514 42.097C48.0357 42.1444 48.224 42.1745 48.4139 42.187V42.187C48.4477 42.0857 48.6333 42.1026 48.7683 42.0857C48.7683 42.1476 48.7683 42.1701 48.667 42.1982H48.7908C48.8324 42.1601 48.8863 42.1382 48.9427 42.1364V42.2095C49.1262 42.175 49.3138 42.1674 49.4995 42.187C49.4995 42.1139 49.3252 41.9901 49.5558 41.9395C49.5558 41.9789 49.5558 42.0464 49.5108 42.0632C49.4658 42.0801 49.5839 42.0295 49.6233 42.0632L49.5333 42.1251C49.6289 42.1589 49.5839 42.0745 49.6627 42.0801C49.7414 42.0857 49.7189 42.1195 49.7077 42.1645C49.6964 42.2095 49.6402 42.1645 49.612 42.1645C49.6965 42.1693 49.7773 42.2008 49.8427 42.2545C49.84 42.2443 49.8398 42.2337 49.842 42.2235C49.8442 42.2132 49.8487 42.2036 49.8553 42.1954C49.8618 42.1872 49.8702 42.1807 49.8797 42.1763C49.8893 42.1719 49.8997 42.1698 49.9102 42.1701C50.0789 42.1701 49.9664 42.2376 50.0677 42.2657C50.1689 42.2939 50.2139 42.2657 50.2139 42.1814C50.2139 42.097 50.2758 42.2207 50.2927 42.2432C50.3095 42.2657 50.7033 42.2432 50.602 42.1476C50.8889 42.0632 51.1983 42.1926 51.4795 42.1476C51.6484 42.1368 51.816 42.1104 51.9801 42.0689C52.0308 42.0689 52.0983 42.1195 52.0758 42.1476C52.1839 42.1142 52.2995 42.1142 52.4076 42.1476C52.2782 42.1982 52.4526 42.1926 52.2782 42.187C52.447 42.187 52.4807 42.2545 52.6664 42.187C52.6045 42.2601 52.7901 42.277 52.8689 42.2545L52.7564 42.187C52.8404 42.1756 52.9255 42.1756 53.0095 42.187L52.9645 42.277C53.3076 42.3895 53.5889 42.0857 53.8476 42.277C53.9432 42.2151 53.662 42.232 53.7464 42.1589C53.9039 42.1589 54.067 42.3051 54.1176 42.3051C54.3313 42.3614 54.3201 42.1701 54.5451 42.2095C54.5451 42.1757 54.4888 42.0857 54.6576 42.0576C54.8263 42.0295 54.8488 42.2095 54.7476 42.232C54.6463 42.2545 54.6913 42.232 54.697 42.232C54.7026 42.232 54.5788 42.232 54.6351 42.2939V42.2601C54.7138 42.2939 54.9276 42.3051 54.8713 42.3557C54.9895 42.3557 54.9276 42.3051 54.8376 42.2826C55.0345 42.3445 55.1526 42.2826 55.3495 42.3557C55.3495 42.3557 55.2932 42.2939 55.3495 42.2995C55.6363 42.3726 55.4845 42.2489 55.6926 42.2657C55.7938 42.3332 55.6307 42.3726 55.8388 42.367C55.9513 42.4232 55.8388 42.457 55.7938 42.4795C55.9851 42.4457 56.1145 42.5864 56.2101 42.6257H56.1145C56.163 42.6194 56.2122 42.6194 56.2607 42.6257L56.2269 42.547C56.2719 42.547 56.3169 42.5864 56.3113 42.6145C56.3057 42.6426 56.3113 42.4964 56.4238 42.4682C56.5363 42.4401 56.6544 42.5132 56.6488 42.6089C56.4407 42.4964 56.6488 42.6989 56.4519 42.6426C56.4981 42.6505 56.5421 42.6677 56.5813 42.6932C56.5813 42.6932 56.5813 42.6932 56.5813 42.6932C56.7557 42.8451 56.7107 42.6257 56.9188 42.6932C56.8738 42.727 56.9188 42.8057 56.9638 42.8114C56.8851 42.7664 56.9638 42.7157 57.0538 42.7157C57.1719 42.817 57.2169 42.7664 57.2844 42.8057L57.2113 42.7495C57.2619 42.7157 57.3294 42.7495 57.4251 42.8001C57.4251 42.8395 57.3294 42.8001 57.3519 42.8001C57.4982 42.8001 57.5319 43.0139 57.6951 43.0532C57.7344 43.1264 57.6444 43.1376 57.6951 43.1939C57.8751 43.2557 57.8076 43.3626 57.9819 43.4414C57.9819 43.3514 57.9819 43.357 58.1113 43.402C58.0227 43.3423 57.9307 43.2878 57.8357 43.2389L58.0607 43.2839C57.9876 43.2276 57.8751 43.1939 57.8357 43.1489C57.9482 43.1489 57.9257 43.177 57.9257 43.1039C57.9707 43.2614 58.1732 43.2164 58.235 43.3795L58.1226 43.4976C58.235 43.6945 58.4657 43.717 58.6288 43.9645L58.5894 43.8745C58.6682 43.8745 58.7188 44.0095 58.7919 44.0713C58.7413 44.0713 58.7919 44.1557 58.7582 44.212C58.7244 44.2682 58.8875 44.3807 58.9888 44.3413V44.4932C59.09 44.707 59.2757 44.6338 59.3657 44.8532C59.2813 44.8195 59.2925 44.932 59.1857 44.8195C59.2194 44.887 59.2419 44.9488 59.2757 44.932C59.3094 44.9151 59.4444 45.0895 59.4275 45.1738C59.4107 45.2582 59.5175 45.1738 59.5513 45.2638C59.5513 45.2638 59.6413 45.3707 59.6638 45.2638C59.6075 45.5451 59.9169 45.8882 59.8269 46.1357C59.8903 46.2979 59.9393 46.4654 59.9732 46.6363C59.9732 46.6363 59.9732 46.6363 59.9732 46.6363C59.9732 46.8501 60.1588 46.7376 60.1307 46.9851C60.0519 47.1201 60.0688 46.8669 60.0406 46.9457C59.8663 46.9963 60.0857 47.2326 59.99 47.3957V47.3619C59.9394 47.4801 60.0575 47.6544 60.0406 47.8569C60.1145 48.0504 60.1415 48.2585 60.1194 48.4644C60.0631 48.3913 60.1194 48.3688 60.0238 48.3969C59.9282 48.425 60.1419 48.3969 60.125 48.5657C60.0744 48.6163 60.0125 48.7288 59.9338 48.7288V48.5657C59.8213 48.6275 59.8944 48.7738 59.8607 48.8525H59.8213C59.7594 49.0888 59.8663 49.1282 59.7707 49.3813H59.81C59.855 49.5613 59.7032 49.4769 59.72 49.64H59.6019C59.5823 49.8164 59.5427 49.9901 59.4838 50.1575C59.4823 50.0026 59.4974 49.848 59.5288 49.6963C59.4894 49.7863 59.3825 49.9831 59.4107 50.0563C59.4107 50.0169 59.4107 49.9606 59.45 49.9381C59.4718 50.104 59.4274 50.2717 59.3263 50.405C59.2419 50.3319 59.1632 50.405 59.0788 50.5456C58.9944 50.6863 58.8763 50.7875 58.7694 50.7875C58.6175 51.0969 58.3025 51.2488 58.0213 51.5019C58.235 51.5525 57.9313 51.575 58.055 51.6931C57.9932 51.7606 57.9594 51.7775 57.9482 51.7775C57.9369 51.7775 57.7626 51.8337 57.6613 51.8506C57.5601 51.8675 57.7119 51.7775 57.6613 51.7494C57.4926 51.8394 57.5544 51.7494 57.4194 51.7494C57.4757 51.7831 57.4194 51.8562 57.3069 51.8956H57.4757C57.2901 52.1262 57.2057 51.8956 57.0088 52.0981L57.0594 52.0081C56.9526 52.115 56.5982 52.2162 56.4969 52.3962C56.4632 52.3962 56.4182 52.3512 56.4969 52.3175C56.182 52.3962 55.8051 52.655 55.5295 52.5875V52.5425C55.4676 52.5425 55.4282 52.6325 55.3495 52.5931C55.2707 52.5537 55.3495 52.5481 55.3495 52.5481C55.319 52.5709 55.2847 52.588 55.2482 52.5987C55.2032 52.5987 55.1976 52.5987 55.1751 52.5987L55.1245 52.5931C55.0795 52.5931 55.0288 52.5931 54.9557 52.5931C54.8826 52.5931 54.8657 52.5594 54.832 52.4412C54.9501 52.4412 54.9276 52.115 54.8938 51.9631C54.7556 51.5879 54.5255 51.2533 54.2245 50.99C54.1907 50.6975 53.7182 50.2981 53.437 50C53.4764 50.0563 53.3695 50.0675 53.3076 50.0394C53.2457 50.0113 53.0545 49.9494 53.1276 49.8707C53.1276 49.7413 52.9476 49.6625 52.8182 49.5782L52.7226 49.6906C52.4864 49.2969 51.772 49.3307 51.637 49.0888C51.5358 49.0888 51.4233 49.0888 51.322 49.0888L51.3501 49.01C51.1227 48.9246 50.8839 48.8734 50.6414 48.8582L50.7145 48.8075C50.5289 48.7738 50.4558 49.0044 50.2927 48.9932L50.2533 48.8694C49.9481 48.79 49.6289 48.7804 49.3195 48.8413C49.3221 48.8248 49.3301 48.8097 49.3424 48.7985C49.3547 48.7872 49.3704 48.7805 49.387 48.7794C49.2408 48.7794 48.8245 48.7119 48.8752 48.875C48.8752 48.7682 48.5602 48.875 48.397 48.9313V48.8525C48.3119 48.9479 48.1968 49.0113 48.0708 49.0325C48.0202 49.0325 48.0258 48.9707 48.0708 48.9875C47.9133 48.9875 47.9583 49.0663 47.7671 49.0438L47.8346 48.9875C47.6771 48.9875 47.6883 49.0213 47.6096 49.0832C47.5308 49.145 47.3114 49.0832 47.2833 49.0213C47.2646 49.0545 47.2364 49.0813 47.2023 49.0983C47.1682 49.1154 47.1298 49.1218 47.0921 49.1169C47.0921 49.0888 47.0921 49.0719 47.1258 49.0607C46.8614 49.0269 46.7433 49.1844 46.5633 49.1169C46.5621 49.1071 46.5584 49.0978 46.5525 49.0899C46.5466 49.082 46.5387 49.0758 46.5296 49.0719H46.8839C46.8839 48.9988 46.7152 48.9988 46.8389 48.8919C46.6856 48.9921 46.5096 49.052 46.3271 49.0663V49.0382C46.2962 49.027 46.2623 49.027 46.2315 49.0382C46.1866 49.0333 46.1413 49.0333 46.0964 49.0382C46.0964 48.9819 45.9052 49.0382 45.8208 49.0382C45.8208 49.1169 45.7252 49.1057 45.8208 49.1675C45.8208 49.1675 45.8208 49.1675 45.8883 49.1675H45.9221H46.1246C46.094 49.1936 46.057 49.211 46.0174 49.2179C45.9779 49.2248 45.9372 49.221 45.8996 49.2069L45.7927 49.3363C45.6746 49.2294 45.4552 49.1675 45.4271 49.1057C45.174 49.1507 44.8646 49.1057 44.6733 49.2575C44.6002 49.2575 44.5946 49.2069 44.5721 49.1844C44.6106 49.1797 44.6484 49.1703 44.6846 49.1563C44.5215 49.1957 44.3302 49.1225 44.274 49.1957C44.2008 49.0888 44.3696 49.1563 44.274 49.0775H44.3077C44.2973 49.0202 44.2823 48.9637 44.2627 48.9088L44.1727 48.6332C44.0871 48.4086 44.0871 48.1603 44.1727 47.9357C44.1727 47.975 44.1727 47.9975 44.139 48.0032C44.2234 47.3732 44.0265 46.7151 44.139 46.0963C44.139 45.9219 44.0996 45.8994 44.0434 45.7982L44.1277 45.7588L44.0265 45.5732C43.9534 45.3145 44.229 45.1232 44.0884 44.797L44.0321 44.8363C44.0321 44.7182 43.9927 44.4651 44.0321 44.482C44.0715 44.4988 43.9759 44.4482 44.0321 44.3976H44.0771L43.9927 44.1051C43.9927 43.8801 44.1727 44.1388 44.1727 43.8126C44.1727 43.6889 44.0377 43.4639 44.0096 43.5145C43.9815 43.5651 44.0096 43.6382 43.9421 43.6439V43.5314C43.8127 43.5314 43.6777 43.4301 43.5877 43.7057L43.6721 43.897L43.6102 43.9588V43.7957C43.554 43.8913 43.6102 43.9476 43.644 44.0095C43.6273 44.0178 43.6127 44.0297 43.601 44.0443C43.5894 44.0588 43.581 44.0757 43.5765 44.0938L43.7002 44.2738C43.6496 44.2738 43.599 44.1951 43.5709 44.3188C43.6327 44.4088 43.689 44.2345 43.7284 44.3807C43.6721 44.4707 43.6215 44.4426 43.6721 44.5495C43.6384 44.5495 43.6159 44.5495 43.6046 44.5045C43.644 44.5945 43.6046 44.752 43.6946 44.8026C43.6215 44.8982 43.6946 45.1232 43.5934 45.1176C43.6516 45.1905 43.6886 45.2781 43.7002 45.3707C43.5484 45.2132 43.7002 45.697 43.5371 45.6576C43.6721 45.7757 43.6046 46.0851 43.6834 46.2932C43.6834 46.2932 43.6496 46.2594 43.6834 46.2426C43.676 46.3238 43.651 46.4025 43.6102 46.4732C43.7227 46.4732 43.7509 46.6644 43.824 46.7657C43.7171 46.9119 43.689 46.6813 43.5877 46.7263C43.6777 46.7263 43.6834 46.9738 43.7565 46.9288C43.6946 47.0357 43.7565 47.0244 43.6327 47.0807C43.7734 47.0807 43.6327 47.1819 43.7452 47.2719C43.6834 47.4351 43.6159 47.3169 43.6609 47.4913C43.6327 47.5251 43.5821 47.3676 43.5821 47.3676ZM46.5014 49.5613H46.4114H46.5014ZM46.8502 49.5613H46.6871C46.6843 49.5554 46.683 49.5489 46.6833 49.5425C46.6836 49.536 46.6855 49.5297 46.6889 49.5241C46.6922 49.5185 46.6969 49.5139 46.7024 49.5106C46.708 49.5072 46.7143 49.5053 46.7208 49.505C46.7208 49.505 46.7996 49.4994 46.8502 49.5388V49.5613ZM46.0796 49.055C46.1358 49.055 46.1527 49.055 46.164 49.055H46.0683C46.0683 49.055 46.0683 49.0438 46.0796 49.0325V49.055Z" fill="#202020"/>
<path d="M51.5418 49.8257L51.5474 49.8088L51.5137 49.8145L51.5418 49.8257Z" fill="#202020"/>
<path d="M57.4707 42.3894C57.5607 42.4175 57.5213 42.4007 57.4707 42.3894V42.3894Z" fill="#202020"/>
<path d="M54.3809 41.9L54.4821 41.8663C54.4259 41.8607 54.3865 41.855 54.3809 41.9Z" fill="#202020"/>
<path d="M59.9453 44.9487V44.9544L59.9509 44.9712L59.9453 44.9487Z" fill="#202020"/>
<path d="M54.6287 41.8719C54.5809 41.8581 54.5302 41.8581 54.4824 41.8719C54.5308 41.8804 54.5803 41.8804 54.6287 41.8719Z" fill="#202020"/>
<path d="M44.2955 41.99H44.2617C44.2617 41.99 44.2955 42.0012 44.2955 41.99Z" fill="#202020"/>
<path d="M44.1953 42.0802L44.2628 42.0183C44.2628 42.0183 44.2009 42.0464 44.1953 42.0802Z" fill="#202020"/>
<path d="M45.5231 41.8102C45.4612 41.8102 45.3656 41.7483 45.2812 41.7708C45.315 41.7483 45.4612 41.8608 45.5231 41.8102Z" fill="#202020"/>
<path d="M46.6022 42.1869H46.3828C46.4222 42.1869 46.4728 42.26 46.3828 42.2657C46.6472 42.3107 46.3153 42.1532 46.6022 42.1869Z" fill="#202020"/>
<path d="M47.2492 42.187C47.1367 42.187 47.2492 42.2264 47.2492 42.2489C47.2492 42.2714 47.3617 42.232 47.2492 42.187Z" fill="#202020"/>
<path d="M52.1318 42.187V42.2601C52.2106 42.2601 52.1206 42.2433 52.1318 42.187Z" fill="#202020"/>
<path d="M53.0591 41.827L52.9747 41.782L52.9297 41.8495L53.0591 41.827Z" fill="#202020"/>
<path d="M53.6116 42.3389L53.5723 42.3501L53.7185 42.322L53.6116 42.3389Z" fill="#202020"/>
<path d="M59.6247 46.0906L59.6978 46.04C59.6809 45.9893 59.5853 46.0062 59.6247 46.0906Z" fill="#202020"/>
<path d="M59.624 49.3926C59.5909 49.4039 59.5628 49.4264 59.5443 49.4561C59.5259 49.4858 59.5183 49.521 59.5227 49.5557C59.5734 49.4995 59.624 49.432 59.624 49.3926Z" fill="#202020"/>
<path d="M52.6773 49.5501L52.7561 49.5614L52.6211 49.5164L52.6773 49.5501Z" fill="#202020"/>
<path d="M44.0159 50.9619C44.0103 50.9688 44.0069 50.9772 44.0061 50.9861C44.0052 50.9949 44.007 51.0038 44.0112 51.0116C44.0154 51.0194 44.0219 51.0258 44.0297 51.03C44.0375 51.0342 44.0464 51.0359 44.0553 51.0351L44.0947 50.9451L44.0159 50.9619Z" fill="#202020"/>
<path d="M44.3422 51.1532C44.4041 51.1138 44.4772 51.0351 44.4434 50.9507C44.3816 51.0351 44.3647 50.9957 44.2972 51.1026C44.2466 51.1026 44.2128 51.0688 44.2241 51.0351C44.2353 51.0013 44.1453 51.0351 44.1172 51.0351C44.1319 51.0509 44.1498 51.0635 44.1696 51.0722C44.1895 51.0808 44.2109 51.0853 44.2325 51.0853C44.2541 51.0853 44.2755 51.0808 44.2954 51.0722C44.3152 51.0635 44.3331 51.0509 44.3478 51.0351C44.3478 51.0351 44.3478 51.1363 44.3422 51.1532Z" fill="#202020"/>
<path d="M51.991 52.6943C51.991 52.6943 51.9573 52.6943 51.9517 52.6943C51.946 52.6943 51.991 52.7056 51.991 52.6943Z" fill="#202020"/>
<path d="M49.252 51.5469L49.3251 51.5862C49.3251 51.5862 49.2857 51.5581 49.252 51.5469Z" fill="#202020"/>
<path d="M45.0274 50.9505C45.0126 50.9475 44.9973 50.9475 44.9824 50.9505H45.0274Z" fill="#202020"/>
<path d="M47.9189 51.4624C47.9151 51.4733 47.9151 51.4852 47.9189 51.4962V51.4624Z" fill="#202020"/>
<path d="M46.8941 51.4343C46.8941 51.4343 46.9279 51.3555 46.9335 51.3218C46.931 51.3349 46.925 51.347 46.9161 51.357C46.9071 51.3669 46.8957 51.3742 46.8829 51.378C46.8822 51.3974 46.886 51.4167 46.8941 51.4343V51.4343Z" fill="#202020"/>
<path d="M44.2168 51.5356L44.2224 51.5525H44.2674L44.2168 51.5356Z" fill="#202020"/>
<path d="M52.8744 53.8024C52.8744 53.8024 52.8406 53.7911 52.8744 53.8024V53.8024Z" fill="#202020"/>
<path d="M52.1211 61.1936C52.2392 61.1936 52.0423 61.3567 52.1998 61.3455C52.1717 61.3117 52.2448 61.1767 52.1211 61.1936Z" fill="#202020"/>
<path d="M53.7402 55.6307V55.6025C53.7402 55.6025 53.7515 55.6082 53.7402 55.6307Z" fill="#202020"/>
<path d="M53.9994 56.418C53.9953 56.4268 53.9932 56.4364 53.9932 56.4461C53.9932 56.4558 53.9953 56.4654 53.9994 56.4742V56.4742C53.9994 56.4742 53.9656 56.4405 53.9994 56.418Z" fill="#202020"/>
<path d="M54.0059 57.2786L54.0227 57.2618L54.0171 57.2336L54.0059 57.2786Z" fill="#202020"/>
<path d="M44.0552 55.4506C44.0759 55.4305 44.1009 55.4151 44.1283 55.4056C44.0721 55.4225 44.0439 55.2932 44.0552 55.4506Z" fill="#202020"/>
<path d="M54.6016 56.3955V56.5474C54.6072 56.4969 54.6072 56.446 54.6016 56.3955V56.3955Z" fill="#202020"/>
<path d="M54.6288 56.9861C54.6039 57.0086 54.5862 57.0379 54.5781 57.0705V57.0705L54.6288 56.9861Z" fill="#202020"/>
<path d="M43.8751 54.4831C43.8751 54.6181 43.982 54.5449 44.0438 54.5674C44.0776 54.7249 43.9707 54.6462 43.9201 54.7024C43.9538 54.8037 44.0495 54.8712 44.0495 54.9499C44.0495 55.0287 44.0495 54.9499 44.0045 54.9499C44.0945 55.0512 44.0045 55.2593 44.1338 55.3774C44.1802 55.3679 44.2281 55.3679 44.2744 55.3774C44.2744 55.4393 44.3476 55.4843 44.2744 55.5124C44.2013 55.5405 44.2745 55.473 44.2238 55.4562L44.2576 55.518C44.162 55.5799 44.2182 55.4337 44.1451 55.4393C44.1845 55.5574 44.2688 55.698 44.2463 55.7937C44.2238 55.8893 44.2069 55.5743 44.1282 55.7037V55.5574C43.982 55.6755 44.1282 55.4674 43.9763 55.5574C43.9763 55.7487 44.0382 55.7655 44.0213 55.9624C44.072 56.0018 44.0944 55.9624 44.1507 55.9624C44.2576 56.2268 43.9201 56.1874 44.0607 56.3787C44.1226 56.4293 44.2463 56.4405 44.1901 56.5868L44.0776 56.5474C44.0776 56.733 44.2407 56.643 44.1788 56.8455C44.1338 56.8118 44.1338 56.6993 44.1226 56.7274C44.0438 56.8568 44.1901 56.8118 44.1957 56.913H44.1001C44.1001 57.1155 44.2069 57.3349 44.2519 57.5543C44.2519 57.5543 44.1901 57.5093 44.1676 57.5543C44.2306 57.8562 44.2683 58.1629 44.2801 58.4711L44.3926 58.5499C44.3926 58.5499 44.3926 58.6061 44.3532 58.5836C44.3532 58.7017 44.4038 58.5836 44.4488 58.6174C44.4938 58.6511 44.4488 58.7074 44.3982 58.6792C44.5684 58.8745 44.6932 59.105 44.7638 59.3542H44.7244C44.7751 59.5117 44.9551 59.4274 44.9663 59.5905C45.1182 59.9055 45.3994 60.153 45.4894 60.4286C45.6076 60.3892 45.6863 60.7211 45.8213 60.6142C45.9057 60.8055 45.8213 60.7942 46.0182 61.0192C46.0744 61.0698 46.1701 61.0192 46.2488 61.053L46.1982 61.1205H46.3557V61.2386L46.44 61.2723C46.4119 61.2723 46.4007 61.1992 46.44 61.1823C46.5638 61.233 46.6707 61.4186 46.6538 61.458C46.755 61.4917 46.8563 61.5311 46.9575 61.5592C46.9575 61.5592 46.8844 61.5592 46.8338 61.5592C47.025 61.5592 46.8338 61.6548 46.9913 61.6605C46.9913 61.6605 47.0307 61.6211 47.0419 61.6042C47.1214 61.7102 47.2379 61.7825 47.3682 61.8067L47.3175 61.8517C47.5501 61.9604 47.7908 62.0507 48.0375 62.1217C48.0226 62.113 48.0112 62.0993 48.0054 62.0831C47.9996 62.0668 47.9998 62.049 48.0058 62.0328C48.0119 62.0167 48.0235 62.0032 48.0386 61.9947C48.0536 61.9863 48.0712 61.9834 48.0881 61.9867V62.0823C48.1556 62.043 48.0207 62.0261 48.1388 61.9923C48.2569 61.9586 48.1725 62.1105 48.1388 62.1217H48.2625C48.2625 62.1217 48.2288 62.1555 48.2119 62.1892C48.195 62.223 48.3863 62.3411 48.4819 62.2567C48.6817 62.3027 48.8848 62.3328 49.0894 62.3467C49.0894 62.2736 49.185 62.2961 49.2581 62.2398C49.4228 62.3079 49.5977 62.3478 49.7756 62.358C49.9106 62.3242 49.815 62.2961 49.8769 62.2511C49.8769 62.3242 50.0738 62.3073 49.9781 62.3636C50.1697 62.3549 50.3591 62.3189 50.5406 62.2567C50.5069 62.2567 50.4731 62.2173 50.4844 62.1948C50.4956 62.1723 50.6081 62.1948 50.6025 62.2455C50.895 62.0936 51.39 62.3186 51.6037 62.0767C51.6823 62.0274 51.7575 61.9729 51.8287 61.9136C51.9525 61.8798 51.7837 61.9923 51.885 61.998C52.11 61.7786 52.3181 61.8236 52.4925 61.6323C52.7737 61.7167 53.055 61.2498 53.3081 61.1598H53.2631C53.2631 61.0755 53.3418 61.1261 53.3868 61.098C53.4318 61.0698 53.3025 61.098 53.3137 61.098C53.7177 60.67 54.0621 60.1894 54.3374 59.6692C54.4218 59.4667 54.1349 59.4724 54.3374 59.2642L54.4049 59.3599C54.4809 58.9526 54.5335 58.5413 54.5624 58.128C54.5624 58.128 54.6074 58.1618 54.6018 58.1955C54.6806 58.1224 54.6412 57.8861 54.6018 57.8805C54.5624 57.8749 54.6524 57.8805 54.6862 57.8355C54.7199 57.7905 54.6187 57.6218 54.6862 57.5824C54.7537 57.543 54.6862 57.5824 54.6862 57.6218C54.6862 57.6611 54.6862 57.363 54.6299 57.4136C54.6749 57.2674 54.6299 57.1268 54.6299 57.0086C54.5399 56.9299 54.6637 56.7499 54.5399 56.7274C54.6693 56.7274 54.6299 56.463 54.5399 56.373C54.5849 56.373 54.5737 56.2887 54.6299 56.3168C54.6299 56.2099 54.5793 56.1143 54.5174 56.1424C54.6468 55.9174 54.3431 55.7655 54.5174 55.6193C54.3937 55.3099 54.2643 55.0568 54.1406 54.7755C54.2699 54.7418 54.2531 55.0737 54.3768 55.023C54.2345 54.8473 54.1084 54.659 54 54.4606C54 54.3874 54.0675 54.4606 54.0956 54.4887C53.9874 54.2492 53.8494 54.0243 53.685 53.8193C53.685 53.8193 53.7187 53.8193 53.7412 53.8193C53.7637 53.8193 53.7018 53.7124 53.6568 53.7518L53.6906 53.7799C53.6906 53.8868 53.4431 53.7124 53.3981 53.7349C53.5837 53.7349 53.2968 53.5156 53.5443 53.5043C53.5162 53.5043 53.4712 53.4649 53.4431 53.5043C53.415 53.5437 53.4431 53.4312 53.4993 53.4481C53.3643 53.3243 53.3531 53.4143 53.2575 53.2906C53.2575 53.2906 53.3081 53.2906 53.3418 53.2906C53.2385 53.2699 53.1475 53.2093 53.0887 53.1218C53.0887 53.1218 53.0887 53.1218 53.1393 53.1218C52.9762 52.9531 52.7681 52.9474 52.6218 52.7449C52.7625 52.6999 52.5881 52.6606 52.6218 52.5706L52.4981 52.5087V52.5818C52.4081 52.5031 52.2787 52.5087 52.2169 52.4243H52.3125L52.1268 52.3118L52.2 52.4131C52.0762 52.4131 52.1381 52.5312 52.0312 52.4131C52.0312 52.4131 51.9356 52.3512 51.9187 52.2668C51.8486 52.27 51.78 52.2458 51.7275 52.1993C51.7275 52.16 51.8006 52.1093 51.8006 52.0812C51.7106 52.1318 51.5587 51.9631 51.4462 52.0193C51.48 52.0193 51.5081 51.9631 51.5025 51.9462L51.4294 51.9912C51.3956 51.9462 51.39 51.935 51.4294 51.8956C51.2944 51.8112 51.4294 52.0418 51.2719 51.8956C51.2719 51.8956 51.2719 51.8956 51.3169 51.8956C51.1594 51.7887 50.9681 51.7831 50.8219 51.6875C50.8219 51.5693 50.9737 51.7212 50.9512 51.6143C50.7037 51.5356 50.3887 51.5468 50.1919 51.4568H50.2313C50.1581 51.5918 50.0794 51.3331 49.9444 51.3725C49.9444 51.3725 50.0006 51.305 49.9894 51.3162C49.7957 51.2615 49.5933 51.2443 49.3931 51.2656L49.4325 51.2318C49.3164 51.1914 49.1981 51.1576 49.0781 51.1306C49.0444 51.1643 48.9825 51.1306 49.0106 51.2093C48.7181 50.945 48.3863 51.2487 48.1219 51.0462C48.1557 51.0462 48.2063 51.0462 48.1782 51.0462H47.9307C47.9307 51.1081 47.9588 51.0856 48.0094 51.1418C47.9626 51.1819 47.9021 51.202 47.8407 51.1981C47.9532 51.1643 47.8407 51.0912 47.8013 51.0518C47.7619 51.0125 47.8013 51.0968 47.8013 51.1137C47.6832 50.9956 47.8013 51.2431 47.6044 51.1587V51.125C47.5369 51.125 47.475 51.1812 47.4075 51.17C47.34 51.1587 47.475 51.1362 47.4863 51.0743C47.385 51.0743 47.2838 51.2093 47.1994 51.1306C47.2444 51.1306 47.3007 51.1306 47.3457 51.0968C47.3247 51.0689 47.2975 51.0462 47.2663 51.0306C47.235 51.015 47.2006 51.0068 47.1657 51.0068L47.0025 50.9618H47.0419C46.9182 51.1531 46.7944 50.9956 46.6257 51.1193C46.7888 51.0012 46.6257 51.0518 46.665 50.9618C46.7044 50.8718 46.5638 50.9112 46.5807 50.8887C46.5019 50.9562 46.4513 50.8325 46.3388 50.9337C46.3388 50.9337 46.2544 50.9337 46.2713 50.8606C46.1701 50.8606 46.2713 50.9056 46.2713 50.945C46.1138 51.035 45.9057 50.8268 45.7088 50.945C45.5119 51.0631 45.4782 51.0912 45.2926 51.1362C45.2363 51.0912 45.3488 51.035 45.3488 51.035C45.2639 51.0014 45.1694 51.0014 45.0844 51.035C45.0844 51.035 45.0844 50.99 45.0563 50.9618C45.0282 50.9337 45.0057 51.0575 44.9101 51.0181C44.9284 50.977 44.953 50.939 44.9832 50.9056C44.8988 50.9056 44.8088 50.9787 44.7188 51.0012C44.6288 51.0237 44.7751 50.9337 44.8088 50.9C44.7076 50.9 44.5444 50.9393 44.5107 51.0125H44.5726C44.5388 51.0125 44.5726 50.945 44.5726 50.9337C44.5838 50.9243 44.5974 50.9182 44.6119 50.916C44.6264 50.9139 44.6412 50.9159 44.6547 50.9217C44.6681 50.9276 44.6797 50.9371 44.688 50.9491C44.6964 50.9612 44.7012 50.9753 44.7019 50.99H44.6401C44.7019 51.1531 44.8988 50.99 45.0282 50.99L45.0001 51.1868L45.1294 51.0968C45.1294 51.125 45.1801 51.1925 45.1294 51.2093C45.2251 51.2656 45.2138 51.17 45.2926 51.2093C45.3713 51.2487 45.2926 51.2093 45.2926 51.2093L45.3882 51.1756C45.3882 51.1756 45.3882 51.26 45.3432 51.2375C45.5063 51.3106 45.6076 51.1531 45.6694 51.2375C45.9001 51.1981 45.6694 51.1475 45.8663 51.0518L45.9788 51.26V51.1756C45.9788 51.1756 46.0463 51.1756 46.035 51.2206C46.125 51.1643 46.0351 51.1812 46.0744 51.1306C46.1869 51.2093 46.3838 51.0912 46.4063 51.2318C46.4513 51.1643 46.2994 51.1812 46.4063 51.1362C46.4063 51.2825 46.5413 51.1362 46.6425 51.1812C46.6425 51.2543 46.5132 51.215 46.6425 51.2825C46.71 51.1587 46.845 51.3162 46.9294 51.2825C47.0138 51.2487 47.1207 51.2431 47.2613 51.215C47.2613 51.2487 47.5313 51.2768 47.6663 51.3218C47.6663 51.2206 47.835 51.2487 47.9363 51.2318C47.9368 51.2567 47.9287 51.2809 47.9133 51.3005C47.8979 51.32 47.8762 51.3335 47.8519 51.3387H47.9475C47.9612 51.3205 47.9791 51.3058 47.9997 51.296C48.0202 51.2862 48.0429 51.2816 48.0656 51.2825L48.0319 51.3556C48.1613 51.3556 48.2906 51.2881 48.4481 51.3556C48.4481 51.2881 48.3413 51.1475 48.5156 51.1137C48.5156 51.1531 48.5156 51.2206 48.4706 51.2318C48.4256 51.2431 48.5269 51.2037 48.555 51.2318L48.4819 51.2881C48.5494 51.3275 48.5269 51.2375 48.5831 51.2543C48.6394 51.2712 48.6225 51.2937 48.5831 51.3387C48.5438 51.3837 48.5381 51.3387 48.51 51.3387C48.5748 51.355 48.6323 51.3927 48.6731 51.4456C48.6731 51.4118 48.6731 51.3725 48.7294 51.3668C48.8588 51.3668 48.7631 51.44 48.8363 51.4793C48.9094 51.5187 48.9431 51.4793 48.9544 51.4118C48.9938 51.4118 48.9938 51.4568 49.005 51.485C49.0163 51.5131 49.3031 51.5243 49.2469 51.4231C49.4719 51.3781 49.6688 51.5581 49.8825 51.575V51.6031C50.0119 51.6031 50.1581 51.6593 50.2594 51.6031C50.3606 51.5468 50.3325 51.6762 50.3044 51.7043C50.4 51.7043 50.4225 51.7043 50.535 51.7775C50.4281 51.7775 50.535 51.8281 50.4337 51.7775C50.5406 51.845 50.5519 51.89 50.7037 51.8675C50.6362 51.9181 50.7544 51.9856 50.8162 51.9912L50.7544 51.9125C50.8142 51.9246 50.8714 51.9475 50.9231 51.98L50.8612 52.0531C51.0356 52.2556 51.3506 52.0531 51.4237 52.3287C51.5081 52.3287 51.3225 52.2218 51.4237 52.1825C51.5194 52.25 51.5531 52.43 51.5869 52.4412C51.6937 52.565 51.7781 52.4018 51.9019 52.5256C51.9019 52.4862 51.9356 52.3962 52.0594 52.4412C52.1831 52.4862 52.0931 52.6381 52.02 52.6212C51.9469 52.6043 51.9919 52.5875 52.02 52.5818C52.0481 52.5762 51.9356 52.5537 51.9525 52.5818H51.9806C51.9806 52.6437 52.1381 52.7337 52.0762 52.7562C52.1606 52.7562 52.1381 52.7562 52.0762 52.6831C52.1662 52.8068 52.2562 52.8237 52.3518 52.9418C52.3518 52.9418 52.3518 52.8687 52.3518 52.8856C52.4925 53.0599 52.4643 52.8856 52.5881 52.9924C52.5881 53.0881 52.4812 53.0599 52.6218 53.1331C52.6612 53.2231 52.5712 53.2062 52.5262 53.2062C52.6668 53.2512 52.6668 53.4143 52.7118 53.4762L52.6443 53.4424C52.6772 53.4608 52.7059 53.4857 52.7287 53.5156V53.4424C52.7287 53.4762 52.7681 53.5043 52.7287 53.5212C52.6893 53.5381 52.7962 53.4256 52.8918 53.4537C52.8918 53.5212 53.0325 53.5662 52.9706 53.6337C52.8862 53.4818 52.9143 53.7068 52.8131 53.5999C52.8405 53.62 52.8619 53.6473 52.875 53.6787C52.875 53.6787 52.875 53.6787 52.875 53.6787C52.9087 53.8531 52.9987 53.6787 53.1 53.8193C53.0894 53.8215 53.0796 53.8265 53.0716 53.8337C53.0635 53.8409 53.0575 53.85 53.0541 53.8603C53.0507 53.8705 53.05 53.8814 53.0521 53.892C53.0543 53.9026 53.0591 53.9124 53.0662 53.9206C53.0268 53.8643 53.1168 53.8474 53.1843 53.8812C53.2518 53.9149 53.2743 53.9656 53.3025 54.0218V53.9543C53.3587 53.9543 53.3812 53.9993 53.4375 54.0612C53.4037 54.0612 53.3756 54.0106 53.3756 54.0612C53.4993 54.0949 53.3756 54.2806 53.4993 54.3593C53.4993 54.4212 53.415 54.4043 53.4206 54.4549C53.5331 54.5562 53.4206 54.6181 53.5162 54.7249C53.5612 54.663 53.55 54.6574 53.6456 54.7249C53.6062 54.6574 53.5556 54.5899 53.5106 54.5281L53.6625 54.6293C53.6625 54.5618 53.5612 54.5056 53.5556 54.4606C53.6343 54.5056 53.6175 54.5056 53.6512 54.4606C53.6006 54.5899 53.7862 54.618 53.7637 54.753L53.6062 54.8093C53.6062 54.9893 53.7862 55.0624 53.8031 55.2874V55.2143C53.8762 55.2143 53.8481 55.3437 53.8875 55.4055C53.8368 55.4055 53.8256 55.4618 53.7975 55.5012C53.7693 55.5405 53.7975 55.6587 53.9437 55.653L53.8875 55.7655C53.8875 55.9455 54.0787 55.9399 54.0843 56.1199C54.0168 56.0749 53.9887 56.1593 53.9268 56.0468C53.9268 56.103 53.9268 56.1593 53.9718 56.1537C54.0168 56.148 54.0618 56.3055 54.0112 56.3618C53.9606 56.418 54.1012 56.3899 54.0956 56.4574C54.0899 56.5249 54.0956 56.4574 54.0956 56.4574C54.0956 56.4574 54.1349 56.5587 54.1968 56.4968C54.0337 56.6824 54.1968 57.003 54.0731 57.1605C54.0812 57.2935 54.0812 57.4269 54.0731 57.5599C54.0731 57.5599 54.0731 57.5599 54.0731 57.5318C54.0112 57.6893 54.2249 57.6443 54.1518 57.8243C54.0506 57.9086 54.1124 57.723 54.0731 57.7736C53.8875 57.7736 54.0731 57.9986 53.9493 58.1055V58.0718C53.8762 58.1561 53.9831 58.308 53.9493 58.4543C54.0133 58.603 54.0329 58.7671 54.0056 58.9267C53.9493 58.8649 54.0056 58.8536 53.91 58.8649C53.8143 58.8761 54.0281 58.8649 54.0112 59.0055C53.9662 59.0392 53.9043 59.1236 53.8312 59.1124V58.9942C53.7187 59.028 53.7918 59.1461 53.7581 59.2024H53.7187C53.6737 59.3824 53.7806 59.4217 53.7187 59.6074H53.7525C53.8143 59.7536 53.6625 59.6692 53.6962 59.8042H53.5781C53.5731 59.9379 53.5504 60.0703 53.5106 60.198C53.4965 60.0784 53.4965 59.9576 53.5106 59.838C53.4768 59.8999 53.4037 60.0461 53.4318 60.108C53.4318 60.108 53.4318 60.0349 53.46 60.018C53.4784 60.0794 53.4814 60.1444 53.4687 60.2072C53.4559 60.27 53.4278 60.3287 53.3868 60.378C53.3025 60.3049 53.2406 60.378 53.1731 60.4511C53.1056 60.5242 53.0156 60.6199 52.92 60.5974C52.8075 60.828 52.5487 60.9011 52.3575 61.0642C52.5318 61.1486 52.29 61.1092 52.3968 61.2442C52.3406 61.2892 52.3181 61.3005 52.3068 61.2948C52.2301 61.3006 52.153 61.3006 52.0762 61.2948C52.0144 61.2948 52.1156 61.233 52.0762 61.2048C51.9412 61.2555 51.9862 61.1655 51.885 61.1655C51.93 61.2105 51.885 61.2723 51.795 61.2836H51.9356C51.7894 61.4636 51.7162 61.2217 51.57 61.3848L51.6094 61.3117C51.525 61.3848 51.2494 61.4355 51.1875 61.593C51.1875 61.593 51.1256 61.5423 51.1875 61.5198C50.9456 61.5592 50.6644 61.7842 50.4506 61.7111V61.6661C50.4056 61.6661 50.3775 61.7561 50.3156 61.7167C50.2537 61.6773 50.3156 61.6717 50.3156 61.6717C50.3156 61.6717 50.1919 61.7561 50.13 61.7336L50.1806 61.683C49.9331 61.638 49.8038 61.8011 49.5844 61.818C49.5844 61.6998 49.4044 61.638 49.3144 61.6042C49.0388 61.5536 48.8194 61.6042 48.5438 61.6042C48.4256 61.4298 48.0207 61.3792 47.8125 61.188C47.8125 61.2273 47.7675 61.2723 47.7169 61.2667C47.6663 61.2611 47.52 61.2667 47.5819 61.1711C47.5819 61.0473 47.4694 61.0136 47.3794 60.963L47.295 61.0811C47.1769 60.7717 46.6594 60.7661 46.665 60.5186C46.5919 60.5186 46.53 60.4567 46.4625 60.4455L46.5132 60.3836C46.4091 60.2647 46.2963 60.1538 46.1757 60.0517H46.2488C46.1701 59.9674 45.9788 60.0967 45.8944 60.018L45.9619 59.9111C45.8213 59.748 45.7707 59.523 45.5738 59.4049C45.5738 59.4049 45.6244 59.4049 45.6469 59.4049C45.5851 59.3205 45.5119 59.0392 45.3938 59.1517C45.4894 59.0955 45.2926 58.9605 45.2082 58.8649H45.2869C45.1576 58.8199 45.1294 58.8255 45.0451 58.713C44.9607 58.6005 45.0957 58.6624 45.0901 58.713C45.0901 58.6005 44.9944 58.6624 44.9888 58.5218H45.0507C45.0507 58.4149 45.0001 58.4318 44.9213 58.3924C44.8909 58.3583 44.874 58.3143 44.874 58.2686C44.874 58.223 44.8909 58.1789 44.9213 58.1449C44.8914 58.1422 44.8635 58.1287 44.8429 58.107C44.8222 58.0852 44.8101 58.0567 44.8088 58.0268C44.8171 58.0212 44.8269 58.0182 44.8369 58.0182C44.847 58.0182 44.8567 58.0212 44.8651 58.0268C44.8651 57.8355 44.7188 57.768 44.7751 57.6274C44.7878 57.6321 44.8017 57.6321 44.8144 57.6274C44.8247 57.7114 44.8247 57.7964 44.8144 57.8805C44.8876 57.8805 44.8819 57.7511 44.9944 57.8243C44.9213 57.7455 44.7807 57.5993 44.8032 57.4755C44.8083 57.464 44.811 57.4515 44.811 57.439C44.811 57.4264 44.8083 57.4139 44.8032 57.4024C44.8086 57.3689 44.8086 57.3347 44.8032 57.3011C44.8594 57.3011 44.8032 57.1605 44.8032 57.0986C44.8032 57.0368 44.7301 57.0311 44.6738 57.0986C44.6738 57.0986 44.6738 57.0986 44.6738 57.1493C44.6704 57.1583 44.6704 57.1683 44.6738 57.1774V57.1774V57.3293C44.6288 57.2843 44.5951 57.2336 44.6344 57.1661L44.4994 57.0874C44.6007 56.9974 44.6513 56.8286 44.7188 56.8005C44.6682 56.6149 44.6682 56.3505 44.5163 56.238C44.5163 56.1874 44.5557 56.1762 44.5782 56.1537C44.6007 56.1312 44.5782 56.2212 44.6119 56.238C44.5726 56.1312 44.6119 55.9174 44.4769 55.8949C44.5163 55.7543 44.5782 55.968 44.5501 55.7824H44.5838C44.7301 55.3999 44.2913 55.2199 44.4826 54.7699C44.4826 54.7699 44.4826 54.8149 44.4488 54.8205C44.5219 54.3481 44.3138 53.8587 44.4488 53.3862C44.4488 53.2568 44.4094 53.2456 44.3532 53.1668L44.4376 53.1331L44.3307 53.0037C44.2519 52.8124 44.5219 52.6549 44.3757 52.4131L44.3194 52.4468C44.3194 52.3625 44.2744 52.1712 44.3194 52.1825C44.3644 52.1937 44.2576 52.1825 44.2857 52.1206H44.3307L44.2407 51.9068C44.2407 51.7381 44.4207 51.9068 44.4151 51.6818C44.4151 51.5862 44.2745 51.4231 44.2463 51.4625C44.2182 51.5018 44.2463 51.5581 44.1788 51.5637V51.4793C44.0495 51.4793 43.9088 51.4118 43.8301 51.62L43.9145 51.7606L43.8582 51.8112L43.8751 51.7493C43.8188 51.8225 43.8751 51.8618 43.9088 51.9125C43.8949 51.9181 43.8823 51.9265 43.8716 51.9371C43.861 51.9478 43.8526 51.9604 43.847 51.9743L43.9763 52.1093C43.9257 52.1093 43.8695 52.0475 43.847 52.1431C43.8245 52.2387 43.9595 52.0756 44.0045 52.1825C43.9482 52.2556 43.8976 52.2387 43.9538 52.3175C43.9426 52.327 43.928 52.3318 43.9133 52.3308C43.8986 52.3297 43.8848 52.3229 43.8751 52.3118C43.9201 52.3793 43.8751 52.4975 43.9707 52.5312C43.9032 52.6043 44.0045 52.7731 43.8807 52.7731C43.9351 52.823 43.9741 52.8874 43.9932 52.9587C43.8357 52.8462 43.9932 53.2006 43.8357 53.1781C43.9707 53.2624 43.9088 53.4987 43.9876 53.6506C43.9876 53.6506 43.9876 53.6506 43.9876 53.6112C43.976 53.673 43.9531 53.7321 43.9201 53.7856C44.027 53.7856 44.0607 53.9318 44.1338 53.9993C44.0326 54.1118 43.9988 53.9431 43.8976 53.9993C43.9876 53.9993 43.9988 54.1793 44.072 54.1399C44.0101 54.2243 44.072 54.2131 43.9538 54.2581C44.0888 54.2581 43.9538 54.3368 44.0663 54.3987C44.0044 54.5224 43.937 54.4381 43.9876 54.5674C43.9482 54.6012 43.8751 54.4831 43.8751 54.4831ZM44.2913 57.6218V57.5543V57.6218ZM44.3307 57.8918V57.7736H44.3869C44.3869 57.7736 44.3644 57.8468 44.3476 57.8918H44.3307ZM44.8088 57.2786C44.8088 57.318 44.8088 57.3293 44.8088 57.3349V57.2674C44.8088 57.2674 44.8144 57.2674 44.8257 57.2786H44.8088Z" fill="#202020"/>
<path d="M46.1868 61.1768L46.198 61.1599H46.1699L46.1868 61.1768Z" fill="#202020"/>
<path d="M51.9297 52.3118C51.9575 52.3064 51.9862 52.3064 52.0141 52.3118C51.9803 52.2781 51.9578 52.2556 51.9297 52.3118Z" fill="#202020"/>
<path d="M52.1037 52.3624C52.0818 52.333 52.0497 52.313 52.0137 52.3062C52.0386 52.332 52.0695 52.3513 52.1037 52.3624V52.3624Z" fill="#202020"/>
<path d="M44.5757 50.9395C44.5757 50.9395 44.5723 50.9462 44.5757 50.9395V50.9395Z" fill="#202020"/>
<path d="M44.4941 50.9675H44.5504C44.5504 50.9675 44.511 50.945 44.4941 50.9675Z" fill="#202020"/>
<path d="M45.4261 50.9788C45.3811 50.9788 45.3136 50.9169 45.2461 50.9338C45.2742 50.9169 45.3811 51.0294 45.4261 50.9788Z" fill="#202020"/>
<path d="M46.2373 51.3387H46.0742C46.0742 51.3387 46.1361 51.4118 46.0742 51.4175C46.2711 51.485 46.0236 51.3275 46.2373 51.3387Z" fill="#202020"/>
<path d="M46.7373 51.3894C46.6473 51.3894 46.7373 51.4344 46.7373 51.4513C46.7373 51.4682 46.7991 51.4175 46.7373 51.3894Z" fill="#202020"/>
<path d="M50.2877 51.8562L50.2539 51.9237C50.3214 51.9349 50.2652 51.8956 50.2877 51.8562Z" fill="#202020"/>
<path d="M51.068 51.755L51.023 51.6875L50.9668 51.7325L51.068 51.755Z" fill="#202020"/>
<path d="M51.2156 52.3906H51.1875L51.2944 52.4131L51.2156 52.3906Z" fill="#202020"/>
<path d="M53.937 57.1213H54.027C53.9989 57.0594 53.9089 57.0481 53.937 57.1213Z" fill="#202020"/>
<path d="M53.5992 59.6243C53.5486 59.6243 53.4924 59.6861 53.5149 59.7424C53.543 59.7143 53.5992 59.6749 53.5992 59.6243Z" fill="#202020"/>
<path d="M47.1646 60.991H47.2209L47.1309 60.9629L47.1646 60.991Z" fill="#202020"/>
<path d="M1.29397 26.5723C1.15323 28.9038 1.21534 31.2432 1.47959 33.564C1.48529 33.786 1.57601 33.9973 1.73302 34.1544C1.89004 34.3114 2.10135 34.4021 2.32333 34.4078C2.54665 34.4063 2.7604 34.3169 2.91832 34.159C3.07623 34.0011 3.1656 33.7874 3.16707 33.564C2.90282 31.2432 2.84071 28.9038 2.98145 26.5723C2.97997 26.3489 2.89061 26.1352 2.73269 25.9773C2.57478 25.8194 2.36103 25.73 2.13771 25.7285C1.91529 25.7328 1.70318 25.8231 1.54587 25.9804C1.38857 26.1377 1.29829 26.3498 1.29397 26.5723V26.5723Z" fill="#8E0BF4"/>
<path d="M1.87386 31.134C4.05655 31.4542 6.27857 31.3875 8.43815 30.9372C8.57635 30.9014 8.70314 30.831 8.8065 30.7326C8.90986 30.6342 8.98636 30.5109 9.02877 30.3747C9.27715 28.9336 9.12939 27.4521 8.60127 26.0885C8.5432 25.8951 8.41898 25.7283 8.25034 25.6172C8.0817 25.5061 7.87938 25.4579 7.67878 25.481C7.47743 25.5092 7.2929 25.6088 7.15872 25.7616C7.02454 25.9143 6.94961 26.1101 6.94754 26.3135C6.85754 28.2372 6.82379 30.1722 6.85192 32.1015C6.85192 32.9003 6.62692 34.3009 7.56628 34.6721C7.68999 34.7205 7.82237 34.7427 7.95508 34.7373C8.0878 34.732 8.21796 34.6992 8.33739 34.6411C8.45681 34.583 8.56291 34.5007 8.64898 34.3996C8.73506 34.2984 8.79925 34.1805 8.83752 34.0534C8.87875 33.9335 8.89468 33.8064 8.88429 33.68C8.87391 33.5537 8.83743 33.4308 8.77717 33.3193C8.71691 33.2078 8.63417 33.11 8.53419 33.032C8.43421 32.9541 8.31915 32.8977 8.19628 32.8665C7.98035 32.8164 7.75348 32.8493 7.5607 32.9587C7.36792 33.0681 7.22334 33.246 7.15566 33.4571C7.09741 33.6689 7.12346 33.895 7.22834 34.088C7.33322 34.2809 7.50877 34.4258 7.71816 34.4921H7.76878L7.26254 34.104V34.1377L7.15004 33.7102L7.21191 33.4346L7.51566 33.1365L7.47066 33.1646L7.89816 33.0465H7.87566L8.30315 33.159L8.23003 33.1196L8.53377 33.4234C8.59565 33.5134 8.53377 33.5134 8.53377 33.3671C8.53377 33.2209 8.53377 33.0127 8.53377 32.8384V31.9384C8.53377 31.3084 8.53377 30.684 8.53377 30.0597C8.53377 28.8072 8.56752 27.5547 8.63502 26.3022L6.97567 26.5272C7.417 27.5938 7.56461 28.7592 7.40316 29.9022L7.96565 29.3397C6.10111 29.7329 4.182 29.7958 2.29573 29.5253C2.08412 29.4726 1.86046 29.5012 1.66887 29.6053C1.47728 29.7094 1.33166 29.8816 1.26074 30.0878C1.20366 30.3033 1.23359 30.5326 1.34409 30.7262C1.45458 30.9199 1.63678 31.0623 1.85136 31.1228L1.87386 31.134Z" fill="#8E0BF4"/>
<path d="M10.917 28.254C10.9452 29.0809 10.9733 29.9077 11.0352 30.729C11.0689 31.134 11.1139 31.5333 11.1645 31.9383C11.1983 32.169 11.232 32.4052 11.2714 32.6414C11.2714 32.7371 11.2995 32.8327 11.3164 32.9283C11.3328 32.9914 11.3459 33.0552 11.3558 33.1196C11.3558 33.2883 11.3895 33.2433 11.3558 32.9789L11.5864 32.6246L11.8114 32.4952H12.2558H12.2051L12.5764 32.709H12.5483L12.762 33.0802L12.7114 33.5696L12.4133 33.8733L12.2783 33.9296H11.8114H11.8508C12.0625 33.9878 12.2886 33.9618 12.4816 33.8569C12.6746 33.752 12.8194 33.5765 12.8858 33.3671C12.9401 33.1509 12.909 32.9222 12.799 32.7284C12.689 32.5346 12.5085 32.3906 12.2951 32.3265C12.1705 32.2823 12.0381 32.2644 11.9062 32.2738C11.7743 32.2832 11.6457 32.3196 11.5286 32.3809C11.4114 32.4422 11.3081 32.5269 11.2252 32.6299C11.1422 32.7329 11.0814 32.8519 11.0465 32.9794C11.0116 33.107 11.0034 33.2403 11.0224 33.3712C11.0414 33.5021 11.0871 33.6276 11.1568 33.74C11.2264 33.8524 11.3185 33.9492 11.4273 34.0244C11.536 34.0996 11.6591 34.1516 11.7889 34.1771C12.0458 34.234 12.3148 34.1898 12.54 34.0536C12.7652 33.9174 12.9293 33.6998 12.9983 33.4458C13.0342 33.034 12.9883 32.6192 12.8633 32.2252C12.8126 31.9102 12.7901 31.7415 12.7564 31.3871C12.7226 31.0327 12.6945 30.7121 12.672 30.3746C12.627 29.694 12.6045 29.0134 12.582 28.3328C12.582 28.109 12.4931 27.8944 12.3349 27.7361C12.1767 27.5779 11.962 27.489 11.7383 27.489C11.5145 27.489 11.2999 27.5779 11.1417 27.7361C10.9834 27.8944 10.8945 28.109 10.8945 28.3328L10.917 28.254Z" fill="#8E0BF4"/>
<path d="M12.6165 24.6935C12.6165 24.6935 12.6165 24.6935 12.6165 24.6541L12.6502 24.8791C12.6446 24.8532 12.6446 24.8263 12.6502 24.8004L12.6165 25.0254C12.6133 25.0011 12.6133 24.9765 12.6165 24.9523L12.5321 25.1548C12.5431 25.1311 12.5563 25.1085 12.5715 25.0873L12.4421 25.2616L12.5096 25.1885L12.3746 25.3123C12.4089 25.2862 12.4468 25.2654 12.4871 25.2504L12.2846 25.3348C12.3138 25.3241 12.3439 25.3166 12.3746 25.3123H12.1496H12.3015H12.0765C12.1101 25.3073 12.1442 25.3073 12.1777 25.3123L11.9752 25.2279L12.0484 25.2673L11.8796 25.1379C11.9212 25.171 11.959 25.2088 11.9921 25.2504L11.8627 25.0816C11.8909 25.1266 11.919 25.1716 11.9415 25.2166L11.8571 25.0141C11.8903 25.0992 11.9129 25.188 11.9246 25.2785V25.0535C11.9415 25.1936 11.9415 25.3353 11.9246 25.4754L11.9527 25.2504C11.8405 25.7284 11.829 26.2245 11.919 26.7072L12.3015 25.7566H12.2565L12.459 25.6723C12.3777 25.7052 12.2927 25.7278 12.2059 25.7398L12.4309 25.706C12.3431 25.7172 12.2543 25.7172 12.1665 25.706L12.3915 25.7341C12.297 25.721 12.2044 25.6965 12.1159 25.661L12.3184 25.7454C12.2355 25.7115 12.1579 25.666 12.0877 25.6104L12.2621 25.7454C12.2004 25.6949 12.1439 25.6384 12.0934 25.5766L12.2284 25.751C12.1795 25.6875 12.1397 25.6174 12.1102 25.5429L12.1946 25.7454C12.1636 25.6717 12.1428 25.5941 12.1327 25.5148V25.7398C12.1215 25.6407 12.1215 25.5407 12.1327 25.4416L12.099 25.6666C12.114 25.5701 12.1404 25.4757 12.1777 25.3854L12.0934 25.5879C12.127 25.5143 12.1685 25.4445 12.2171 25.3798L12.0821 25.5541C12.1152 25.5108 12.153 25.4712 12.1946 25.436C12.2775 25.3588 12.344 25.2656 12.3901 25.1621C12.4362 25.0586 12.461 24.9469 12.463 24.8336C12.465 24.7203 12.4442 24.6078 12.4018 24.5027C12.3593 24.3977 12.2962 24.3022 12.216 24.2221C12.1359 24.142 12.0405 24.0788 11.9354 24.0364C11.8304 23.994 11.7178 23.9731 11.6045 23.9751C11.4912 23.9771 11.3795 24.0019 11.276 24.048C11.1725 24.0941 11.0794 24.1606 11.0021 24.2435C10.7642 24.4665 10.5904 24.7492 10.499 25.0622C10.4075 25.3752 10.4017 25.707 10.4821 26.023C10.5625 26.339 10.7263 26.6276 10.9563 26.8588C11.1862 27.0899 11.474 27.2552 11.7896 27.3372C11.9724 27.3889 12.1625 27.4098 12.3521 27.3991C12.6148 27.3811 12.8712 27.3103 13.1059 27.191L13.2746 27.0616C13.3561 26.9868 13.4163 26.8917 13.449 26.786C13.5295 26.6096 13.5454 26.4105 13.494 26.2235C13.494 26.1729 13.494 26.1279 13.4602 26.0829L13.494 26.3079C13.4743 26.151 13.4743 25.9923 13.494 25.8354L13.4659 26.0604C13.5427 25.7172 13.5748 25.3656 13.5615 25.0141C13.5426 24.757 13.4718 24.5063 13.3534 24.2773C13.2354 24.0619 13.0627 23.8814 12.8527 23.7542C12.6509 23.6408 12.4233 23.5813 12.1918 23.5813C11.9603 23.5813 11.7327 23.6408 11.5309 23.7542C11.3033 23.8789 11.1241 24.0764 11.0221 24.315C10.9201 24.5537 10.9012 24.8197 10.9684 25.0704C11.0292 25.2821 11.1678 25.463 11.3565 25.5766C11.5538 25.6852 11.7848 25.7153 12.0034 25.661C12.2176 25.598 12.3989 25.4543 12.5091 25.2601C12.6193 25.066 12.6497 24.8366 12.594 24.6204L12.6165 24.6935Z" fill="#8E0BF4"/>
<path d="M80.4358 26.4709L98.6324 25.9084C99.4424 25.9084 99.448 24.6147 98.6324 24.6428L80.4358 25.2053C79.6258 25.2053 79.6202 26.499 80.4358 26.4709Z" fill="black"/>
<path d="M85.0039 26.2966V33.1196C85.0188 33.2772 85.0919 33.4235 85.2089 33.53C85.3259 33.6365 85.4785 33.6955 85.6367 33.6955C85.7949 33.6955 85.9475 33.6365 86.0645 33.53C86.1816 33.4235 86.2546 33.2772 86.2695 33.1196V26.2966C86.2546 26.1391 86.1816 25.9927 86.0645 25.8862C85.9475 25.7797 85.7949 25.7207 85.6367 25.7207C85.4785 25.7207 85.3259 25.7797 85.2089 25.8862C85.0919 25.9927 85.0188 26.1391 85.0039 26.2966V26.2966Z" fill="black"/>
<path d="M85.2014 28.8446C83.5139 28.4227 81.3708 28.029 79.8521 29.0921C78.9914 29.694 78.2715 30.8133 78.7271 31.9046C79.1827 32.9958 80.4146 33.0296 81.2752 32.5458C82.4002 31.8764 82.4901 30.4308 82.3664 29.2496C82.3608 29.0828 82.292 28.9244 82.174 28.8064C82.056 28.6884 81.8976 28.6196 81.7308 28.614C81.5632 28.6155 81.403 28.6831 81.285 28.8021C81.167 28.9212 81.1008 29.082 81.1008 29.2496C81.1626 29.6667 81.1739 30.0898 81.1345 30.5096C81.1117 30.8165 80.9915 31.1082 80.7914 31.3421C80.6345 31.4798 80.4371 31.5627 80.2289 31.5783C80.1565 31.587 80.0832 31.5712 80.0208 31.5333C79.9589 31.4939 79.9814 31.5333 79.9533 31.4827C79.9293 31.4355 79.9086 31.3866 79.8914 31.3364C79.7564 30.774 80.4089 30.2452 80.8195 30.0315C81.0827 29.9046 81.3633 29.8174 81.652 29.7727C81.959 29.7259 82.2699 29.709 82.5801 29.7221C83.3622 29.7596 84.1376 29.8841 84.892 30.0933C85.0483 30.1222 85.2098 30.0914 85.3446 30.0071C85.4794 29.9227 85.5777 29.7909 85.62 29.6377C85.6624 29.4844 85.6458 29.3209 85.5735 29.1793C85.5012 29.0377 85.3785 28.9283 85.2295 28.8727L85.2014 28.8446Z" fill="black"/>
<path d="M89.6781 26.5777C89.9132 28.3109 89.9997 30.061 89.9368 31.8089C89.9229 32.0273 89.8736 32.242 89.7906 32.4445C89.7906 32.4445 89.7231 32.4445 89.8243 32.4445C89.9256 32.4445 89.7512 32.3602 89.7175 32.3377C89.5676 32.2308 89.4248 32.1143 89.29 31.9889C88.7552 31.5084 88.3096 30.9371 87.9737 30.3014L87.5912 31.2296C89.2525 30.5899 91.0374 30.336 92.8112 30.4871C93.6212 30.5602 94.4987 30.6783 95.2299 30.2452C95.5806 30.0573 95.8605 29.7601 96.027 29.3987C96.1935 29.0373 96.2375 28.6314 96.1524 28.2427C96.0968 28.0937 95.9875 27.971 95.8459 27.8987C95.7042 27.8264 95.5407 27.8098 95.3874 27.8522C95.2342 27.8945 95.1024 27.9928 95.018 28.1276C94.9337 28.2624 94.9029 28.4239 94.9318 28.5802C95.078 29.1427 94.1949 29.3002 93.8068 29.3002C93.0755 29.3002 92.3612 29.1652 91.6299 29.1708C90.1444 29.185 88.6729 29.4592 87.2819 29.9808C87.1892 30.0076 87.1037 30.0549 87.0318 30.1193C86.9599 30.1836 86.9035 30.2634 86.8667 30.3526C86.83 30.4418 86.8138 30.5382 86.8195 30.6345C86.8251 30.7308 86.8524 30.8246 86.8994 30.9089C87.4619 31.9889 89.8862 35.1445 90.9775 32.9508C91.1484 32.5668 91.2347 32.1505 91.2306 31.7302C91.2306 31.1677 91.2306 30.6052 91.2306 30.009C91.2024 28.8612 91.1122 27.7158 90.9606 26.5777C90.955 26.4124 90.8868 26.2554 90.7698 26.1385C90.6529 26.0215 90.4959 25.9534 90.3306 25.9478C90.0212 25.9478 89.65 26.2402 89.695 26.5777H89.6781Z" fill="black"/>
<path d="M96.0453 27.2302L95.5165 25.6665C95.4724 25.5223 95.3784 25.3986 95.2514 25.3173C95.1244 25.236 94.9727 25.2025 94.8233 25.2228C94.6739 25.2431 94.5366 25.3158 94.4359 25.428C94.3351 25.5402 94.2776 25.6845 94.2734 25.8352V32.5851C94.2883 32.7427 94.3614 32.889 94.4784 32.9955C94.5955 33.102 94.748 33.161 94.9062 33.161C95.0645 33.161 95.217 33.102 95.3341 32.9955C95.4511 32.889 95.5242 32.7427 95.539 32.5851V25.8352L94.2959 26.004L94.8247 27.5677C95.0834 28.3327 96.304 28.0064 96.0453 27.2302V27.2302Z" fill="black"/>
<path d="M-7.72771e-05 61.4467C-0.062902 63.0692 0.00104151 64.6941 0.19117 66.3066C0.281169 67.0941 0.399293 67.876 0.545541 68.6522C0.627347 69.3246 0.853783 69.9713 1.20928 70.5478C1.96302 71.5884 3.49863 72.0159 4.73611 71.909C5.33788 71.8852 5.92002 71.6884 6.41283 71.3422C6.90564 70.996 7.28824 70.5152 7.51483 69.9572C7.75958 69.4005 7.81732 68.7796 7.6794 68.1873C7.54148 67.5951 7.21533 67.0635 6.74984 66.6722C6.0861 66.1941 5.4561 67.291 6.1086 67.7635C6.76109 68.236 6.52484 69.5859 6.00735 70.0978C5.17486 70.9303 3.57738 70.7784 2.66051 70.1709C2.42672 69.9746 2.23533 69.7327 2.09801 69.46C1.9607 69.1873 1.88032 68.8895 1.86177 68.5847C1.69865 67.7972 1.5749 67.0097 1.4849 66.2166C1.30413 64.6335 1.24396 63.0389 1.30491 61.4467C1.30491 60.6311 0.0674219 60.6311 0.0392972 61.4467H-7.72771e-05Z" fill="black"/>
<path d="M7.50326 70.8741L14.1913 71.566C14.2888 71.5649 14.3848 71.5416 14.472 71.4978C14.5591 71.4541 14.6352 71.391 14.6943 71.3135C14.7534 71.2359 14.794 71.1459 14.8131 71.0503C14.8322 70.9546 14.8292 70.8559 14.8044 70.7616C14.5104 69.5716 13.8658 68.4974 12.9542 67.678C12.0425 66.8586 10.9058 66.3319 9.69136 66.166C9.52376 66.1675 9.36353 66.2351 9.24554 66.3542C9.12756 66.4732 9.06136 66.634 9.06137 66.8016C9.06426 66.9678 9.13156 67.1264 9.24909 67.2439C9.36661 67.3614 9.52518 67.4287 9.69136 67.4316C11.6207 67.6285 13.1001 69.316 13.5838 71.0991L14.1913 70.3003L7.50326 69.5803C7.33618 69.5803 7.17594 69.6467 7.05779 69.7649C6.93965 69.883 6.87327 70.0433 6.87327 70.2103C6.87103 70.2953 6.88554 70.3799 6.91599 70.4592C6.94645 70.5385 6.99223 70.6111 7.05074 70.6728C7.10924 70.7344 7.17932 70.7839 7.25697 70.8184C7.33461 70.853 7.41831 70.8719 7.50326 70.8741V70.8741Z" fill="black"/>
<path d="M6.69453 73.0117C6.54371 73.1861 6.429 73.3888 6.35704 73.6079C6.2992 73.7896 6.27257 73.9798 6.27829 74.1704C6.27142 74.362 6.30199 74.553 6.36829 74.7329C6.43423 74.9459 6.55215 75.1392 6.71141 75.2954C6.90612 75.4729 7.15694 75.5764 7.42015 75.5879C7.61994 75.5994 7.81787 75.544 7.98264 75.4304C8.14807 75.3148 8.28471 75.1628 8.38201 74.986C8.48069 74.801 8.54186 74.5984 8.56201 74.3898C8.59135 74.1571 8.53664 73.9215 8.40773 73.7256C8.27883 73.5297 8.0842 73.3862 7.8589 73.321C7.7782 73.2987 7.69385 73.2926 7.61079 73.3033C7.52773 73.3139 7.44762 73.341 7.37515 73.3829C7.23005 73.4675 7.12435 73.6061 7.08114 73.7684C7.03792 73.9308 7.06071 74.1036 7.14453 74.2491C7.22997 74.3896 7.36412 74.4937 7.5214 74.5416H7.57202L7.42015 74.4798L7.48765 74.5191L7.35828 74.4235C7.37957 74.4373 7.39855 74.4544 7.41453 74.4741L7.31328 74.3448C7.32846 74.366 7.34164 74.3886 7.35265 74.4123L7.28515 74.2604C7.30152 74.2962 7.31288 74.334 7.3189 74.3729V74.2041C7.32451 74.2621 7.32451 74.3205 7.3189 74.3785V74.2098C7.30613 74.2806 7.28731 74.3502 7.26265 74.4179L7.31328 74.2491C7.28526 74.3133 7.24936 74.3738 7.2064 74.4291L7.30765 74.2998C7.27872 74.3362 7.24673 74.37 7.21203 74.401L7.3414 74.2998C7.30975 74.3236 7.27584 74.3444 7.24015 74.3616L7.39203 74.2941H7.31328H7.48203H7.39203H7.56077H7.47078L7.62265 74.3616C7.58212 74.3446 7.54424 74.3219 7.51015 74.2941L7.63952 74.3954C7.60113 74.3626 7.5654 74.3269 7.53265 74.2885L7.6339 74.4179C7.59556 74.3696 7.56343 74.3167 7.53827 74.2604L7.60577 74.4123C7.57219 74.3332 7.54949 74.2499 7.53827 74.1648V74.3335C7.5242 74.2252 7.5242 74.1156 7.53827 74.0073V74.176C7.55323 74.0758 7.57965 73.9777 7.61702 73.8835L7.55515 74.0354C7.58365 73.9633 7.62147 73.8952 7.66765 73.8329L7.57202 73.9623L7.60015 73.9285C7.71493 73.8062 7.78096 73.6462 7.78577 73.4785C7.78545 73.31 7.71876 73.1483 7.60015 73.0285C7.54159 72.9695 7.47192 72.9227 7.39517 72.8907C7.31842 72.8587 7.23611 72.8423 7.15297 72.8423C7.06983 72.8423 6.98751 72.8587 6.91076 72.8907C6.83401 72.9227 6.76435 72.9695 6.70578 73.0285L6.69453 73.0117Z" fill="black"/>
<path d="M42.4128 90.7301C43.2007 90.3024 43.8839 89.7052 44.413 88.9815C44.9422 88.2578 45.3041 87.4257 45.4727 86.5452L43.7852 86.3202V93.3119C43.7852 93.5357 43.8741 93.7503 44.0324 93.9086C44.1906 94.0668 44.4052 94.1557 44.629 94.1557C44.8528 94.1557 45.0674 94.0668 45.2256 93.9086C45.3838 93.7503 45.4727 93.5357 45.4727 93.3119V86.3202C45.4875 86.2094 45.4803 86.0967 45.4515 85.9887C45.4228 85.8807 45.373 85.7794 45.3051 85.6906C45.2372 85.6018 45.1525 85.5272 45.0558 85.4712C44.9591 85.4151 44.8523 85.3787 44.7415 85.3639C44.6307 85.3491 44.5181 85.3563 44.41 85.3851C44.302 85.4138 44.2007 85.4636 44.1119 85.5315C44.0231 85.5994 43.9486 85.6841 43.8925 85.7808C43.8365 85.8776 43.8 85.9844 43.7852 86.0952C43.6732 86.7643 43.4091 87.3989 43.0131 87.9499C42.6172 88.5009 42.1 88.9536 41.5015 89.2732C40.5509 89.7851 41.4003 91.2476 42.3565 90.7301H42.4128Z" fill="#8E0BF4"/>
<path d="M43.4136 95.1851C42.6213 96.1081 42.0192 97.1786 41.6417 98.335C41.5835 98.5468 41.6095 98.7729 41.7144 98.9659C41.8193 99.1588 41.9949 99.3037 42.2042 99.37C42.4167 99.4256 42.6423 99.3985 42.8355 99.294C43.0287 99.1896 43.175 99.0157 43.2449 98.8075C43.318 98.5825 43.3967 98.3575 43.4923 98.1382L43.408 98.3407C43.5684 97.9672 43.7564 97.6062 43.9705 97.2607C44.0717 97.0919 44.1842 96.9288 44.3023 96.7657L44.3867 96.6476C44.4823 96.5126 44.2742 96.7882 44.3867 96.6476C44.4992 96.5069 44.5273 96.4732 44.6005 96.3888C44.7525 96.2266 44.8405 96.0147 44.848 95.7926C44.844 95.568 44.7556 95.3531 44.6005 95.1907C44.4402 95.0367 44.2265 94.9507 44.0042 94.9507C43.7819 94.9507 43.5683 95.0367 43.408 95.1907L43.4136 95.1851Z" fill="#8E0BF4"/>
<path d="M45.658 95.7812L45.703 99.1562C45.7059 99.3791 45.7957 99.592 45.9533 99.7496C46.1109 99.9072 46.3238 99.997 46.5467 99.9999C48.3571 99.9463 50.1428 99.5651 51.8173 98.875C52.0255 98.8051 52.1994 98.6588 52.3038 98.4656C52.4082 98.2724 52.4354 98.0468 52.3798 97.8343C52.318 97.6206 52.1754 97.4393 51.9821 97.329C51.7889 97.2187 51.5602 97.1881 51.3448 97.2437C50.5674 97.5776 49.7617 97.8411 48.9373 98.0312C48.1501 98.2053 47.3472 98.2996 46.5411 98.3125L47.3848 99.1562L47.3398 95.7812C47.3398 95.5575 47.2509 95.3429 47.0927 95.1846C46.9345 95.0264 46.7199 94.9375 46.4961 94.9375C46.2723 94.9375 46.0577 95.0264 45.8995 95.1846C45.7412 95.3429 45.6523 95.5575 45.6523 95.7812H45.658Z" fill="#8E0BF4"/>
<path d="M47.2501 87.0009L47.2838 87.0684L47.1995 86.8659C47.2394 86.9673 47.2677 87.073 47.2838 87.1809L47.2501 86.9559C47.2642 87.0717 47.2642 87.1888 47.2501 87.3046V87.0796C47.2337 87.2038 47.1996 87.3251 47.1488 87.4396L47.2332 87.2371C47.1859 87.3553 47.1235 87.4668 47.0476 87.569L47.177 87.3946C47.1063 87.4898 47.023 87.5749 46.9295 87.6477L47.1038 87.5127C47.0149 87.5796 46.9187 87.6363 46.817 87.6815L47.0195 87.5971L46.8845 87.6421C46.6738 87.7049 46.4935 87.843 46.3782 88.0302C46.2698 88.2296 46.2397 88.4623 46.2939 88.6827C46.3566 88.8934 46.4948 89.0737 46.682 89.189C46.8814 89.2974 47.1141 89.3275 47.3345 89.2734C47.6284 89.1862 47.9006 89.0379 48.1332 88.8382C48.3659 88.6385 48.5537 88.3919 48.6845 88.1146C48.8299 87.8102 48.9104 87.4788 48.9207 87.1415C48.9229 86.7966 48.8398 86.4565 48.6788 86.1515C48.625 86.0571 48.5531 85.9742 48.4672 85.9076C48.3813 85.841 48.2831 85.792 48.1782 85.7634C47.958 85.7058 47.724 85.7361 47.5257 85.8478C47.3359 85.9601 47.1968 86.1415 47.1376 86.354C47.089 86.5729 47.1189 86.8018 47.222 87.0009H47.2501Z" fill="#8E0BF4"/>
<path d="M48.0827 89.1888C50.1483 89.3679 52.2285 89.2753 54.2701 88.9132L53.2295 88.3507C53.2295 88.2439 53.2295 88.4126 53.2295 88.4464C53.2295 88.5982 53.2745 88.2832 53.2295 88.542C53.2295 88.542 53.1901 88.6826 53.2295 88.6039C53.2295 88.6039 53.1057 88.8064 53.1563 88.7445C53.0049 88.9061 52.9206 89.1192 52.9206 89.3407C52.9206 89.5622 53.0049 89.7754 53.1563 89.937C53.3153 90.0936 53.5294 90.1814 53.7526 90.1814C53.9757 90.1814 54.1899 90.0936 54.3488 89.937C54.5934 89.664 54.7715 89.3381 54.8691 88.9849C54.9667 88.6316 54.9811 88.2605 54.9113 87.9007C54.8483 87.6878 54.7055 87.5074 54.5126 87.3973C54.3197 87.2873 54.0917 87.256 53.8763 87.3101C51.9835 87.6333 50.0565 87.707 48.1445 87.5295C47.9212 87.531 47.7075 87.6203 47.5495 87.7782C47.3916 87.9362 47.3023 88.1499 47.3008 88.3732C47.3051 88.5957 47.3954 88.8078 47.5527 88.9651C47.71 89.1224 47.9221 89.2127 48.1445 89.217L48.0827 89.1888Z" fill="#8E0BF4"/>
<path d="M50.0284 88.3115C49.7511 88.9463 49.6407 89.6414 49.7078 90.3308C49.7884 90.9162 49.8297 91.5062 49.8315 92.0971C49.8315 92.1533 49.7865 92.2827 49.8315 92.0971C49.8315 92.1421 49.8315 92.1871 49.8315 92.2377C49.8017 92.3544 49.7641 92.4691 49.719 92.5808C49.7865 92.4233 49.719 92.5808 49.719 92.5808L49.6347 92.7383L49.5334 92.8846C49.4659 92.9858 49.6572 92.7608 49.5334 92.8846L49.4153 93.0027C49.3703 93.0477 49.2634 93.0983 49.4153 93.0027L49.3084 93.0702C49.1622 93.1714 49.449 93.0702 49.2803 93.0702C49.24 93.0781 49.2005 93.0894 49.1622 93.1039C49.3028 93.0421 49.2634 93.1039 49.1622 93.1039C49.0609 93.1039 49.0778 93.1039 49.1622 93.1039C49.0974 93.0867 49.0335 93.066 48.9709 93.0421C48.7546 92.9833 48.5239 93.0124 48.329 93.123C48.134 93.2337 47.9907 93.4169 47.9303 93.6327C47.8774 93.845 47.9058 94.0695 48.0099 94.262C48.1139 94.4545 48.2862 94.6012 48.4928 94.6733C49.8428 95.202 51.0409 93.9589 51.4178 92.7777C51.5827 92.1419 51.6076 91.4779 51.4909 90.8315C51.4495 90.4935 51.4251 90.1537 51.4178 89.8133C51.4178 89.7402 51.4178 89.6671 51.4178 89.5884C51.4178 89.5096 51.4178 89.3184 51.4178 89.459C51.4278 89.3711 51.4467 89.2844 51.474 89.2002C51.474 89.2002 51.5584 88.9527 51.5134 89.0596C51.6187 88.8648 51.6459 88.6372 51.5895 88.423C51.5331 88.2088 51.3973 88.0242 51.2096 87.9065C51.0188 87.8041 50.796 87.7786 50.5868 87.835C50.3777 87.8915 50.1981 88.0257 50.0847 88.2102L50.0284 88.3115Z" fill="#8E0BF4"/>
<path d="M46.5072 90.2182L45.2416 91.4388C45.0873 91.5995 44.999 91.8123 44.9941 92.0351C44.9943 92.2588 45.0834 92.4732 45.2416 92.6313C45.3193 92.7104 45.4122 92.7731 45.5146 92.8157C45.617 92.8582 45.727 92.8796 45.8379 92.8788C46.0613 92.8774 46.2754 92.7886 46.4341 92.6313L47.6997 91.4163C47.8581 91.2572 47.947 91.0418 47.947 90.8173C47.947 90.5928 47.8581 90.3774 47.6997 90.2182C47.6212 90.1406 47.5281 90.0793 47.4257 90.0378C47.3234 89.9963 47.2139 89.9754 47.1035 89.9763C46.8814 89.9791 46.6685 90.0655 46.5072 90.2182V90.2182Z" fill="#8E0BF4"/>
<path d="M50.6582 91.7256C51.5651 92.7329 52.6575 93.556 53.8757 94.15C53.9715 94.2106 54.0785 94.2513 54.1904 94.2696C54.3023 94.2879 54.4167 94.2835 54.5269 94.2566C54.637 94.2297 54.7406 94.1809 54.8315 94.1131C54.9223 94.0453 54.9986 93.9598 55.0557 93.8619C55.1128 93.7639 55.1495 93.6555 55.1638 93.543C55.1781 93.4305 55.1695 93.3164 55.1386 93.2073C55.1078 93.0982 55.0553 92.9964 54.9842 92.9081C54.9131 92.8197 54.825 92.7466 54.725 92.6931C54.1563 92.4092 53.6158 92.0721 53.1107 91.6862C53.1107 91.6862 52.9869 91.5962 53.1107 91.6862C53.2344 91.7762 53.1107 91.6862 53.0769 91.6581L52.8744 91.5175C52.7507 91.4219 52.6382 91.315 52.5201 91.2137C52.2838 90.9944 52.0645 90.7694 51.8507 90.5331C51.6925 90.3751 51.4781 90.2864 51.2545 90.2864C51.0309 90.2864 50.8164 90.3751 50.6582 90.5331C50.5029 90.6927 50.416 90.9067 50.416 91.1294C50.416 91.3521 50.5029 91.566 50.6582 91.7256V91.7256Z" fill="#8E0BF4"/>
<path d="M51.8779 96.0626C52.6841 96.8714 53.6685 97.4802 54.7523 97.8401C54.9678 97.8972 55.1971 97.8672 55.3907 97.7567C55.5843 97.6462 55.7268 97.464 55.7872 97.2495C55.8414 97.0341 55.8101 96.8061 55.7 96.6132C55.59 96.4203 55.4096 96.2775 55.1966 96.2145L54.7691 96.0513L54.966 96.1357C54.4517 95.9177 53.9677 95.6341 53.526 95.292L53.6948 95.427C53.4761 95.2515 53.2676 95.0637 53.0704 94.8645C52.9932 94.7816 52.9 94.7151 52.7965 94.669C52.693 94.6229 52.5813 94.5981 52.468 94.5961C52.3547 94.5941 52.2422 94.6149 52.1371 94.6574C52.0321 94.6998 51.9366 94.763 51.8565 94.8431C51.7764 94.9232 51.7132 95.0186 51.6708 95.1237C51.6283 95.2288 51.6075 95.3413 51.6095 95.4546C51.6115 95.5679 51.6363 95.6796 51.6824 95.7831C51.7285 95.8866 51.795 95.9797 51.8779 96.057V96.0626Z" fill="#8E0BF4"/>
<path d="M87.1863 61.4637C85.7464 60.7324 84.3289 61.4637 83.4008 62.6224C82.4622 63.8346 81.8781 65.2832 81.7133 66.8074C81.5502 68.253 82.0958 69.8729 83.637 70.3061C85.0432 70.6998 86.5226 69.8786 87.3101 68.7367C88.4351 67.083 87.8726 64.8386 87.3832 63.0724C87.3317 62.8964 87.2254 62.7415 87.0797 62.6302C86.934 62.5189 86.7565 62.4571 86.5732 62.4537L84.6776 62.3018C84.4538 62.3018 84.2392 62.3907 84.081 62.5489C83.9228 62.7071 83.8339 62.9218 83.8339 63.1455C83.8339 63.3693 83.9228 63.5839 84.081 63.7421C84.2392 63.9004 84.4538 63.9893 84.6776 63.9893L86.5732 64.1411L85.7576 63.5224C86.1064 64.7543 86.5226 66.1099 86.112 67.3755C86.0508 67.5786 85.9536 67.7692 85.8251 67.938C85.7687 68.0068 85.7086 68.0725 85.6451 68.1348C85.583 68.1985 85.5172 68.2586 85.4482 68.3148C85.3556 68.3857 85.2578 68.4496 85.1557 68.5061L84.9982 68.5848C84.8689 68.6523 85.0995 68.5511 84.9645 68.5848C84.8602 68.6262 84.753 68.66 84.6439 68.6861C84.6439 68.6861 84.4526 68.7255 84.5482 68.6861C84.6439 68.6467 84.4414 68.6861 84.4189 68.6861C84.3964 68.6861 84.0814 68.6861 84.2445 68.6861C84.1385 68.6699 84.0347 68.6416 83.9351 68.6017C84.0589 68.6523 83.8226 68.5286 83.7776 68.4948C83.8733 68.568 83.592 68.2811 83.637 68.3486C83.3988 67.9872 83.3045 67.5498 83.3726 67.1223C83.4584 66.0868 83.7838 65.0855 84.3232 64.1974C84.5863 63.7371 84.9404 63.3351 85.3639 63.0161L85.5157 62.9318C85.5157 62.9318 85.7182 62.8305 85.6395 62.8643C85.7338 62.8349 85.8295 62.8105 85.9263 62.7912C85.7351 62.7912 86.2245 62.8305 86.0445 62.7912C86.1445 62.8077 86.2414 62.84 86.3313 62.8868C86.5267 62.9938 86.7557 63.0219 86.9711 62.9654C87.1866 62.9089 87.3723 62.7721 87.4901 62.583C87.5911 62.3919 87.6159 62.1695 87.5595 61.9608C87.5032 61.752 87.3698 61.5724 87.1863 61.458V61.4637Z" fill="#00CCFF"/>
<path d="M88.6768 61.5423C88.4676 64.5906 88.5316 67.6516 88.8681 70.6885C88.8751 70.91 88.9663 71.1205 89.123 71.2773C89.2797 71.434 89.4903 71.5252 89.7118 71.5322C89.9351 71.5307 90.1489 71.4414 90.3068 71.2834C90.4647 71.1255 90.5541 70.9118 90.5555 70.6885C90.2191 67.6516 90.1551 64.5906 90.3643 61.5423C90.4374 60.4567 88.7499 60.4623 88.6768 61.5423Z" fill="#00CCFF"/>
<path d="M92.4122 66.8691C92.6448 66.6881 92.8955 66.5316 93.1603 66.4022L93.2616 66.3572C93.344 66.3197 93.3272 66.3197 93.2109 66.3572C93.2109 66.3572 93.3516 66.3066 93.3684 66.2953C93.5034 66.2447 93.644 66.2053 93.7903 66.166L94.2234 66.076C94.4147 66.0422 94.0209 66.076 94.2234 66.076C94.2965 66.076 94.3697 66.076 94.4428 66.076C94.5908 66.0675 94.7392 66.0675 94.8872 66.076C94.9603 66.076 95.0334 66.076 95.1065 66.076H95.0615H95.174C95.3928 66.125 95.622 66.0951 95.8209 65.9916C96.0096 65.8779 96.1482 65.6971 96.209 65.4854C96.2675 65.2728 96.2416 65.046 96.1368 64.8521C96.032 64.6582 95.8563 64.5123 95.6465 64.4447C94.9439 64.3187 94.223 64.3369 93.5277 64.4984C92.8324 64.6599 92.1773 64.9613 91.6022 65.3841C91.4197 65.502 91.2828 65.6786 91.2141 65.8847C91.1565 66.1049 91.1868 66.3389 91.2984 66.5372C91.4143 66.7284 91.6 66.8671 91.8163 66.9238C92.0326 66.9805 92.2624 66.9508 92.4572 66.841L92.4122 66.8691Z" fill="#00CCFF"/>
<path d="M49.9043 1.23742C49.8535 3.52155 49.9267 5.80676 50.1237 8.08295C50.1288 8.24741 50.1814 8.40689 50.2749 8.54224C50.3685 8.67759 50.4991 8.78307 50.6511 8.84601C50.8032 8.90896 50.9701 8.9267 51.132 8.89711C51.2938 8.86753 51.4437 8.79186 51.5636 8.6792C53.2484 6.93211 54.4972 4.81222 55.2086 2.49177C55.293 2.2049 55.3661 1.92928 55.4448 1.61991C55.4448 1.59179 55.4786 1.41741 55.4898 1.45679C55.2255 1.69303 54.978 1.72116 54.753 1.52991C54.708 1.46241 54.708 1.47366 54.753 1.52991C54.753 1.39491 54.8092 1.78303 54.753 1.61991C54.7614 1.74164 54.7614 1.8638 54.753 1.98553L54.798 3.05989L55.0174 7.31234C55.0567 8.39233 56.7442 8.39795 56.7048 7.31234L56.5586 3.52114C56.5586 2.90802 56.5586 2.2949 56.4855 1.68741C56.4708 1.1768 56.2709 0.688956 55.923 0.314927C55.6979 0.0936933 55.3949 -0.0302734 55.0792 -0.0302734C54.7636 -0.0302734 54.4606 0.0936933 54.2355 0.314927C53.8192 0.703047 53.763 1.34429 53.6111 1.86178C53.3314 2.84142 52.9388 3.78524 52.4411 4.67425C51.8695 5.69765 51.1681 6.64295 50.3543 7.48671L51.7943 8.08295C51.6029 5.80645 51.5353 3.52125 51.5918 1.23742C51.5918 0.151804 49.9043 0.151804 49.9043 1.23742Z" fill="#00CCFF"/>
<path d="M41.9448 7.58239L42.0629 2.19371L41.4442 3.00933C43.3251 2.60966 45.2502 2.45837 47.1704 2.55933L46.3548 1.94059C46.6507 3.80947 46.7393 5.7053 46.6191 7.59364C46.6191 7.81742 46.708 8.03203 46.8663 8.19026C47.0245 8.34849 47.2391 8.43738 47.4629 8.43738C47.6866 8.43738 47.9013 8.34849 48.0595 8.19026C48.2177 8.03203 48.3066 7.81742 48.3066 7.59364C48.4232 5.55349 48.3137 3.5067 47.9804 1.49059C47.9313 1.31324 47.8256 1.15679 47.6794 1.04509C47.5331 0.933386 47.3544 0.87255 47.1704 0.871852C45.0944 0.770721 43.0141 0.942817 40.983 1.38372C40.8061 1.43362 40.6501 1.53954 40.5386 1.68559C40.427 1.83164 40.3658 2.00993 40.3642 2.19371L40.2461 7.58239C40.2461 7.80617 40.335 8.02078 40.4932 8.17901C40.6515 8.33724 40.8661 8.42613 41.0898 8.42613C41.3136 8.42613 41.5282 8.33724 41.6864 8.17901C41.8447 8.02078 41.9336 7.80617 41.9336 7.58239H41.9448Z" fill="#00CCFF"/>
</g>
<defs>
<clipPath id="clip0_1063_14649">
<rect width="99.2575" height="100" fill="white"/>
</clipPath>
</defs>
</svg>
