<svg width="209" height="200" viewBox="0 0 209 200" fill="none" xmlns="http://www.w3.org/2000/svg">
<path d="M52.1229 93.5881C53.2971 88.3905 60.7029 88.3905 61.8771 93.5881L63.7724 101.977C64.5334 105.346 68.399 106.947 71.319 105.103L78.5914 100.511C83.0969 97.6664 88.3336 102.903 85.4886 107.409L80.8966 114.681C79.0528 117.601 80.654 121.467 84.0225 122.228L92.4119 124.123C97.6095 125.297 97.6095 132.703 92.4119 133.877L84.0225 135.772C80.654 136.533 79.0528 140.399 80.8966 143.319L85.4886 150.591C88.3336 155.097 83.0969 160.334 78.5914 157.489L71.319 152.897C68.399 151.053 64.5334 152.654 63.7724 156.023L61.8771 164.412C60.7029 169.61 53.2971 169.609 52.1229 164.412L50.2276 156.023C49.4666 152.654 45.601 151.053 42.681 152.897L35.4086 157.489C30.9031 160.334 25.6664 155.097 28.5114 150.591L33.1034 143.319C34.9472 140.399 33.346 136.533 29.9775 135.772L21.5881 133.877C16.3905 132.703 16.3905 125.297 21.5881 124.123L29.9775 122.228C33.346 121.467 34.9472 117.601 33.1034 114.681L28.5114 107.409C25.6664 102.903 30.9031 97.6664 35.4086 100.511L42.681 105.103C45.601 106.947 49.4666 105.346 50.2276 101.977L52.1229 93.5881Z" fill="#8E0BF4"/>
<path d="M148.249 10.1367C149.537 6.65438 154.463 6.65437 155.751 10.1366L160.546 23.0913C160.951 24.1861 161.814 25.0492 162.909 25.4544L175.863 30.2486C179.346 31.5374 179.346 36.4626 175.863 37.7514L162.909 42.5456C161.814 42.9508 160.951 43.8139 160.546 44.9087L155.751 57.8633C154.463 61.3456 149.537 61.3456 148.249 57.8634L143.454 44.9087C143.049 43.8139 142.186 42.9508 141.091 42.5456L128.137 37.7514C124.654 36.4626 124.654 31.5374 128.137 30.2486L141.091 25.4544C142.186 25.0492 143.049 24.1861 143.454 23.0913L148.249 10.1367Z" fill="#000E28"/>
<path d="M182.249 164.137C183.537 160.654 188.463 160.654 189.751 164.137L191.574 169.063C191.979 170.157 192.843 171.021 193.937 171.426L198.863 173.249C202.346 174.537 202.346 179.463 198.863 180.751L193.937 182.574C192.843 182.979 191.979 183.843 191.574 184.937L189.751 189.863C188.463 193.346 183.537 193.346 182.249 189.863L180.426 184.937C180.021 183.843 179.157 182.979 178.063 182.574L173.137 180.751C169.654 179.463 169.654 174.537 173.137 173.249L178.063 171.426C179.157 171.021 180.021 170.157 180.426 169.063L182.249 164.137Z" fill="#000E28"/>
</svg>
