<svg width="79" height="80" viewBox="0 0 79 80" fill="none" xmlns="http://www.w3.org/2000/svg">
<path d="M34.787 4.74506C35.9612 -0.45252 43.3669 -0.452509 44.5412 4.74508L46.4364 13.1345C47.1975 16.503 51.063 18.1042 53.9831 16.2604L61.2554 11.6684C65.761 8.8234 70.9976 14.0601 68.1527 18.5656L63.5607 25.838C61.7169 28.758 63.318 32.6236 66.6866 33.3846L75.076 35.2799C80.2736 36.4541 80.2736 43.8599 75.076 45.0341L66.6866 46.9294C63.318 47.6904 61.7169 51.556 63.5607 54.476L68.1527 61.7483C70.9976 66.2539 65.761 71.4905 61.2554 68.6456L53.9831 64.0536C51.063 62.2098 47.1975 63.811 46.4364 67.1795L44.5411 75.5689C43.3669 80.7665 35.9612 80.7665 34.787 75.5689L32.8917 67.1795C32.1307 63.8109 28.2651 62.2098 25.3451 64.0536L18.0727 68.6456C13.5671 71.4906 8.33049 66.2539 11.1754 61.7484L15.7675 54.476C17.6113 51.5559 16.0101 47.6904 12.6416 46.9294L4.25214 45.0341C-0.94544 43.8599 -0.945429 36.4541 4.25216 35.2799L12.6416 33.3846C16.0101 32.6236 17.6113 28.758 15.7675 25.838L11.1754 18.5656C8.33048 14.0601 13.5671 8.82341 18.0727 11.6684L25.3451 16.2604C28.2651 18.1042 32.1307 16.503 32.8917 13.1345L34.787 4.74506Z" fill="#000E28"/>
</svg>
