<svg width="187" height="192" viewBox="0 0 187 192" fill="none" xmlns="http://www.w3.org/2000/svg">
<path fill-rule="evenodd" clip-rule="evenodd" d="M137.548 41.5829C121.645 28.4291 112.803 4.61298 92.41 1.45087C71.3099 -1.82081 50.5539 11.2373 34.8111 25.653C19.3224 39.8361 11.1677 59.7111 6.44022 80.1736C1.70835 100.655 -4.90161 125.079 8.0058 141.678C20.9542 158.331 48.4065 149.356 67.389 158.558C83.5955 166.414 91.3863 187.775 109.155 190.71C128.6 193.922 149.844 187.739 164.53 174.604C179.136 161.539 184.331 141.082 186.424 121.597C188.334 103.818 185.051 85.6275 175.727 70.364C167.212 56.4232 150.137 51.9954 137.548 41.5829Z" fill="url(#paint0_linear_789_763)"/>
<defs>
<linearGradient id="paint0_linear_789_763" x1="141.997" y1="28.7176" x2="55.8929" y2="172.277" gradientUnits="userSpaceOnUse">
<stop stop-color="#FAFAFA"/>
<stop offset="1" stop-color="#EFDFF0"/>
</linearGradient>
</defs>
</svg>
