<svg width="79" height="80" viewBox="0 0 79 80" fill="none" xmlns="http://www.w3.org/2000/svg">
<path d="M34.7499 4.3625C35.9241 -0.835089 43.3298 -0.835078 44.504 4.36251L46.3993 12.7519C47.1603 16.1204 51.0259 17.7216 53.946 15.8778L61.2183 11.2858C65.7239 8.44084 70.9605 13.6775 68.1156 18.183L63.5236 25.4554C61.6797 28.3754 63.2809 32.241 66.6495 33.002L75.0389 34.8973C80.2365 36.0715 80.2364 43.4773 75.0389 44.6515L66.6495 46.5468C63.2809 47.3078 61.6797 51.1734 63.5236 54.0934L68.1156 61.3658C70.9605 65.8713 65.7239 71.108 61.2183 68.263L53.946 63.671C51.0259 61.8272 47.1603 63.4284 46.3993 66.7969L44.504 75.1863C43.3298 80.3839 35.9241 80.3839 34.7499 75.1863L32.8546 66.7969C32.0936 63.4284 28.228 61.8272 25.308 63.671L18.0356 68.263C13.53 71.108 8.29338 65.8713 11.1383 61.3658L15.7304 54.0934C17.5742 51.1734 15.973 47.3078 12.6044 46.5468L4.21504 44.6515C-0.98255 43.4773 -0.982539 36.0715 4.21505 34.8973L12.6044 33.002C15.973 32.241 17.5742 28.3754 15.7304 25.4554L11.1383 18.183C8.29337 13.6775 13.53 8.44084 18.0356 11.2858L25.308 15.8778C28.228 17.7216 32.0936 16.1204 32.8546 12.7519L34.7499 4.3625Z" fill="#8E0BF4"/>
</svg>
