<svg width="119" height="139" viewBox="0 0 119 139" fill="none" xmlns="http://www.w3.org/2000/svg">
<g clip-path="url(#clip0_1067_502)">
<path d="M75.8408 128.579C76.6491 128.508 77.0072 128.579 77.2426 128.436C96.0083 117.165 108.604 101.202 113.495 79.623C114.688 74.1252 114.561 68.4227 113.127 62.9832C111.757 57.2537 108.565 52.1248 104.033 48.3681C99.5013 44.6114 93.8734 42.4302 87.9966 42.1527C81.6628 41.7838 75.5543 42.4293 69.9777 45.9233C69.548 48.8844 69.3024 51.8353 68.6475 54.6838C68.227 56.8761 67.3345 58.9504 66.0322 60.7624C64.7298 62.5743 63.049 64.0804 61.1064 65.1759C58.0368 66.9177 54.9671 66.969 53.3095 65.1759C52.3671 64.2248 51.7726 62.9832 51.6222 61.6519C51.4718 60.3206 51.7743 58.9774 52.4807 57.8396C54.3504 54.5768 56.5114 51.4904 58.9372 48.618C60.609 46.843 62.4078 45.1924 64.3193 43.6793C62.6208 32.2036 51.7031 27.2342 38.5548 32.0704C38.125 33.6893 37.7669 35.4516 37.1939 37.132C35.0963 43.1773 31.382 47.829 25.1916 49.9808C22.8586 50.78 20.2801 51.0771 18.2644 48.9561C16.7091 47.3372 16.7193 44.4171 18.377 41.5789C21.0271 37.0603 24.9972 33.884 29.3356 31.138C30.85 30.1851 32.4052 29.3244 33.9094 28.474C31.9039 10.5636 15.8189 -2.12119 0 5.0409C0.153482 3.73964 0 2.60231 0.439983 1.96704C1.11969 1.2689 2.01281 0.818119 2.97756 0.686267C11.6237 -0.932633 19.7071 0.061249 26.399 6.3934C31.282 11.0879 34.9336 16.9159 37.0302 23.3611C37.3474 24.2935 37.685 25.2054 38.0534 26.1276C38.0534 26.2608 38.2785 26.3428 38.6264 26.6809C39.5166 26.5887 40.6728 26.5374 41.7472 26.3633C55.4378 24.2115 62.6208 27.9104 69.0057 40.7079L72.9553 39.4272C80.6129 36.7196 88.9512 36.6331 96.6632 39.1813C109.678 43.4539 118.079 54.6838 118.918 68.7928C119.374 76.376 118.158 83.9668 115.357 91.027C108.573 108.333 97.492 121.93 80.9875 130.844C80.1144 131.315 79.2549 131.797 78.409 132.288C78.2965 132.36 78.2453 132.555 77.8463 133.241C81.3047 134.051 84.5995 133.733 87.8738 133.59C91.1481 133.446 94.2893 133.19 97.7785 132.965C97.7511 133.964 97.3968 134.926 96.7701 135.703C96.1434 136.481 95.279 137.031 94.3098 137.268C92.3424 138.057 90.277 138.574 88.1705 138.805C82.594 139.01 76.997 139.123 71.4409 138.805C67.0104 138.518 65.803 136.131 67.788 132.545C72.0037 124.928 76.2739 117.339 80.5987 109.778C81.4323 108.508 82.3412 107.29 83.3205 106.13C85.2748 108.364 84.4051 110.003 83.6991 111.571C81.1512 117.073 78.5932 122.585 75.8408 128.579ZM21.4159 45.8925C28.4659 44.9499 32.8862 40.4313 33.1522 34.0786C28.4147 37.2242 23.8921 40.0214 21.4159 45.8925ZM55.9904 61.8151C62.0376 60.4524 64.8616 56.3539 64.2375 50.0525C60.3697 53.28 56.9317 56.3539 55.9904 61.8151Z" fill="black"/>
</g>
<defs>
<clipPath id="clip0_1067_502">
<rect width="119" height="139" fill="white"/>
</clipPath>
</defs>
</svg>
