<svg width="80" height="80" viewBox="0 0 80 80" fill="none" xmlns="http://www.w3.org/2000/svg">
<circle cx="40" cy="40" r="40" fill="#00CCFF"/>
<g clip-path="url(#clip0_778_7489)">
<path d="M48.5433 25.5193C45.7488 25.6959 43.5084 27.9363 43.3318 30.7308C43.1193 34.0927 45.8951 36.8791 49.2664 36.6655C52.0608 36.4889 54.3013 34.2485 54.4779 31.454C54.6904 28.0927 51.9155 25.3058 48.5433 25.5193ZM53.2208 31.3745C53.0841 33.5375 51.35 35.2716 49.187 35.4083C46.5635 35.5724 44.4247 33.4091 44.5889 30.8103C44.7256 28.6472 46.4598 26.9131 48.6228 26.7764C51.2322 26.6123 53.3858 28.7631 53.2208 31.3745Z" fill="white"/>
<path d="M58.5194 28.1257C57.6116 28.1223 57.1623 27.03 57.8041 26.3881C58.2712 25.9212 58.5283 25.3003 58.5283 24.6398C58.5283 23.9793 58.2712 23.3585 57.8041 22.8916L57.0764 22.1639C56.1157 21.2032 54.5908 21.2169 53.6051 22.1953C52.9608 22.8346 51.8706 22.3801 51.8706 21.4723C51.8706 20.1091 50.7615 19 49.3981 19H48.409C47.0457 19 45.9366 20.1091 45.9366 21.4724C45.9366 22.381 44.8433 22.8366 44.1989 22.1922C43.732 21.7251 43.1111 21.468 42.4507 21.468C41.7903 21.468 41.1694 21.7251 40.7025 22.1922L40.0031 22.8916C39.811 23.0837 39.6545 23.3032 39.5367 23.5412C38.6308 22.9851 37.5658 22.6637 36.4272 22.6637H30.9281C29.6843 22.6637 28.5732 23.4524 28.1632 24.6264C28.1347 24.7079 28.0544 24.7628 27.9633 24.7628C26.3383 24.7628 25.0162 26.0848 25.0162 27.7099C25.0162 28.0577 25.2982 28.3397 25.646 28.3397C25.9939 28.3397 26.2758 28.0576 26.2758 27.7099C26.2758 26.7794 27.0328 26.0224 27.9632 26.0224C28.5892 26.0224 29.1474 25.6284 29.3523 25.0418C29.586 24.3728 30.2191 23.9234 30.9281 23.9234H36.4271C39.0199 23.9234 41.1294 26.0329 41.1294 28.6256V32.0324C40.154 32.3064 40.0237 32.6718 39.2792 32.711V29.8583C39.2792 28.4099 38.1008 27.2316 36.6524 27.2316H36.6284C35.5499 27.2316 35.1094 27.6803 33.8261 27.6803H33.5794C32.3094 27.6803 31.847 27.2316 30.777 27.2316H30.753C29.3046 27.2316 28.1262 28.4099 28.1262 29.8583V32.3138C27.53 32.0615 26.8019 31.9661 26.2761 31.931V30.6898C26.2761 30.3419 25.9941 30.06 25.6463 30.06C25.2984 30.06 25.0165 30.342 25.0165 30.6898V32.2096C24.5884 32.5652 24.3342 33.0939 24.3342 33.6652V35.0682C24.3342 36.0759 25.1243 36.9024 26.1175 36.9609C26.3063 38.7863 27.1572 40.4588 28.5047 41.6191C28.7088 41.7948 28.9176 41.958 29.1304 42.1106V44.7598C29.1304 45.0094 28.9435 45.2219 28.6955 45.2541C28.6954 45.2541 28.6954 45.2541 28.6953 45.2541C26.8506 45.4935 23.4798 46.018 21.6304 46.8415C19.425 47.8234 18 50.0178 18 52.4319V58.6946C17.9998 60.5173 19.4826 62 21.3051 62H46.0999C47.9225 62 49.4052 60.5173 49.4052 58.6947V56.5677C49.4052 56.2199 49.1232 55.9379 48.7754 55.9379C48.4276 55.9379 48.1456 56.2199 48.1456 56.5677V58.6947C48.1456 59.8227 47.2279 60.7403 46.1 60.7403H44.4817V57.3058C44.4817 56.9579 44.1997 56.676 43.8519 56.676C43.5041 56.676 43.2221 56.958 43.2221 57.3058V60.7403H36.6749L35.5127 52.1497L36.1024 51.3213C36.2557 51.3629 36.4126 51.3849 36.5696 51.3849C36.9863 51.3849 37.4017 51.2391 37.7374 50.9509L40.5688 48.5207C41.0436 48.1131 41.2648 47.5129 41.1767 46.9092C42.629 47.1718 44.2393 47.5366 45.2627 47.9922C47.0141 48.772 48.1458 50.5147 48.1458 52.4319V53.6244C48.1458 53.9723 48.4278 54.2542 48.7756 54.2542C49.1234 54.2542 49.4054 53.9722 49.4054 53.6244V52.4319C49.4054 50.0178 47.9803 47.8234 45.775 46.8415C43.9256 46.0181 40.5548 45.4935 38.71 45.2541H38.71C38.462 45.2219 38.275 45.0095 38.275 44.7598V42.1106C38.4878 41.958 38.6967 41.7948 38.9008 41.6191C39.5223 41.0839 40.0365 40.4389 40.4305 39.7212L40.7025 39.9932C41.6687 40.9595 43.2327 40.9596 44.199 39.9932C44.8416 39.3507 45.9366 39.8016 45.9366 40.713C45.9366 42.0763 47.0457 43.1854 48.4091 43.1854H49.3982C50.7615 43.1854 51.8706 42.0763 51.8706 40.713C51.8706 39.8039 52.9643 39.3492 53.6083 39.9932C54.0752 40.4603 54.6961 40.7174 55.3566 40.7174C56.017 40.7174 56.6379 40.4603 57.1048 39.9933L57.8042 39.2939C58.7682 38.3298 58.7682 36.7614 57.8042 35.7974C57.1623 35.1555 57.6118 34.0632 58.5195 34.0597C59.9085 34.0545 60.9964 32.986 60.9964 31.6274V30.5582C60.9963 29.1995 59.9084 28.131 58.5194 28.1257ZM34.5303 51.3575H32.8749L32.3922 50.6795L33.7026 49.736L35.0131 50.6795L34.5303 51.3575ZM31.1478 50.0233C30.9472 50.1679 30.676 50.1563 30.4883 49.9952L27.6569 47.5649C27.4152 47.3575 27.4697 47.089 27.4921 47.0116C27.5143 46.9349 27.6108 46.683 27.9192 46.6334C28.1834 46.5946 28.4249 46.5609 28.6342 46.5329L32.5736 48.9968L31.1478 50.0233ZM19.2595 58.6947V52.432C19.2595 50.5148 20.3912 48.7722 22.1426 47.9923C23.166 47.5367 24.7763 47.1719 26.2285 46.9093C26.1404 47.513 26.3617 48.1132 26.8364 48.5208L29.6679 50.951C30.0036 51.2392 30.4189 51.385 30.8356 51.385C30.9926 51.385 31.1495 51.363 31.3028 51.3214L31.8925 52.1498L30.7303 60.7404H24.1831V57.3059C24.1831 56.958 23.9011 56.6761 23.5533 56.6761C23.2055 56.6761 22.9235 56.9581 22.9235 57.3059V60.7404H21.3051C20.1772 60.7403 19.2595 59.8226 19.2595 58.6947ZM32.0014 60.7403L33.1004 52.6172H34.3046L35.4037 60.7403H32.0014ZM39.913 47.0116C39.9355 47.0889 39.9898 47.3575 39.7482 47.5648L36.9168 49.9951C36.7291 50.1561 36.4579 50.1678 36.2574 50.0232L34.8316 48.9966L38.7709 46.5327C38.9802 46.5607 39.2218 46.5944 39.4861 46.6332C39.7944 46.683 39.8908 46.9349 39.913 47.0116ZM37.4279 45.887L33.7026 48.2171L29.9772 45.887C30.2349 45.5796 30.3899 45.1855 30.3899 44.7599V42.8547C32.5036 43.8565 34.9012 43.8566 37.0152 42.8547V44.7599C37.0152 45.1855 37.1702 45.5797 37.4279 45.887ZM38.0788 40.6646C35.4781 42.904 31.9275 42.9044 29.3264 40.6646C28.0996 39.6083 27.3751 38.0251 27.3385 36.3209C27.3312 35.9784 27.0514 35.7047 26.7088 35.7047H26.23C25.8791 35.7047 25.5936 35.4192 25.5936 35.0683V33.6653C25.5936 33.4712 25.6824 33.2925 25.83 33.173C26.5546 33.1892 27.6117 33.3354 27.9249 33.6443C28.1724 33.8884 28.5394 33.9596 28.8598 33.8256C29.1793 33.6919 29.3858 33.3815 29.3858 33.0348V29.8584C29.3858 29.1046 29.9991 28.4913 30.7529 28.4913C31.9111 28.5764 32.1818 28.9401 33.5793 28.9401H33.826C35.2717 28.9401 35.8183 28.4913 36.6283 28.4913H36.6523C37.4062 28.4913 38.0194 29.1046 38.0194 29.8584V32.8048C38.0194 33.449 38.5436 33.9732 39.1901 33.9732C40.3821 33.9732 40.704 33.4194 41.6168 33.2086C41.7395 33.3266 41.8116 33.49 41.8116 33.6654V35.0684C41.8116 35.4193 41.5261 35.7047 41.1752 35.7047H40.6964C40.3538 35.7047 40.074 35.9785 40.0667 36.321C40.0301 38.0251 39.3056 39.6083 38.0788 40.6646ZM59.7366 31.6274C59.7366 32.2824 59.1999 32.7975 58.5146 32.8001C56.4884 32.8078 55.4819 35.2567 56.9134 36.6882C57.3862 37.161 57.3862 37.9304 56.9134 38.4033L56.214 39.1028C55.985 39.3318 55.6804 39.458 55.3564 39.458C55.0325 39.458 54.728 39.3319 54.4989 39.1028C53.0646 37.6685 50.6109 38.6818 50.6109 40.7132C50.6109 41.3819 50.0668 41.926 49.3981 41.926H48.409C47.7403 41.926 47.1962 41.3819 47.1962 40.7132C47.1962 38.6843 44.7444 37.6666 43.3082 39.1028C42.8342 39.5768 42.0672 39.5768 41.5931 39.1028L40.9669 38.4766C41.1246 37.9892 41.234 37.4818 41.2879 36.9612C42.2811 36.9026 43.0712 36.0761 43.0712 35.0685V33.6654C43.0712 33.0943 42.817 32.5655 42.3889 32.2098V28.6259C42.3889 26.95 41.6927 25.4344 40.5757 24.3501C40.6277 24.1363 40.7358 23.9402 40.8936 23.7825L41.5931 23.0831C41.8221 22.854 42.1266 22.7278 42.4505 22.7278C42.7745 22.7278 43.0791 22.854 43.3081 23.0831C44.7425 24.5174 47.1961 23.504 47.1961 21.4726C47.1961 20.8039 47.7401 20.2598 48.4088 20.2598H49.398C50.0667 20.2598 50.6107 20.8039 50.6107 21.4726C50.6107 23.4996 53.0559 24.515 54.4921 23.0895C54.9786 22.607 55.7223 22.5916 56.1854 23.0547L56.9132 23.7825C57.1422 24.0115 57.2684 24.316 57.2684 24.64C57.2684 24.9639 57.1423 25.2685 56.9132 25.4975C55.4797 26.9309 56.4908 29.3779 58.5144 29.3855C59.1996 29.3881 59.7364 29.9033 59.7364 30.5583V31.6274H59.7366Z" fill="white"/>
</g>
<defs>
<clipPath id="clip0_778_7489">
<rect width="43" height="43" fill="white" transform="translate(18 19)"/>
</clipPath>
</defs>
</svg>
