<svg width="80" height="80" viewBox="0 0 80 80" fill="none" xmlns="http://www.w3.org/2000/svg">
<circle cx="40" cy="40" r="40" fill="#8E0BF4"/>
<g clip-path="url(#clip0_778_7478)">
<path d="M28.9141 30.4672C29.0148 30.6827 29.1748 30.8651 29.3755 30.9928C29.5761 31.1206 29.8091 31.1884 30.0469 31.1884H36.1251V33.3353C36.1251 33.6668 36.2568 33.9848 36.4912 34.2192C36.7256 34.4536 37.0436 34.5853 37.3751 34.5853C37.7066 34.5853 38.0245 34.4536 38.259 34.2192C38.4934 33.9848 38.6251 33.6668 38.6251 33.3353V31.1884H39.2009C39.5324 31.1884 39.8503 31.0567 40.0847 30.8222C40.3192 30.5878 40.4509 30.2699 40.4509 29.9384C40.4509 29.6068 40.3192 29.2889 40.0847 29.0545C39.8503 28.8201 39.5324 28.6884 39.2009 28.6884H38.6251V21.1872C38.625 20.9306 38.546 20.6803 38.3988 20.4702C38.2515 20.26 38.0432 20.1003 37.802 20.0127C37.5609 19.925 37.2986 19.9137 37.0508 19.9803C36.803 20.0468 36.5817 20.188 36.4169 20.3847L29.0884 29.1359C28.9357 29.3182 28.8382 29.5403 28.8073 29.7762C28.7765 30.012 28.8135 30.2517 28.9141 30.4672ZM36.1251 24.6269V28.6885H32.7239L36.1251 24.6269ZM42.4509 51.179L48.9994 40.955H44.1777C43.8462 40.955 43.5283 40.8233 43.2938 40.5889C43.0594 40.3545 42.9277 40.0365 42.9277 39.705C42.9277 39.3735 43.0594 39.0555 43.2938 38.8211C43.5283 38.5867 43.8462 38.455 44.1777 38.455H51.2845C51.5088 38.455 51.729 38.5154 51.922 38.6297C52.1149 38.7441 52.2735 38.9083 52.3812 39.1051C52.4888 39.3019 52.5415 39.524 52.5338 39.7482C52.526 39.9724 52.4581 40.1903 52.3371 40.3792L44.5559 52.5277C44.4675 52.6663 44.3527 52.7861 44.2179 52.8803C44.0832 52.9745 43.9312 53.0412 43.7707 53.0766C43.6101 53.112 43.4442 53.1153 43.2823 53.0865C43.1205 53.0576 42.9659 52.9971 42.8275 52.9085C42.6891 52.8198 42.5695 52.7047 42.4756 52.5697C42.3817 52.4348 42.3154 52.2826 42.2804 52.122C42.2454 51.9614 42.2424 51.7954 42.2716 51.6336C42.3009 51.4719 42.3617 51.3174 42.4507 51.1792L42.4509 51.179ZM48.9946 28.2097C49.229 28.4441 49.3607 28.762 49.3607 29.0936C49.3607 29.4251 49.229 29.743 48.9946 29.9774L30.5682 48.4039C30.3333 48.636 30.0161 48.7657 29.6859 48.7647C29.3557 48.7637 29.0393 48.6321 28.8058 48.3986C28.5723 48.1651 28.4407 47.8487 28.4397 47.5185C28.4387 47.1883 28.5684 46.8711 28.8005 46.6362L47.2266 28.2097C47.3427 28.0936 47.4805 28.0015 47.6322 27.9387C47.7839 27.8758 47.9464 27.8435 48.1106 27.8435C48.2748 27.8435 48.4374 27.8758 48.589 27.9387C48.7407 28.0015 48.8785 28.0936 48.9946 28.2097ZM27.0704 25.5908C27.3868 24.4322 27.1862 23.5595 26.4744 22.9959C25.6775 22.3654 24.3507 22.2537 23.4537 22.7423C22.7723 23.1134 22.4704 23.7545 22.5563 24.6485C22.588 24.9785 22.4873 25.3076 22.2764 25.5634C22.0654 25.8192 21.7615 25.9807 21.4315 26.0124C21.1015 26.044 20.7724 25.9433 20.5166 25.7324C20.2608 25.5214 20.0993 25.2175 20.0677 24.8875C19.8848 22.9863 20.6831 21.4043 22.2579 20.5467C24.0255 19.5842 26.451 19.7897 28.0254 21.0353C29.5307 22.2263 30.0615 24.1268 29.4818 26.2494C29.0905 27.682 27.7513 28.727 26.2005 29.9373C25.3634 30.5906 24.4604 31.2952 23.7033 32.0857H28.8813C29.2128 32.0857 29.5308 32.2174 29.7652 32.4518C29.9996 32.6862 30.1313 33.0042 30.1313 33.3357C30.1313 33.6672 29.9996 33.9852 29.7652 34.2196C29.5308 34.454 29.2128 34.5857 28.8813 34.5857H21.2762C21.0644 34.5858 20.856 34.532 20.6706 34.4294C20.4853 34.3269 20.329 34.1789 20.2166 33.9993C20.1041 33.8198 20.0391 33.6147 20.0277 33.4031C20.0162 33.1916 20.0588 32.9806 20.1512 32.79C21.1688 30.6928 23.0248 29.2445 24.6622 27.9667C25.7615 27.1088 26.8977 26.2221 27.0704 25.5908ZM60.0001 40.0666C60.0001 44.0222 58.8271 47.889 56.6295 51.178C54.4319 54.467 51.3083 57.0305 47.6538 58.5443C43.9992 60.058 39.9779 60.4541 36.0982 59.6824C32.2186 58.9107 28.6549 57.0058 25.8579 54.2088C23.9949 52.3559 22.5179 50.1519 21.5124 47.7244C20.5069 45.2969 19.9929 42.6941 20.0001 40.0666C20.0001 39.735 20.1318 39.4171 20.3662 39.1827C20.6006 38.9483 20.9186 38.8166 21.2501 38.8166C21.5816 38.8166 21.8995 38.9483 22.134 39.1827C22.3684 39.4171 22.5001 39.735 22.5001 40.0666C22.5001 49.7161 30.3505 57.5666 40.0001 57.5666C49.6496 57.5666 57.5001 49.7161 57.5001 40.0666C57.5001 31.3059 50.9599 23.8465 42.2871 22.715C42.1226 22.6958 41.9636 22.6442 41.8192 22.563C41.6749 22.4819 41.5481 22.3729 41.4462 22.2423C41.3443 22.1117 41.2694 21.9622 41.2258 21.8025C41.1822 21.6427 41.1708 21.4759 41.1923 21.3117C41.2137 21.1475 41.2675 20.9891 41.3507 20.8459C41.4338 20.7027 41.5445 20.5774 41.6765 20.4774C41.8085 20.3773 41.959 20.3045 42.1193 20.2631C42.2797 20.2217 42.4466 20.2126 42.6105 20.2363C47.4212 20.8702 51.8374 23.2312 55.0365 26.8794C58.2357 30.5276 59.9998 35.2143 60.0001 40.0666Z" fill="white"/>
</g>
<defs>
<clipPath id="clip0_778_7478">
<rect width="40" height="40" fill="white" transform="translate(20 20)"/>
</clipPath>
</defs>
</svg>
