<svg width="205" height="175" viewBox="0 0 205 175" fill="none" xmlns="http://www.w3.org/2000/svg">
<path d="M180.917 127.019C174.275 140.093 163.007 149.261 150.137 153.468C137.247 157.711 122.828 157.031 109.826 150.425L106.697 148.835C106.334 121.598 91.3119 95.4431 65.4574 82.307L18.405 58.4008L39.1698 17.5315C44.0803 7.86669 55.8633 3.95598 65.475 8.83943L157.866 55.7812C183.907 69.0119 194.183 100.909 180.917 127.019Z" fill="#EFDFF0"/>
<path d="M80.3282 75.4315C81.4215 70.5922 88.3168 70.5922 89.4101 75.4315C90.1186 78.5679 93.7178 80.0587 96.4366 78.342C100.632 75.6931 105.507 80.5688 102.858 84.7639C101.142 87.4826 102.633 91.0818 105.769 91.7903C110.608 92.8836 110.608 99.779 105.769 100.872C102.633 101.581 101.142 105.18 102.858 107.899C105.507 112.094 100.632 116.969 96.4366 114.321C93.7178 112.604 90.1186 114.095 89.4101 117.231C88.3168 122.07 81.4215 122.07 80.3282 117.231C79.6196 114.095 76.0205 112.604 73.3017 114.321C69.1067 116.969 64.2309 112.094 66.8798 107.899C68.5965 105.18 67.1057 101.581 63.9694 100.872C59.13 99.779 59.13 92.8836 63.9694 91.7903C67.1057 91.0818 68.5965 87.4826 66.8798 84.7639C64.2309 80.5688 69.1067 75.6931 73.3017 78.342C76.0205 80.0587 79.6196 78.5679 80.3282 75.4315Z" fill="#8E0BF4"/>
</svg>
