<svg width="40" height="40" viewBox="0 0 40 40" fill="none" xmlns="http://www.w3.org/2000/svg">
<g clip-path="url(#clip0_778_7481)">
<path d="M8.91414 10.4672C9.01477 10.6827 9.17482 10.8651 9.37547 10.9928C9.57613 11.1206 9.80908 11.1884 10.0469 11.1884H16.1251V13.3353C16.1251 13.6668 16.2568 13.9848 16.4912 14.2192C16.7256 14.4536 17.0436 14.5853 17.3751 14.5853C17.7066 14.5853 18.0245 14.4536 18.259 14.2192C18.4934 13.9848 18.6251 13.6668 18.6251 13.3353V11.1884H19.2009C19.5324 11.1884 19.8503 11.0567 20.0847 10.8222C20.3192 10.5878 20.4509 10.2699 20.4509 9.93837C20.4509 9.60684 20.3192 9.2889 20.0847 9.05448C19.8503 8.82006 19.5324 8.68837 19.2009 8.68837H18.6251V1.18719C18.625 0.930621 18.546 0.680281 18.3988 0.47016C18.2515 0.26004 18.0432 0.100319 17.802 0.0126807C17.5609 -0.0749578 17.2986 -0.0862683 17.0508 -0.0197151C16.803 0.0468381 16.5817 0.188031 16.4169 0.384695L9.08836 9.13587C8.93567 9.31821 8.83818 9.54033 8.80732 9.77615C8.77646 10.012 8.81352 10.2517 8.91414 10.4672ZM16.1251 4.62688V8.68852H12.7239L16.1251 4.62688ZM22.4509 31.179L28.9994 20.955H24.1777C23.8462 20.955 23.5283 20.8233 23.2938 20.5889C23.0594 20.3545 22.9277 20.0365 22.9277 19.705C22.9277 19.3735 23.0594 19.0555 23.2938 18.8211C23.5283 18.5867 23.8462 18.455 24.1777 18.455H31.2845C31.5088 18.455 31.729 18.5154 31.922 18.6297C32.1149 18.7441 32.2735 18.9083 32.3812 19.1051C32.4888 19.3019 32.5415 19.524 32.5338 19.7482C32.526 19.9724 32.4581 20.1903 32.3371 20.3792L24.5559 32.5277C24.4675 32.6663 24.3527 32.7861 24.2179 32.8803C24.0832 32.9745 23.9312 33.0412 23.7707 33.0766C23.6101 33.112 23.4442 33.1153 23.2823 33.0865C23.1205 33.0576 22.9659 32.9971 22.8275 32.9085C22.6891 32.8198 22.5695 32.7047 22.4756 32.5697C22.3817 32.4348 22.3154 32.2826 22.2804 32.122C22.2454 31.9614 22.2424 31.7954 22.2716 31.6336C22.3009 31.4719 22.3617 31.3174 22.4507 31.1792L22.4509 31.179ZM28.9946 8.20969C29.229 8.44411 29.3607 8.76205 29.3607 9.09356C29.3607 9.42507 29.229 9.74301 28.9946 9.97743L10.5682 28.4039C10.3333 28.636 10.0161 28.7657 9.6859 28.7647C9.3557 28.7637 9.03931 28.6321 8.80581 28.3986C8.57232 28.1651 8.44071 27.8487 8.4397 27.5185C8.4387 27.1883 8.5684 26.8711 8.80046 26.6362L27.2266 8.20969C27.3427 8.09359 27.4805 8.00149 27.6322 7.93865C27.7839 7.87582 27.9464 7.84348 28.1106 7.84348C28.2748 7.84348 28.4374 7.87582 28.589 7.93865C28.7407 8.00149 28.8785 8.09359 28.9946 8.20969ZM7.07039 5.59079C7.38679 4.43219 7.18625 3.55954 6.47437 2.99587C5.6775 2.3654 4.3507 2.25368 3.45375 2.74227C2.77234 3.11337 2.47039 3.75454 2.55632 4.64852C2.58802 4.97854 2.48731 5.30763 2.27636 5.5634C2.06541 5.81917 1.7615 5.98066 1.43148 6.01235C1.10146 6.04404 0.772371 5.94334 0.516604 5.73239C0.260836 5.52144 0.0993436 5.21753 0.0676523 4.88751C-0.115238 2.98626 0.683121 1.4043 2.25789 0.546726C4.02546 -0.415774 6.45101 -0.210305 8.02539 1.03532C9.5307 2.22634 10.0615 4.1268 9.48179 6.24938C9.09054 7.68204 7.75132 8.72704 6.20054 9.93727C5.36336 10.5906 4.46039 11.2952 3.70328 12.0857H8.88132C9.21284 12.0857 9.53079 12.2174 9.76521 12.4518C9.99963 12.6862 10.1313 13.0042 10.1313 13.3357C10.1313 13.6672 9.99963 13.9852 9.76521 14.2196C9.53079 14.454 9.21284 14.5857 8.88132 14.5857H1.27625C1.0644 14.5858 0.856007 14.532 0.670644 14.4294C0.48528 14.3269 0.329026 14.1789 0.216553 13.9993C0.104081 13.8198 0.0390807 13.6147 0.0276571 13.4031C0.0162334 13.1916 0.0587609 12.9806 0.151246 12.79C1.16882 10.6928 3.02476 9.24454 4.66218 7.96673C5.76148 7.10883 6.89773 6.22212 7.07039 5.59079ZM40.0001 20.0666C40.0001 24.0222 38.8271 27.889 36.6295 31.178C34.4319 34.467 31.3083 37.0305 27.6538 38.5443C23.9992 40.058 19.9779 40.4541 16.0982 39.6824C12.2186 38.9107 8.65494 37.0058 5.85789 34.2088C3.9949 32.3559 2.51792 30.1519 1.51243 27.7244C0.506932 25.2969 -0.00710289 22.6941 7.41297e-05 20.0666C7.41297e-05 19.735 0.13177 19.4171 0.366191 19.1827C0.600611 18.9483 0.918553 18.8166 1.25007 18.8166C1.58159 18.8166 1.89954 18.9483 2.13396 19.1827C2.36838 19.4171 2.50007 19.735 2.50007 20.0666C2.50007 29.7161 10.3505 37.5666 20.0001 37.5666C29.6496 37.5666 37.5001 29.7161 37.5001 20.0666C37.5001 11.3059 30.9599 3.84649 22.2871 2.71501C22.1226 2.69584 21.9636 2.64419 21.8192 2.56304C21.6749 2.48189 21.5481 2.37287 21.4462 2.2423C21.3443 2.11174 21.2694 1.96223 21.2258 1.80247C21.1822 1.64271 21.1708 1.47588 21.1923 1.31167C21.2137 1.14746 21.2675 0.989144 21.3507 0.84592C21.4338 0.702695 21.5445 0.577416 21.6765 0.47736C21.8085 0.377304 21.959 0.304465 22.1193 0.263076C22.2797 0.221686 22.4466 0.21257 22.6105 0.236257C27.4212 0.870246 31.8374 3.23123 35.0365 6.87943C38.2357 10.5276 39.9998 15.2143 40.0001 20.0666Z" fill="white"/>
</g>
<defs>
<clipPath id="clip0_778_7481">
<rect width="40" height="40" fill="white"/>
</clipPath>
</defs>
</svg>
