<svg width="43" height="43" viewBox="0 0 43 43" fill="none" xmlns="http://www.w3.org/2000/svg">
<g clip-path="url(#clip0_778_7492)">
<path d="M30.5433 6.51933C27.7488 6.69586 25.5084 8.93631 25.3318 11.7308C25.1193 15.0927 27.8951 17.8791 31.2664 17.6655C34.0608 17.4889 36.3013 15.2485 36.4779 12.454C36.6904 9.09269 33.9155 6.30575 30.5433 6.51933ZM35.2208 12.3745C35.0841 14.5375 33.35 16.2716 31.187 16.4083C28.5635 16.5724 26.4247 14.4091 26.5889 11.8103C26.7256 9.64724 28.4598 7.91313 30.6228 7.7764C33.2322 7.6123 35.3858 9.76314 35.2208 12.3745Z" fill="white"/>
<path d="M40.5194 9.12574C39.6116 9.1223 39.1623 8.03 39.8041 7.38811C40.2712 6.92115 40.5283 6.30026 40.5283 5.6398C40.5283 4.97935 40.2712 4.35854 39.8041 3.89158L39.0764 3.16386C38.1157 2.20316 36.5908 2.21694 35.6051 3.19527C34.9608 3.83464 33.8706 3.38012 33.8706 2.47233C33.8706 1.1091 32.7615 0 31.3981 0H30.409C29.0457 0 27.9366 1.1091 27.9366 2.47242C27.9366 3.38104 26.8433 3.83657 26.1989 3.19216C25.732 2.72512 25.1111 2.46796 24.4507 2.46796C23.7903 2.46796 23.1694 2.72512 22.7025 3.19216L22.0031 3.89158C21.811 4.08366 21.6545 4.30319 21.5367 4.5412C20.6308 3.98506 19.5658 3.66373 18.4272 3.66373H12.9281C11.6843 3.66373 10.5732 4.45243 10.1632 5.62636C10.1347 5.70791 10.0544 5.76276 9.96332 5.76276C8.3383 5.76276 7.01622 7.08484 7.01622 8.70985C7.01622 9.05771 7.29824 9.33965 7.64602 9.33965C7.99389 9.33965 8.27582 9.05763 8.27582 8.70985C8.27582 7.77939 9.03277 7.02244 9.96323 7.02244C10.5892 7.02244 11.1474 6.62838 11.3523 6.04175C11.586 5.37282 12.2191 4.92342 12.9281 4.92342H18.4271C21.0199 4.92342 23.1294 7.03285 23.1294 9.62562V13.0324C22.154 13.3064 22.0237 13.6718 21.2792 13.711V10.8583C21.2792 9.40994 20.1008 8.23156 18.6524 8.23156H18.6284C17.5499 8.23156 17.1094 8.68029 15.8261 8.68029H15.5794C14.3094 8.68029 13.847 8.23156 12.777 8.23156H12.753C11.3046 8.23156 10.1262 9.40994 10.1262 10.8583V13.3138C9.52996 13.0615 8.8019 12.9661 8.27607 12.931V11.6898C8.27607 11.3419 7.99405 11.06 7.64627 11.06C7.29841 11.06 7.01647 11.342 7.01647 11.6898V13.2096C6.58841 13.5652 6.33419 14.0939 6.33419 14.6652V16.0682C6.33419 17.0759 7.12431 17.9024 8.11751 17.9609C8.30631 19.7863 9.15715 21.4588 10.5047 22.6191C10.7088 22.7948 10.9176 22.958 11.1304 23.1106V25.7598C11.1304 26.0094 10.9435 26.2219 10.6955 26.2541C10.6954 26.2541 10.6954 26.2541 10.6953 26.2541C8.85061 26.4935 5.47981 27.018 3.63039 27.8415C1.42496 28.8234 1.42695e-08 31.0178 1.42695e-08 33.4319V39.6946C-0.000167954 41.5173 1.48258 43 3.30512 43H28.0999C29.9225 43 31.4052 41.5173 31.4052 39.6947V37.5677C31.4052 37.2199 31.1232 36.9379 30.7754 36.9379C30.4276 36.9379 30.1456 37.2199 30.1456 37.5677V39.6947C30.1456 40.8227 29.2279 41.7403 28.1 41.7403H26.4817V38.3058C26.4817 37.9579 26.1997 37.676 25.8519 37.676C25.5041 37.676 25.2221 37.958 25.2221 38.3058V41.7403H18.6749L17.5127 33.1497L18.1024 32.3213C18.2557 32.3629 18.4126 32.3849 18.5696 32.3849C18.9863 32.3849 19.4017 32.2391 19.7374 31.9509L22.5688 29.5207C23.0436 29.1131 23.2648 28.5129 23.1767 27.9092C24.629 28.1718 26.2393 28.5366 27.2627 28.9922C29.0141 29.772 30.1458 31.5147 30.1458 33.4319V34.6244C30.1458 34.9723 30.4278 35.2542 30.7756 35.2542C31.1234 35.2542 31.4054 34.9722 31.4054 34.6244V33.4319C31.4054 31.0178 29.9803 28.8234 27.775 27.8415C25.9256 27.0181 22.5548 26.4935 20.71 26.2541H20.71C20.462 26.2219 20.275 26.0095 20.275 25.7598V23.1106C20.4878 22.958 20.6967 22.7948 20.9008 22.6191C21.5223 22.0839 22.0365 21.4389 22.4305 20.7212L22.7025 20.9932C23.6687 21.9595 25.2327 21.9596 26.199 20.9932C26.8416 20.3507 27.9366 20.8016 27.9366 21.713C27.9366 23.0763 29.0457 24.1854 30.4091 24.1854H31.3982C32.7615 24.1854 33.8706 23.0763 33.8706 21.713C33.8706 20.8039 34.9643 20.3492 35.6083 20.9932C36.0752 21.4603 36.6961 21.7174 37.3566 21.7174C38.017 21.7174 38.6379 21.4603 39.1048 20.9933L39.8042 20.2939C40.7682 19.3298 40.7682 17.7614 39.8042 16.7974C39.1623 16.1555 39.6118 15.0632 40.5195 15.0597C41.9085 15.0545 42.9964 13.986 42.9964 12.6274V11.5582C42.9963 10.1995 41.9084 9.13103 40.5194 9.12574ZM16.5303 32.3575H14.8749L14.3922 31.6795L15.7026 30.736L17.0131 31.6795L16.5303 32.3575ZM13.1478 31.0233C12.9472 31.1679 12.676 31.1563 12.4883 30.9952L9.65686 28.5649C9.41524 28.3575 9.46966 28.089 9.49208 28.0116C9.51434 27.9349 9.61075 27.683 9.91923 27.6334C10.1834 27.5946 10.4249 27.5609 10.6342 27.5329L14.5736 29.9968L13.1478 31.0233ZM1.25951 39.6947V33.432C1.25951 31.5148 2.3912 29.7722 4.14261 28.9923C5.16596 28.5367 6.77628 28.1719 8.22854 27.9093C8.14035 28.513 8.36165 29.1132 8.83642 29.5208L11.6679 31.951C12.0036 32.2392 12.4189 32.385 12.8356 32.385C12.9926 32.385 13.1495 32.363 13.3028 32.3214L13.8925 33.1498L12.7303 41.7404H6.1831V38.3059C6.1831 37.958 5.90108 37.6761 5.5533 37.6761C5.20552 37.6761 4.9235 37.9581 4.9235 38.3059V41.7404H3.30512C2.17721 41.7403 1.25951 40.8226 1.25951 39.6947ZM14.0014 41.7403L15.1004 33.6172H16.3046L17.4037 41.7403H14.0014ZM21.913 28.0116C21.9355 28.0889 21.9898 28.3575 21.7482 28.5648L18.9168 30.9951C18.7291 31.1561 18.4579 31.1678 18.2574 31.0232L16.8316 29.9966L20.7709 27.5327C20.9802 27.5607 21.2218 27.5944 21.4861 27.6332C21.7944 27.683 21.8908 27.9349 21.913 28.0116ZM19.4279 26.887L15.7026 29.2171L11.9772 26.887C12.2349 26.5796 12.3899 26.1855 12.3899 25.7599V23.8547C14.5036 24.8565 16.9012 24.8566 19.0152 23.8547V25.7599C19.0152 26.1855 19.1702 26.5797 19.4279 26.887ZM20.0788 21.6646C17.4781 23.904 13.9275 23.9044 11.3264 21.6646C10.0996 20.6083 9.37509 19.0251 9.33847 17.3209C9.33117 16.9784 9.05142 16.7047 8.70884 16.7047H8.22996C7.87908 16.7047 7.59362 16.4192 7.59362 16.0683V14.6653C7.59362 14.4712 7.68239 14.2925 7.83003 14.173C8.55456 14.1892 9.61168 14.3354 9.92485 14.6443C10.1724 14.8884 10.5394 14.9596 10.8598 14.8256C11.1793 14.6919 11.3858 14.3815 11.3858 14.0348V10.8584C11.3858 10.1046 11.9991 9.49133 12.7529 9.49133C13.9111 9.5764 14.1818 9.94005 15.5793 9.94005H15.826C17.2717 9.94005 17.8183 9.49133 18.6283 9.49133H18.6523C19.4062 9.49133 20.0194 10.1046 20.0194 10.8584V13.8048C20.0194 14.449 20.5436 14.9732 21.1901 14.9732C22.3821 14.9732 22.704 14.4194 23.6168 14.2086C23.7395 14.3266 23.8116 14.49 23.8116 14.6654V16.0684C23.8116 16.4193 23.5261 16.7047 23.1752 16.7047H22.6964C22.3538 16.7047 22.074 16.9785 22.0667 17.321C22.0301 19.0251 21.3056 20.6083 20.0788 21.6646ZM41.7366 12.6274C41.7366 13.2824 41.1999 13.7975 40.5146 13.8001C38.4884 13.8078 37.4819 16.2567 38.9134 17.6882C39.3862 18.161 39.3862 18.9304 38.9134 19.4033L38.214 20.1028C37.985 20.3318 37.6804 20.458 37.3564 20.458C37.0325 20.458 36.728 20.3319 36.4989 20.1028C35.0646 18.6685 32.6109 19.6818 32.6109 21.7132C32.6109 22.3819 32.0668 22.926 31.3981 22.926H30.409C29.7403 22.926 29.1962 22.3819 29.1962 21.7132C29.1962 19.6843 26.7444 18.6666 25.3082 20.1028C24.8342 20.5768 24.0672 20.5768 23.5931 20.1028L22.9669 19.4766C23.1246 18.9892 23.234 18.4818 23.2879 17.9612C24.2811 17.9026 25.0712 17.0761 25.0712 16.0685V14.6654C25.0712 14.0943 24.817 13.5655 24.3889 13.2098V9.62587C24.3889 7.94996 23.6927 6.43438 22.5757 5.35014C22.6277 5.13632 22.7358 4.94021 22.8936 4.78249L23.5931 4.08307C23.8221 3.85404 24.1266 3.72781 24.4505 3.72781C24.7745 3.72781 25.0791 3.85396 25.3081 4.08307C26.7425 5.51735 29.1961 4.504 29.1961 2.47258C29.1961 1.8039 29.7401 1.25985 30.4088 1.25985H31.398C32.0667 1.25985 32.6107 1.8039 32.6107 2.47258C32.6107 4.49963 35.0559 5.515 36.4921 4.08954C36.9786 3.60696 37.7223 3.59159 38.1854 4.05468L38.9132 4.78249C39.1422 5.01152 39.2684 5.31604 39.2684 5.63997C39.2684 5.9639 39.1423 6.26851 38.9132 6.49753C37.4797 7.9309 38.4908 10.3779 40.5144 10.3855C41.1996 10.3881 41.7364 10.9033 41.7364 11.5583V12.6274H41.7366Z" fill="white"/>
</g>
<defs>
<clipPath id="clip0_778_7492">
<rect width="43" height="43" fill="white"/>
</clipPath>
</defs>
</svg>
